<?xml version="1.0" encoding="UTF-8" standalone="no"?>
<svg
   xmlns:dc="http://purl.org/dc/elements/1.1/"
   xmlns:cc="http://creativecommons.org/ns#"
   xmlns:rdf="http://www.w3.org/1999/02/22-rdf-syntax-ns#"
   xmlns:svg="http://www.w3.org/2000/svg"
   xmlns="http://www.w3.org/2000/svg"
   xmlns:sodipodi="http://sodipodi.sourceforge.net/DTD/sodipodi-0.dtd"
   xmlns:inkscape="http://www.inkscape.org/namespaces/inkscape"
   viewBox="0 0 312 236"
   version="1.1"
   id="svg325"
   sodipodi:docname="about.svg"
   inkscape:version="0.92.5 (2060ec1f9f, 2020-04-08)">
  <metadata
     id="metadata329">
    <rdf:RDF>
      <cc:Work
         rdf:about="">
        <dc:format>image/svg+xml</dc:format>
        <dc:type
           rdf:resource="http://purl.org/dc/dcmitype/StillImage" />
      </cc:Work>
    </rdf:RDF>
  </metadata>
  <sodipodi:namedview
     pagecolor="#ffffff"
     bordercolor="#666666"
     borderopacity="1"
     objecttolerance="10"
     gridtolerance="10"
     guidetolerance="10"
     inkscape:pageopacity="0"
     inkscape:pageshadow="2"
     inkscape:window-width="1366"
     inkscape:window-height="704"
     id="namedview327"
     showgrid="false"
     inkscape:zoom="2"
     inkscape:cx="75.668214"
     inkscape:cy="90.329136"
     inkscape:window-x="0"
     inkscape:window-y="27"
     inkscape:window-maximized="1"
     inkscape:current-layer="g318" />
  <g
     clip-path="url(#clip0)"
     id="g318">
    <path
       d="m 146.137,4.22643 c 31.611,-7.20224 60.137,18.93117 83.855,36.29937 21.025,15.3964 32.986,35.3051 42.507,56.234 9.693,21.3062 27.782,45.7782 12.751,65.2332 -15.288,19.79 -54.954,15.11 -82.369,24.881 -20.237,7.212 -34.986,20.765 -56.744,24.699 -26.786,4.843 -59.9237,13.892 -80.6016,0.134 C 44.5361,197.736 61.8497,170.746 54.1954,150.402 47.0089,131.301 13.4763,116.078 22.5437,97.4402 31.6999,78.6197 73.623,86.0355 92.3992,71.8745 117.647,52.8331 111.996,12.005 146.137,4.22643 Z"
       id="path2"
       inkscape:connector-curvature="0"
       style="clip-rule:evenodd;fill-rule:evenodd;fill:#ebebeb;fill-opacity:1" />
    <path
       d="m 47.432166,210.16491 c -2.097,-0.984 -4.453,-1.271 -6.724,-0.817 -1.221,0.203 -2.488,0.579 -3.322,1.483 -0.833,0.903 -0.989,2.531 -0.035,3.319 0.615,0.417 1.356,0.605 2.095,0.533 1.777,0 3.75,-0.336 5.168,0.735 0.81,0.608 1.348,1.628 2.315,1.929 0.484,0.108 0.99,0.056 1.444,-0.146 0.453,-0.202 0.829,-0.545 1.073,-0.978 0.463,-0.893 0.564,-1.93 0.283,-2.896 -0.114,-0.668 -0.381,-1.301 -0.779,-1.849 -0.399,-0.549 -0.918,-0.998 -1.518,-1.313 z"
       id="path76"
       inkscape:connector-curvature="0"
       style="fill:#263238;fill-opacity:1" />
    <path
       d="m 52.119166,201.11191 c -1.25,1.79 -3.68,1.193 -4.808,0.104 -1.129,-1.089 -1.603,-2.67 -2.037,-4.182 -0.99,-3.446 -1.991,-7.06 -1.25,-10.57 0.173,-1.072 0.64,-2.074 1.348,-2.896 0.356,-0.4 0.81,-0.7 1.318,-0.87 0.508,-0.169 1.051,-0.203 1.575,-0.098 1.227,0.325 1.985,1.524 2.535,2.67 1.622,3.375 2.472,7.069 2.488,10.814 0,1.738 -0.196,3.568 -1.157,5.005"
       id="path78"
       inkscape:connector-curvature="0"
       style="fill:#263238;fill-opacity:1" />
    <path
       d="m 55.551166,203.67791 c -0.642,-0.84 -1.07,-1.824 -1.246,-2.866 -0.177,-1.043 -0.097,-2.113 0.233,-3.118 0.686,-2.007 1.911,-3.787 3.542,-5.143 1.857,-1.652 4.02,-2.925 6.365,-3.747 0.905,-0.367 1.878,-0.533 2.853,-0.487 0.487,0.028 0.96,0.174 1.378,0.426 0.417,0.253 0.767,0.604 1.018,1.022 0.665,1.274 0,2.821 -0.666,4.055 -1.219,2.23 -2.612,4.36 -4.166,6.371 -1.25,1.61 -2.679,3.203 -4.583,3.927 -1.904,0.724 -3.877,0.643 -4.89,-0.678"
       id="path80"
       inkscape:connector-curvature="0"
       style="fill:#263238;fill-opacity:1" />
    <path
       d="m 52.206166,228.07991 c -0.067,-0.266 -0.106,-0.538 -0.116,-0.811 l -0.214,-2.219 c -0.11,-1.091 -0.276,-2.175 -0.497,-3.249 -0.283,-1.307 -0.67,-2.589 -1.158,-3.834 -0.484,-1.245 -1.143,-2.415 -1.956,-3.476 -0.662,-0.863 -1.508,-1.567 -2.476,-2.061 -0.656,-0.325 -1.359,-0.544 -2.084,-0.649 -0.273,-0.01 -0.545,-0.049 -0.81,-0.116 0.273,-0.03 0.549,-0.03 0.822,0 0.754,0.061 1.491,0.258 2.176,0.579 1.018,0.483 1.911,1.194 2.61,2.08 0.848,1.074 1.533,2.269 2.031,3.544 0.497,1.264 0.885,2.568 1.157,3.898 0.211,1.087 0.356,2.186 0.434,3.29 0.07,0.944 0.099,1.703 0.11,2.23 0.018,0.265 0.008,0.531 -0.029,0.794 z"
       id="path82"
       inkscape:connector-curvature="0"
       style="fill:#263238;fill-opacity:1" />
    <path
       d="m 52.050166,226.37091 c -0.015,-0.125 -0.015,-0.251 0,-0.376 0,-0.284 0,-0.638 0,-1.078 0,-0.938 0,-2.317 -0.046,-3.962 -0.081,-3.342 -0.371,-7.958 -0.926,-13.032 -0.556,-5.074 -1.302,-9.638 -1.979,-12.91 -0.162,-0.823 -0.319,-1.558 -0.475,-2.207 -0.156,-0.649 -0.266,-1.205 -0.388,-1.662 l -0.254,-1.049 c -0.036,-0.12 -0.057,-0.245 -0.064,-0.37 0.059,0.111 0.103,0.23 0.133,0.353 l 0.313,1.031 c 0.139,0.446 0.277,1.002 0.445,1.651 0.168,0.648 0.348,1.378 0.521,2.201 0.922,4.267 1.616,8.58 2.078,12.922 0.578,5.085 0.81,9.713 0.827,13.061 0,1.674 0,3.029 -0.058,3.967 l -0.063,1.078 c -0.006,0.129 -0.027,0.258 -0.064,0.382 z"
       id="path84"
       inkscape:connector-curvature="0"
       style="fill:#263238;fill-opacity:1" />
    <path
       d="m 52.009166,217.44491 c -0.029,-0.374 -0.029,-0.749 0,-1.123 0.041,-0.724 0.139,-1.767 0.348,-3.053 0.245,-1.498 0.576,-2.981 0.989,-4.442 0.494,-1.795 1.115,-3.552 1.858,-5.259 1.298,-3.142 3.157,-6.022 5.486,-8.497 0.402,-0.425 0.831,-0.823 1.284,-1.193 0.197,-0.168 0.371,-0.331 0.55,-0.464 l 0.498,-0.342 c 0.3,-0.217 0.618,-0.411 0.949,-0.579 -1.091,0.86 -2.127,1.786 -3.102,2.775 -2.241,2.499 -4.039,5.363 -5.318,8.468 -0.737,1.694 -1.361,3.436 -1.869,5.212 -0.425,1.449 -0.776,2.918 -1.053,4.402 -0.232,1.269 -0.365,2.317 -0.446,3.018 -0.031,0.363 -0.089,0.723 -0.174,1.077 z"
       id="path86"
       inkscape:connector-curvature="0"
       style="fill:#263238;fill-opacity:1" />
    <path
       d="m 70.1589,230.399 0.9433,-5.896 -10.5435,-1.738 -1.5278,8.781 0.6482,0.15 c 2.8934,0.655 14.7331,2.925 16.7816,2.636 2.3089,-0.325 -6.3018,-3.933 -6.3018,-3.933 z"
       id="path100"
       inkscape:connector-curvature="0"
       style="fill:#3f3d56;fill-opacity:1" />
    <path
       d="m 76.8145,233.826 c 0.0156,-0.098 -3.9191,-0.81 -8.7885,-1.59 -4.8695,-0.779 -8.8296,-1.332 -8.8453,-1.234 -0.0156,0.098 3.9192,0.809 8.7886,1.589 4.8694,0.78 8.8295,1.332 8.8452,1.235 z"
       id="path102"
       inkscape:connector-curvature="0"
       style="fill:#263238" />
    <path
       d="m 70.1531,231.633 c -0.081,-0.058 0.0463,-0.359 0.3183,-0.632 0.272,-0.272 0.5787,-0.394 0.6366,-0.312 0.0578,0.081 -0.1273,0.318 -0.382,0.579 -0.2546,0.26 -0.4919,0.428 -0.5729,0.365 z"
       id="path104"
       inkscape:connector-curvature="0"
       style="fill:#263238" />
    <path
       d="m 70.7607,232.131 c -0.0868,-0.047 0,-0.388 0.2836,-0.724 0.2836,-0.336 0.5787,-0.516 0.6423,-0.44 0.0637,0.075 -0.1099,0.353 -0.3587,0.666 -0.2489,0.312 -0.4746,0.55 -0.5672,0.498 z"
       id="path106"
       inkscape:connector-curvature="0"
       style="fill:#263238" />
    <path
       d="m 62.3699,231.476 c -0.0463,0 -0.1794,-0.156 -0.3646,-0.451 -0.2238,-0.383 -0.4834,-0.744 -0.7754,-1.078 -0.2891,-0.317 -0.6562,-0.552 -1.0647,-0.683 -0.3125,-0.093 -0.5324,-0.075 -0.544,-0.133 -0.0116,-0.058 0.2083,-0.157 0.5787,-0.122 0.4932,0.071 0.9458,0.312 1.2788,0.683 0.3189,0.355 0.57,0.765 0.7408,1.211 0.1446,0.342 0.1909,0.556 0.1504,0.573 z"
       id="path108"
       inkscape:connector-curvature="0"
       style="fill:#263238" />
    <path
       d="m 70.3615,230.532 c 0.0405,0.093 -0.1736,0.267 -0.4919,0.33 -0.3183,0.064 -0.5787,0 -0.5787,-0.115 0,-0.116 0.2315,-0.18 0.5093,-0.238 0.2777,-0.058 0.5208,-0.075 0.5613,0.023 z"
       id="path110"
       inkscape:connector-curvature="0"
       style="fill:#263238" />
    <path
       d="m 70.2862,229.93 c 0,0.098 -0.3009,0.139 -0.6597,0.087 -0.3588,-0.052 -0.6307,-0.174 -0.5787,-0.272 0.0521,-0.099 0.3183,-0.139 0.6597,-0.087 0.3415,0.052 0.5845,0.173 0.5787,0.272 z"
       id="path112"
       inkscape:connector-curvature="0"
       style="fill:#263238" />
    <path
       d="m 107.478,229.125 -0.22,-5.966 -10.6882,0.324 0.243,8.926 h 0.6655 c 2.9517,0.081 15.0457,0 16.9727,-0.678 2.17,-0.741 -6.973,-2.606 -6.973,-2.606 z"
       id="path114"
       inkscape:connector-curvature="0"
       style="fill:#3f3d56;fill-opacity:1" />
    <path
       d="m 106.669,231.367 c 4.931,-0.198 8.926,-0.438 8.922,-0.538 -0.004,-0.099 -4.005,-0.019 -8.937,0.178 -4.931,0.198 -8.9253,0.438 -8.9213,0.537 0.0039,0.1 4.0043,0.02 8.9363,-0.177 z"
       id="path116"
       inkscape:connector-curvature="0"
       style="fill:#263238" />
    <path
       d="m 107.709,230.335 c -0.087,-0.04 0,-0.359 0.191,-0.677 0.191,-0.319 0.492,-0.499 0.579,-0.429 0.087,0.069 -0.064,0.336 -0.26,0.631 -0.197,0.296 -0.417,0.522 -0.51,0.475 z"
       id="path118"
       inkscape:connector-curvature="0"
       style="fill:#263238" />
    <path
       d="m 108.404,230.706 c -0.093,-0.029 -0.058,-0.388 0.139,-0.764 0.196,-0.377 0.463,-0.614 0.544,-0.58 0.081,0.035 -0.041,0.371 -0.22,0.724 -0.18,0.354 -0.365,0.655 -0.463,0.62 z"
       id="path120"
       inkscape:connector-curvature="0"
       style="fill:#263238" />
    <path
       d="m 100.042,231.702 c -0.041,0.029 -0.2085,-0.121 -0.4457,-0.376 -0.2949,-0.331 -0.6204,-0.634 -0.9722,-0.904 -0.3396,-0.251 -0.7382,-0.411 -1.1574,-0.463 -0.324,-0.029 -0.5381,0 -0.5787,0 -0.0405,0 0.1736,-0.197 0.5787,-0.232 0.4982,-0.027 0.9899,0.123 1.3888,0.423 0.3812,0.286 0.7068,0.639 0.9607,1.043 0.1736,0.272 0.2658,0.48 0.2258,0.509 z"
       id="path122"
       inkscape:connector-curvature="0"
       style="fill:#263238" />
    <path
       d="m 107.698,229.217 c 0.058,0.082 -0.122,0.296 -0.423,0.417 -0.301,0.122 -0.578,0.093 -0.578,0 0,-0.092 0.191,-0.225 0.457,-0.335 0.266,-0.11 0.486,-0.168 0.544,-0.082 z"
       id="path124"
       inkscape:connector-curvature="0"
       style="fill:#263238" />
    <path
       d="m 107.513,228.644 c 0,0.098 -0.267,0.197 -0.631,0.214 -0.365,0.018 -0.648,-0.046 -0.648,-0.15 0,-0.105 0.283,-0.197 0.63,-0.215 0.348,-0.017 0.631,0.053 0.649,0.151 z"
       id="path126"
       inkscape:connector-curvature="0"
       style="fill:#263238" />
    <path
       d="m 121.968,80.61 -0.579,-1.9403 c -0.207,-1.1226 -0.523,-2.2225 -0.943,-3.2841 -0.202,-0.5347 -0.491,-1.032 -0.856,-1.4712 -0.432,-0.5639 -0.938,-1.0666 -1.505,-1.4944 -0.579,-0.3359 -0.434,-1.1584 0.15,-1.2163 0.585,-0.0579 2.136,0.8456 3.328,2.5775 1.192,1.7318 1.418,-1.5291 1.516,-2.7165 0.098,-1.1874 0.579,-4.8422 0.978,-5.0912 0.579,-0.3649 1.076,0.1911 0.949,1.3785 -0.127,1.1873 -0.272,4.7611 0.359,4.8016 0.631,0.0406 1.059,-6.0122 1.059,-6.0122 0,0 -0.116,-1.3148 0.607,-1.2916 1.308,0.0405 0.371,6.4292 0.267,7.0316 -0.076,0.4228 0.578,0.4865 0.659,0.0347 0.081,-0.4518 0.301,-6.0527 1.632,-6.0237 1.024,0 -0.723,5.265 -0.133,6.4639 0.59,1.199 0.92,-4.1181 1.892,-4.0544 0.365,0 0.631,0.0926 0,3.1103 -0.63,3.0177 -3.744,11.144 -3.744,11.144 l -5.682,-2.033"
       id="path128"
       inkscape:connector-curvature="0"
       style="fill:#ffbe9d" />
    <path
       d="m 82.8725,79.0115 9.6176,0.7124 c 0.1273,-1.1121 0.3125,-5.4388 0.3125,-5.4388 0,0 4.016,-0.3765 4.3111,-4.3498 0.2952,-3.9734 0.1679,-13.1596 0.1679,-13.1596 -2.2013,-1.1123 -4.6594,-1.6161 -7.1203,-1.4592 -2.4609,0.1568 -4.8354,0.9685 -6.878,2.3512 l -0.6191,0.417 z"
       id="path130"
       inkscape:connector-curvature="0"
       style="fill:#ffbe9d" />
    <path
       d="m 96.7668,63.5648 c 0.2288,-0.2233 0.2335,-0.59 0.0104,-0.819 -0.2231,-0.2291 -0.5895,-0.2338 -0.8183,-0.0105 -0.2289,0.2233 -0.2335,0.59 -0.0104,0.8191 0.2231,0.2291 0.5894,0.2337 0.8183,0.0104 z"
       id="path132"
       inkscape:connector-curvature="0"
       style="fill:#263238" />
    <path
       d="m 96.9691,62.6952 c -0.0695,0.0637 -0.4398,-0.2607 -0.9838,-0.2954 -0.5439,-0.0348 -0.9606,0.2201 -1.0184,0.1506 -0.0579,-0.0695 0.0405,-0.1564 0.2256,-0.2723 0.2446,-0.1545 0.5321,-0.2266 0.8205,-0.2058 0.2885,0.0209 0.5627,0.1336 0.7825,0.3217 0.1504,0.1564 0.2025,0.3012 0.1736,0.3012 z"
       id="path134"
       inkscape:connector-curvature="0"
       style="fill:#263238" />
    <path
       d="m 90.7755,63.6083 c 0.1839,-0.2616 0.121,-0.6229 -0.1404,-0.807 -0.2614,-0.184 -0.6224,-0.1211 -0.8062,0.1406 -0.1839,0.2616 -0.121,0.6229 0.1404,0.807 0.2614,0.184 0.6224,0.1211 0.8062,-0.1406 z"
       id="path136"
       inkscape:connector-curvature="0"
       style="fill:#263238" />
    <path
       d="m 90.9855,62.8226 c -0.0636,0.0637 -0.4398,-0.2606 -0.9837,-0.2954 -0.544,-0.0347 -0.9606,0.2201 -1.0185,0.1506 -0.0579,-0.0695 0.0405,-0.1564 0.2257,-0.278 0.2445,-0.1546 0.532,-0.2267 0.8205,-0.2059 0.2884,0.0209 0.5626,0.1336 0.7824,0.3217 0.1563,0.1506 0.2084,0.2781 0.1736,0.307 z"
       id="path138"
       inkscape:connector-curvature="0"
       style="fill:#263238" />
    <path
       d="m 92.9068,67.4794 c 0.2899,-0.0916 0.5929,-0.1347 0.8969,-0.1274 0.1447,0 0.2604,-0.0289 0.2778,-0.11 0.0148,-0.1452 -0.0113,-0.2917 -0.0753,-0.4229 l -0.3645,-1.1584 c -0.3509,-0.9671 -0.6067,-1.9661 -0.7639,-2.9829 0.4426,0.9289 0.7934,1.8988 1.0474,2.896 l 0.3414,1.1585 c 0.076,0.1835 0.0902,0.3868 0.0405,0.5792 -0.0241,0.0527 -0.0602,0.099 -0.1054,0.1352 -0.0452,0.0362 -0.0983,0.0613 -0.155,0.0733 -0.0806,0.0108 -0.1624,0.0108 -0.243,0 -0.2992,0.0358 -0.6022,0.0221 -0.8969,-0.0406 z"
       id="path140"
       inkscape:connector-curvature="0"
       style="fill:#263238" />
    <path
       d="m 91.0897,67.9775 c -0.5787,-0.3764 1.5219,0.9326 2.6388,0.9499 -0.2035,0.2763 -0.4945,0.4754 -0.8255,0.5649 -0.3311,0.0894 -0.6827,0.0638 -0.9974,-0.0725 -1.1631,-0.5155 -0.8159,-1.4423 -0.8159,-1.4423 z"
       id="path142"
       inkscape:connector-curvature="0"
       style="fill:#ffffff" />
    <path
       d="m 92.8142,74.2271 c -1.838,-0.0788 -3.6109,-0.7039 -5.0924,-1.7955 0,0 1.0474,2.9424 5.0403,2.8265 z"
       id="path144"
       inkscape:connector-curvature="0"
       style="fill:#eb996e" />
    <path
       d="m 82.7567,62.1159 0.4861,2.8555 1.7708,-0.0347 -0.1158,-5.9427 c 0,0 7.0252,0.5387 7.8296,-2.2705 0,0 2.0659,3.1104 4.6294,3.0988 0,0 2.2511,-0.2317 0.11,-3.3594 -3.2985,-4.819 -15.0457,-0.9499 -15.0457,-0.9499 -0.2966,0.8804 -0.4414,1.8048 -0.4282,2.7338 -0.0463,3.0756 0.7638,3.8691 0.7638,3.8691 z"
       id="path146"
       inkscape:connector-curvature="0"
       style="fill:#263238" />
    <path
       d="m 81.7903,59.2199 15.6533,-3.1103 c 0,0 -1.1169,-6.2613 -9.5598,-4.4426 -8.2172,1.7956 -6.0935,7.5529 -6.0935,7.5529 z"
       id="path148"
       inkscape:connector-curvature="0"
       style="fill:#3f3d56;fill-opacity:1" />
    <path
       d="m 81.7903,59.2199 c 0.2199,-0.0405 19.1307,0.4055 20.4797,-2.2184 0.642,-1.251 -4.9479,-1.2858 -4.9479,-1.2858 l 0.1273,0.3939 z"
       id="path150"
       inkscape:connector-curvature="0" />
    <path
       d="m 81.7903,59.2199 c 0.2199,-0.0405 19.1307,0.4055 20.4797,-2.2184 0.642,-1.251 -4.9479,-1.2858 -4.9479,-1.2858 l 0.1273,0.3939 z"
       fill=""
       id="path152"
       inkscape:connector-curvature="0"
       style="opacity:0.2;fill:#3f3d56;fill-opacity:1" />
    <path
       d="m 83.4338,61.612 c -0.0868,-0.0347 -2.9513,-0.4054 -2.6793,2.9829 0.272,3.3884 3.5994,1.9925 3.5936,1.894 -0.0058,-0.0984 -0.9143,-4.8769 -0.9143,-4.8769 z"
       id="path154"
       inkscape:connector-curvature="0"
       style="fill:#ffbe9d" />
    <path
       d="m 83.2197,65.3769 c 0,0 -0.0579,0.0463 -0.1505,0.0984 -0.1347,0.0732 -0.2928,0.0898 -0.4398,0.0464 -0.2299,-0.1213 -0.4235,-0.3016 -0.5608,-0.5225 -0.1373,-0.2209 -0.2134,-0.4743 -0.2204,-0.7344 -0.0315,-0.2895 0.0021,-0.5824 0.0984,-0.8572 0.0233,-0.1078 0.0723,-0.2084 0.1428,-0.2931 0.0706,-0.0847 0.1605,-0.1511 0.2623,-0.1935 0.0659,-0.0229 0.1378,-0.0221 0.2032,0.0022 0.0655,0.0243 0.1204,0.0706 0.1555,0.1311 0.0521,0.0926 0.0347,0.1621 0.0579,0.1621 0.0231,0 0.0694,-0.0637 0.0289,-0.2027 -0.0253,-0.0829 -0.0785,-0.1545 -0.1504,-0.2027 -0.0998,-0.063 -0.2205,-0.0839 -0.3357,-0.0579 -0.1383,0.038 -0.2644,0.1114 -0.3658,0.213 -0.1015,0.1015 -0.1748,0.2277 -0.2128,0.3662 -0.1205,0.3052 -0.1642,0.6354 -0.1273,0.9615 0.0069,0.3033 0.1034,0.5979 0.2775,0.8463 0.1741,0.2485 0.4178,0.4397 0.7004,0.5495 0.0931,0.019 0.1892,0.0169 0.2813,-0.0062 0.0921,-0.023 0.1779,-0.0664 0.2511,-0.127 0.1042,-0.0926 0.1157,-0.1737 0.1042,-0.1795 z"
       id="path156"
       inkscape:connector-curvature="0"
       style="fill:#eb996e" />
    <path
       d="m 92.6572,54.4152 -1.915,0.0368 0.0367,1.9169 1.9151,-0.0369 z"
       id="path158"
       inkscape:connector-curvature="0"
       style="fill:#263238" />
    <path
       d="m 92.6322,53.3753 -0.9604,0.0186 0.0186,0.9613 0.9604,-0.0186 z"
       id="path160"
       inkscape:connector-curvature="0"
       style="fill:#263238" />
    <path
       d="m 121.262,78.1194 c 0,0 -2.951,18.8359 -5.04,18.9343 -2.379,0.1101 -9.693,-10.2693 -9.693,-10.2693 -4.682,-7.2285 -10.8562,-8.3985 -13.1072,-8.5781 v -0.892 L 82.3574,76.405 c 0,0 0,0.9557 0,1.7839 h -4.8956 c 0,0 -8.7785,-0.3996 -10.0921,11.3988 l 6.3076,4.9928 2.5867,9.6325 c 0.787,2.942 -0.4109,6.695 -1.7361,13.287 l -0.7927,-0.186 -0.3357,6.644 c -0.0463,0.313 -0.0926,0.625 -0.1331,0.95 h 0.0868 l -2.6735,53.049 -13.6683,51.382 15.387,0.579 14.1892,-50.13 c 0,0 1.2268,-40.081 2.4767,-40.105 2.1006,-0.04 3.4721,89.164 4.2475,88.961 0.7754,-0.203 16.6082,-0.041 16.6082,-0.041 0,0 -5.226,-103.933 -5.174,-103.933 l -1.354,-19.693 -0.515,-5.6875 c 3.004,4.2285 8.681,10.8315 14.745,10.7155 9.878,-0.191 11.267,-30.843 11.267,-30.843 z"
       id="path162"
       inkscape:connector-curvature="0"
       style="fill:#455a64" />
    <path
       d="m 88.503,139.284 c 1.2438,-1.857 1.8305,-4.078 1.6666,-6.308 0,-1.801 0,-3.434 0,-4.726 -0.0258,-0.656 -7e-4,-1.312 0.0752,-1.964 0.0969,0.648 0.1434,1.303 0.1389,1.958 0.0347,1.211 0.1157,2.896 0.0984,4.738 -0.0093,0.875 -0.0867,1.749 -0.2315,2.612 -0.1226,0.71 -0.3305,1.402 -0.6192,2.062 -0.1972,0.443 -0.4458,0.861 -0.7407,1.245 -0.243,0.25 -0.3472,0.4 -0.3877,0.383 z"
       id="path164"
       inkscape:connector-curvature="0"
       style="fill:#263238" />
    <path
       d="m 79.4235,130.868 c 0.053,0.177 0.0803,0.36 0.0811,0.544 0.0289,0.354 0.0636,0.863 0.081,1.495 0.0907,1.668 -0.2417,3.331 -0.9664,4.836 -0.4277,0.829 -1.0615,1.533 -1.8402,2.045 -0.6449,0.408 -1.3847,0.641 -2.1469,0.677 -0.5103,0.026 -1.0201,-0.061 -1.493,-0.254 -0.1772,-0.062 -0.3391,-0.16 -0.4745,-0.29 0.617,0.255 1.2836,0.368 1.9501,0.33 0.7163,-0.063 1.4059,-0.302 2.008,-0.695 0.7322,-0.498 1.3288,-1.171 1.7361,-1.958 0.6979,-1.466 1.0466,-3.073 1.0185,-4.697 -0.0207,-0.678 -0.0052,-1.357 0.0462,-2.033 z"
       id="path166"
       inkscape:connector-curvature="0"
       style="fill:#263238" />
    <path
       d="m 105.84,140.095 c 0,0 -0.092,0.168 -0.382,0.359 -0.415,0.254 -0.896,0.379 -1.383,0.359 -0.722,-0.034 -1.416,-0.293 -1.985,-0.741 -0.681,-0.536 -1.268,-1.182 -1.736,-1.912 -0.8714,-1.308 -1.4189,-2.805 -1.5968,-4.367 -0.0511,-0.469 -0.0647,-0.942 -0.0405,-1.413 -0.0026,-0.175 0.0228,-0.349 0.0752,-0.516 0.0521,0 0,0.736 0.1736,1.9 0.2342,1.511 0.7929,2.954 1.6375,4.228 0.45,0.703 1.009,1.331 1.655,1.859 0.521,0.428 1.158,0.689 1.829,0.748 0.452,0.034 0.905,-0.052 1.313,-0.249 0.29,-0.145 0.423,-0.278 0.44,-0.255 z"
       id="path168"
       inkscape:connector-curvature="0"
       style="fill:#263238" />
    <path
       d="m 73.7449,227.382 c 0.0033,-0.084 -3.4035,-0.288 -7.6094,-0.456 -4.2059,-0.168 -7.6181,-0.237 -7.6214,-0.154 -0.0033,0.083 3.4035,0.287 7.6094,0.455 4.2058,0.169 7.618,0.238 7.6214,0.155 z"
       id="path170"
       inkscape:connector-curvature="0"
       style="fill:#263238" />
    <path
       d="m 109.376,224.19 c -0.21,0.055 -0.426,0.084 -0.642,0.087 l -1.736,0.127 c -1.482,0.093 -3.53,0.209 -5.787,0.313 -2.2571,0.104 -4.3114,0.179 -5.787,0.22 l -1.736,0.035 c -0.2134,0.026 -0.4291,0.026 -0.6424,0 0.2099,-0.055 0.4255,-0.084 0.6424,-0.087 l 1.736,-0.128 c 1.4814,-0.098 3.5241,-0.208 5.787,-0.312 2.262,-0.105 4.305,-0.18 5.787,-0.22 l 1.736,-0.035 c 0.213,-0.026 0.429,-0.026 0.642,0 z"
       id="path172"
       inkscape:connector-curvature="0"
       style="fill:#263238" />
    <path
       d="m 80.986,140.512 c 0.0069,0.075 0.0069,0.151 0,0.226 0,0.162 0,0.388 0,0.666 l -0.0463,2.56 c -0.0463,2.224 -0.1505,5.439 -0.3125,9.406 -0.162,3.968 -0.3819,8.688 -0.6944,13.942 -0.1563,2.624 -0.3299,5.375 -0.5787,8.224 -0.1215,1.425 -0.2372,2.897 -0.4861,4.345 -0.2488,1.448 -0.5787,2.925 -0.8738,4.413 -2.6387,11.845 -5.6074,22.427 -7.9163,30.032 -1.1573,3.805 -2.199,6.846 -2.9281,8.943 l -0.8854,2.404 -0.2372,0.619 c -0.0244,0.073 -0.0554,0.142 -0.0926,0.209 0.0147,-0.075 0.036,-0.149 0.0636,-0.22 l 0.2083,-0.631 0.8333,-2.422 c 0.6945,-2.108 1.7361,-5.16 2.8356,-8.966 2.2626,-7.61 5.2081,-18.198 7.8295,-30.032 0.3183,-1.482 0.6307,-2.942 0.8738,-4.396 0.243,-1.454 0.3588,-2.896 0.4861,-4.321 0.2372,-2.844 0.4166,-5.595 0.5787,-8.219 0.324,-5.241 0.5786,-9.968 0.758,-13.935 l 0.4051,-9.401 0.1042,-2.554 0.0347,-0.666 c 0.0066,-0.077 0.0202,-0.152 0.0405,-0.226 z"
       id="path174"
       inkscape:connector-curvature="0"
       style="fill:#263238" />
    <path
       d="m 102.223,224.578 c -0.006,-0.069 -0.006,-0.139 0,-0.209 l -0.046,-0.613 -0.162,-2.364 -0.515,-8.688 c -0.411,-7.338 -0.926,-17.48 -1.4,-28.688 -0.4748,-11.208 -0.8278,-21.361 -1.0477,-28.711 -0.0984,-3.661 -0.1852,-6.632 -0.2373,-8.688 0,-1.014 -0.0347,-1.808 -0.0462,-2.369 0,-0.261 0,-0.464 0,-0.614 -0.0065,-0.07 -0.0065,-0.139 0,-0.209 0.0069,0.07 0.0069,0.139 0,0.209 l 0.0347,0.614 0.1041,2.363 0.3357,8.688 1.1577,28.705 c 0.474,11.208 0.954,21.35 1.313,28.694 l 0.417,8.689 0.104,2.363 v 0.614 c 0.003,0.071 -0.001,0.143 -0.012,0.214 z"
       id="path176"
       inkscape:connector-curvature="0"
       style="fill:#263238" />
    <path
       d="m 89.5157,76.99 c 0.0441,0.5184 0.0441,1.0396 0,1.5581 -0.0131,1.3001 -0.139,2.5966 -0.3761,3.8749 l -0.0405,0.1911 -0.1736,-0.0927 c -0.3704,-0.1911 -0.7465,-0.3996 -1.1285,-0.6197 -1.6087,-0.9383 -2.9744,-1.9172 -3.9813,-2.5891 -0.5579,-0.3432 -1.0968,-0.7164 -1.6145,-1.1179 0.6088,0.2535 1.1904,0.5679 1.736,0.9384 1.0417,0.6313 2.4247,1.5812 4.0161,2.5079 0.3761,0.2201 0.7523,0.4229 1.111,0.6198 l -0.2141,0.0984 c 0.241,-1.2625 0.3995,-2.5395 0.4746,-3.8227 0.0177,-0.5202 0.0816,-1.0377 0.1909,-1.5465 z"
       id="path178"
       inkscape:connector-curvature="0"
       style="fill:#263238" />
    <path
       d="m 93.4507,78.2816 c -0.0714,0.4878 -0.1778,0.9698 -0.3183,1.4423 -0.1041,0.4402 -0.2199,0.973 -0.4108,1.558 -0.0998,0.306 -0.2177,0.6058 -0.353,0.8978 -0.0434,0.1033 -0.1157,0.1919 -0.2083,0.2548 -0.0641,0.0419 -0.1407,0.0601 -0.2167,0.0517 -0.076,-0.0085 -0.1467,-0.0431 -0.2,-0.098 -0.1114,-0.1561 -0.1992,-0.3279 -0.2604,-0.5097 -0.5382,-1.2858 -1.0127,-2.4558 -1.3368,-3.3073 -0.1953,-0.449 -0.3446,-0.9167 -0.4455,-1.3958 0.2684,0.4159 0.4933,0.8585 0.6712,1.3205 0.3762,0.8283 0.8796,1.9867 1.4178,3.2726 0.0503,0.1429 0.1142,0.2806 0.191,0.4112 0,0 0,0 0.0463,0 0.0429,-0.0335 0.0768,-0.0774 0.0983,-0.1274 0.1346,-0.2793 0.2543,-0.5654 0.3588,-0.8573 0.1968,-0.5792 0.3357,-1.0831 0.4688,-1.5233 0.1036,-0.4833 0.271,-0.9508 0.4976,-1.3901 z"
       id="path180"
       inkscape:connector-curvature="0"
       style="fill:#263238" />
    <path
       d="m 91.3733,117.859 c -0.0287,-0.135 -0.0442,-0.273 -0.0463,-0.411 L 91.2517,116.26 91.0203,111.887 90.3721,97.4476 89.7935,83.0022 89.6604,78.6234 v -1.1932 c -0.0134,-0.1387 -0.0134,-0.2783 0,-0.417 0.0287,0.1352 0.0442,0.273 0.0463,0.4112 l 0.0752,1.1874 0.2315,4.373 0.6596,14.4628 0.5787,14.4454 0.1331,4.379 v 1.193 c 0.008,0.131 0.0042,0.263 -0.0115,0.394 z"
       id="path182"
       inkscape:connector-curvature="0"
       style="fill:#263238" />
    <path
       d="m 98.4256,88.9878 -5.317,0.1031 0.0213,1.1003 5.317,-0.1031 z"
       id="path184"
       inkscape:connector-curvature="0"
       style="fill:#ffffff" />
    <path
       d="m 104.268,106.724 c 0.083,-0.006 -0.132,-4.048 -0.48,-9.0285 -0.349,-4.9807 -0.698,-9.0136 -0.782,-9.0077 -0.083,0.0058 0.132,4.0481 0.481,9.0288 0.348,4.9804 0.698,9.0134 0.781,9.0074 z"
       id="path186"
       inkscape:connector-curvature="0"
       style="fill:#263238" />
    <path
       d="m 128.704,83.0141 c 0.019,-0.0811 -1.737,-0.5523 -3.92,-1.0526 -2.184,-0.5002 -3.97,-0.84 -3.988,-0.7589 -0.019,0.0811 1.737,0.5523 3.92,1.0525 2.184,0.5003 3.97,0.8401 3.988,0.759 z"
       id="path188"
       inkscape:connector-curvature="0"
       style="fill:#263238" />
    <path
       d="m 122.44,80.5485 c 0.3,-0.0058 0.539,-0.2543 0.533,-0.5549 -0.006,-0.3006 -0.254,-0.5396 -0.555,-0.5338 -0.3,0.0058 -0.539,0.2543 -0.533,0.5549 0.006,0.3006 0.254,0.5396 0.555,0.5338 z"
       id="path190"
       inkscape:connector-curvature="0"
       style="fill:#263238" />
    <path
       d="m 98.3704,86.5323 -1.9151,0.0369 0.0367,1.9168 1.9151,-0.0368 z"
       id="path192"
       inkscape:connector-curvature="0" />
    <path
       d="m 98.3508,85.4856 -0.9604,0.0186 0.0186,0.9613 0.9604,-0.0186 z"
       id="path194"
       inkscape:connector-curvature="0" />
    <path
       d="m 127.043,96.3645 -0.781,30.9235 -48.4934,-0.243 0.1562,-31.3466 z"
       id="path196"
       inkscape:connector-curvature="0"
       style="fill:#b05ffd;fill-opacity:1" />
    <path
       d="m 98.7803,111.69 c 0.2154,-8.516 0.3226,-15.4207 0.2396,-15.4228 -0.0831,-0.0021 -0.325,6.8998 -0.5404,15.4158 -0.2153,8.516 -0.3226,15.421 -0.2395,15.423 0.083,0.002 0.325,-6.9 0.5403,-15.416 z"
       id="path198"
       inkscape:connector-curvature="0"
       style="fill:#263238" />
    <path
       d="m 77.7686,127.039 c 0.0519,-0.116 0.1159,-0.227 0.1909,-0.33 l 0.5787,-0.909 2.2626,-3.296 7.5576,-10.819 c 2.957,-4.223 5.6189,-8.057 7.5228,-10.843 0.949,-1.3961 1.736,-2.5314 2.2279,-3.3191 l 0.5787,-0.9094 c 0.0776,-0.1184 0.1689,-0.2272 0.2719,-0.3243 -0.0458,0.1178 -0.104,0.2304 -0.1736,0.3359 l -0.5497,0.9383 c -0.4919,0.8051 -1.221,1.9636 -2.1527,3.3766 -1.8576,2.821 -4.4905,6.673 -7.4476,10.901 -2.957,4.228 -5.6595,8.022 -7.627,10.767 l -2.3147,3.244 -0.6481,0.875 c -0.0801,0.114 -0.1733,0.219 -0.2777,0.312 z"
       id="path200"
       inkscape:connector-curvature="0"
       style="fill:#263238" />
    <path
       d="m 97.7647,127.357 c 0.0703,-0.044 -4.2796,-7.085 -9.7157,-15.725 -5.4361,-8.64 -9.9,-15.6088 -9.9703,-15.5645 -0.0703,0.0443 4.2796,7.0845 9.7157,15.7245 5.4361,8.641 9.9,15.609 9.9703,15.565 z"
       id="path202"
       inkscape:connector-curvature="0"
       style="fill:#263238" />
    <path
       d="m 103.895,122.795 7.784,0.234 0.048,-1.599 -7.784,-0.234 z"
       id="path204"
       inkscape:connector-curvature="0"
       style="fill:#263238" />
    <path
       d="m 111.317,120.773 c 0,-0.083 -1.704,-0.154 -3.807,-0.157 -2.103,-0.003 -3.808,0.062 -3.808,0.145 0,0.083 1.704,0.153 3.807,0.156 2.103,0.004 3.808,-0.061 3.808,-0.144 z"
       id="path206"
       inkscape:connector-curvature="0"
       style="fill:#263238" />
    <path
       d="m 117.24,96.1154 -0.307,11.9376 -1.666,-1.35 -2.188,1.251 0.301,-11.937 z"
       id="path208"
       inkscape:connector-curvature="0"
       style="fill:#263238" />
    <path
       d="m 76.97,92.9588 c 0,0 -2.3552,16.4152 -1.2384,17.3762 6.1572,5.184 14.7158,7.9 17.777,8.758 0.4456,-0.105 0.9722,-0.249 1.5682,-0.441 0.5197,-0.166 1.007,-0.421 1.4409,-0.753 0.5551,-0.388 1.0536,-0.852 1.4815,-1.378 0.0662,-0.109 0.1638,-0.195 0.2798,-0.247 0.116,-0.052 0.245,-0.068 0.3701,-0.045 0.1252,0.022 0.2406,0.082 0.3311,0.172 0.0906,0.089 0.152,0.204 0.1763,0.328 0,0.58 -0.8796,2.028 -2.5809,3.093 0,0 3.9234,6.32 5.1734,6.887 1.25,0.568 4.826,2.184 4.224,2.491 -0.601,0.307 -4.965,-0.962 -4.965,-0.962 l -8.8303,-2.363 c 0,0 -29.2117,-4.581 -27.2674,-17.996 1.1921,-8.2188 2.4941,-15.6385 2.9629,-17.5035 z"
       id="path210"
       inkscape:connector-curvature="0"
       style="fill:#ffbe9d" />
    <path
       d="m 67.3755,89.5936 -2.6214,17.9094 c -0.5787,5.514 3.0843,9.893 8.0494,12.36 7.5575,3.747 18.7781,6.423 18.6855,6.406 -0.0926,-0.017 0.7581,-7.97 0.7581,-7.97 0,0 -15.7285,-6.823 -16.203,-9.748 -0.4746,-2.925 2.0022,-15.181 2.0022,-15.181 z"
       id="path212"
       inkscape:connector-curvature="0"
       style="fill:#455a64" />
    <path
       d="m 91.489,126.263 c -0.0068,-0.048 -0.0068,-0.097 0,-0.145 v -0.411 l 0.1215,-1.593 0.5092,-5.855 0.0579,0.104 -7.9105,-3.835 -2.3147,-1.117 c -0.7697,-0.406 -1.5393,-0.858 -2.3147,-1.35 -0.7771,-0.501 -1.523,-1.048 -2.2337,-1.639 -0.3588,-0.301 -0.7118,-0.62 -1.0532,-0.956 -0.1891,-0.161 -0.3445,-0.358 -0.4572,-0.579 -0.0567,-0.114 -0.0995,-0.235 -0.1273,-0.359 -0.037,-0.119 -0.0641,-0.241 -0.081,-0.365 -0.2546,-1.958 0.2662,-3.805 0.5382,-5.566 l 0.8795,-5.1088 1.603,-8.6592 c 0.2348,-1.0936 0.3685,-2.2065 0.3993,-3.3246 0.0098,-0.8421 -0.164,-1.6763 -0.5093,-2.4443 -0.2217,-0.4833 -0.5363,-0.9183 -0.9258,-1.28 -0.272,-0.2433 -0.4398,-0.3418 -0.4283,-0.3533 0.1687,0.0819 0.3262,0.185 0.4688,0.3069 0.415,0.351 0.7521,0.7851 0.9895,1.2743 0.3759,0.7767 0.5736,1.6276 0.5787,2.4906 -0.0131,1.1305 -0.1333,2.2573 -0.3588,3.3652 l -1.4467,8.6881 -0.868,5.1141 -0.2315,1.344 c -0.0926,0.446 -0.1678,0.898 -0.2315,1.35 -0.1485,0.915 -0.1719,1.846 -0.0694,2.768 0.0135,0.114 0.0367,0.226 0.0694,0.336 0.0234,0.109 0.0603,0.214 0.11,0.313 0.0956,0.198 0.2316,0.373 0.3993,0.515 0.3356,0.331 0.677,0.643 1.03,0.939 0.6999,0.584 1.4342,1.126 2.199,1.622 0.7523,0.486 1.5161,0.932 2.2742,1.343 l 2.28,1.124 7.8758,3.892 0.0694,0.035 v 0.052 l -0.5786,5.844 -0.1794,1.587 -0.0521,0.412 c -0.0211,0.044 -0.0484,0.085 -0.081,0.121 z"
       id="path214"
       inkscape:connector-curvature="0"
       style="fill:#263238" />
    <path
       d="m 90.0307,117.175 c 0.0202,0.41 -0.0109,0.821 -0.0925,1.223 -0.0984,0.747 -0.2547,1.778 -0.463,2.896 -0.2083,1.117 -0.4456,2.154 -0.6423,2.896 -0.0776,0.401 -0.208,0.791 -0.3878,1.158 -0.081,0 0.3183,-1.842 0.735,-4.101 0.2001,-1.373 0.4842,-2.733 0.8506,-4.072 z"
       id="path216"
       inkscape:connector-curvature="0"
       style="fill:#263238" />
    <path
       d="m 91.489,126.263 c -0.0943,-0.002 -0.1878,-0.018 -0.2778,-0.046 l -0.7754,-0.185 -2.8471,-0.742 c -2.3957,-0.649 -5.7231,-1.494 -9.2936,-2.809 -1.6785,-0.611 -3.3124,-1.339 -4.8898,-2.178 -1.2885,-0.689 -2.5193,-1.481 -3.6804,-2.369 -0.7813,-0.598 -1.5182,-1.252 -2.2048,-1.958 -0.243,-0.249 -0.4224,-0.451 -0.5381,-0.579 -0.0666,-0.066 -0.1231,-0.143 -0.1679,-0.226 0.2766,0.232 0.5412,0.478 0.7928,0.736 0.7131,0.667 1.4647,1.292 2.2511,1.871 1.1673,0.863 2.3976,1.637 3.6804,2.317 1.574,0.819 3.1996,1.535 4.8667,2.143 3.5473,1.303 6.8631,2.183 9.2588,2.896 l 2.8182,0.834 0.7639,0.243 c 0.0828,0.007 0.1645,0.025 0.243,0.052 z"
       id="path218"
       inkscape:connector-curvature="0"
       style="fill:#263238" />
    <path
       d="m 91.196,119.614 c 0.2812,-0.005 0.5047,-0.238 0.4992,-0.519 -0.0055,-0.282 -0.2379,-0.506 -0.5191,-0.5 -0.2812,0.005 -0.5047,0.238 -0.4992,0.519 0.0055,0.282 0.238,0.506 0.5191,0.5 z"
       id="path220"
       inkscape:connector-curvature="0"
       style="fill:#263238" />
    <path
       d="M 228.051,34.9627 H 164.188 V 232.409 h 63.863 z"
       id="path222"
       inkscape:connector-curvature="0"
       style="fill:#e0e0e0" />
    <path
       d="m 208.609,129.891 c 0.754,-0.031 1.316,-1.243 1.256,-2.706 -0.06,-1.464 -0.719,-2.626 -1.473,-2.595 -0.753,0.031 -1.316,1.242 -1.256,2.706 0.06,1.464 0.719,2.626 1.473,2.595 z"
       id="path224"
       inkscape:connector-curvature="0"
       style="fill:#ffffff" />
    <path
       d="m 156.735,27.9775 v 6.4639 2.0331 195.9345 h 10.023 V 36.4745 h 58.857 V 232.409 h 11.03 V 36.4745 34.4414 27.9775 Z"
       id="path226"
       inkscape:connector-curvature="0"
       style="fill:#263238" />
    <path
       d="m 166.758,36.4744 h -5.012 V 232.409 h 5.012 z"
       id="path228"
       inkscape:connector-curvature="0"
       style="fill:#263238" />
    <path
       d="m 166.758,36.4744 h -5.012 V 232.409 h 5.012 z"
       fill=""
       id="path230"
       inkscape:connector-curvature="0"
       style="opacity:0.5" />
    <path
       d="m 197.225,67.213 c 0.096,1.7822 0.76,3.4866 1.896,4.8628 1.135,1.3762 2.681,2.3515 4.412,2.7828 1.788,0.4402 3.848,0.2316 5.266,1.4364 2.43,2.062 1.006,6.3423 2.65,9.1051 1.007,1.7029 3.009,2.537 4.143,4.153 1.887,2.6875 0.619,6.7419 -1.95,8.7402 -2.569,1.9987 -5.995,2.3807 -9.218,2.3167 -7.089,-0.185 -14.346,-2.4383 -19.473,-7.4658 -2.407,-2.3632 -10.208,-11.3409 -6.666,-24.292"
       id="path232"
       inkscape:connector-curvature="0"
       style="fill:#263238" />
    <path
       d="m 171.624,86.2574 c 0,0 -12.401,10.7964 -12.731,9.4816 -1.736,-7.1474 -1.25,-16.2642 -0.972,-19.7568 0.197,-0.3012 0.417,-0.6313 0.683,-0.9962 0.308,-0.4205 0.683,-0.7866 1.111,-1.0831 0.516,-0.3894 1.083,-0.707 1.684,-0.9441 0.579,-0.1622 0.666,-0.9268 0.168,-1.1063 -0.498,-0.1796 -2.083,0.2259 -3.553,1.4596 -1.47,1.2337 -0.874,-1.6913 -0.671,-2.7628 0.202,-1.0716 0.659,-4.402 0.376,-4.7148 -0.411,-0.4576 -0.996,-0.0927 -1.158,0.9789 -0.162,1.0715 -0.92,4.2571 -1.481,4.1355 -0.561,-0.1216 0.532,-5.5488 0.532,-5.5488 0,0 0.423,-1.1295 -0.22,-1.2858 -1.157,-0.2839 -1.892,5.5604 -1.944,6.1222 -0.04,0.3881 -0.654,0.2838 -0.579,-0.1332 0.076,-0.4171 1.21,-5.3925 0.035,-5.6936 -0.903,-0.2317 -0.648,4.8074 -1.458,5.7167 -0.81,0.9094 0.197,-3.8459 -0.677,-4.0544 -0.324,-0.0695 -0.579,-0.0753 -0.758,2.7338 -0.041,2.2618 0.042,4.5241 0.249,6.7768 -0.77,7.7092 -2.28,31.3064 8.373,30.4954 12.569,-0.962 15.462,-10.8777 15.462,-10.8777 z"
       id="path234"
       inkscape:connector-curvature="0"
       style="fill:#b78876" />
    <path
       d="m 181.531,82.7474 c 0.185,-0.9905 -0.139,-5.1782 -0.139,-5.1782 0,0 -3.703,-0.4691 -3.865,-4.2513 -0.162,-3.7823 0.214,-12.5052 0.214,-12.5052 l 6.823,-3.2783 7.337,5.9195 -1.273,19.2355 z"
       id="path236"
       inkscape:connector-curvature="0"
       style="fill:#b78876" />
    <path
       d="m 179.329,67.2104 c 0.005,-0.2687 -0.201,-0.4901 -0.46,-0.4947 -0.259,-0.0045 -0.472,0.2096 -0.477,0.4783 -0.005,0.2687 0.201,0.4901 0.46,0.4947 0.259,0.0045 0.473,-0.2096 0.477,-0.4783 z"
       id="path238"
       inkscape:connector-curvature="0"
       style="fill:#263238" />
    <path
       d="m 177.926,66.6454 c 0.058,0.0637 0.411,-0.2317 0.92,-0.2549 0.509,-0.0231 0.886,0.2375 0.938,0.168 0.052,-0.0695 -0.035,-0.1448 -0.197,-0.2664 -0.221,-0.1519 -0.485,-0.2273 -0.752,-0.2147 -0.268,0.0125 -0.524,0.1124 -0.729,0.2842 -0.163,0.1332 -0.209,0.2548 -0.18,0.2838 z"
       id="path240"
       inkscape:connector-curvature="0"
       style="fill:#263238" />
    <path
       d="m 185.431,67.4939 c 0.006,-0.2687 -0.2,-0.4907 -0.459,-0.4958 -0.259,-0.0052 -0.473,0.2084 -0.478,0.477 -0.005,0.2687 0.2,0.4906 0.459,0.4958 0.259,0.0052 0.473,-0.2084 0.478,-0.477 z"
       id="path242"
       inkscape:connector-curvature="0"
       style="fill:#263238" />
    <path
       d="m 183.545,66.7496 c 0.058,0.0637 0.411,-0.2317 0.92,-0.2548 0.509,-0.0232 0.886,0.2375 0.938,0.1679 0.052,-0.0695 -0.035,-0.1448 -0.197,-0.2664 -0.221,-0.1518 -0.485,-0.2272 -0.753,-0.2147 -0.267,0.0126 -0.523,0.1124 -0.729,0.2842 -0.156,0.1274 -0.208,0.2491 -0.179,0.2838 z"
       id="path244"
       inkscape:connector-curvature="0"
       style="fill:#263238" />
    <path
       d="m 181.641,71.1168 c -0.269,-0.0793 -0.547,-0.1221 -0.827,-0.1274 -0.128,0 -0.255,-0.0289 -0.278,-0.1274 -0.013,-0.1439 0.015,-0.2886 0.081,-0.417 l 0.365,-1.0716 c 0.342,-0.9126 0.614,-1.8497 0.816,-2.8033 -0.41,0.8824 -0.752,1.7943 -1.025,2.728 l -0.353,1.0774 c -0.079,0.172 -0.099,0.3654 -0.058,0.5502 0.018,0.0473 0.047,0.0897 0.084,0.1239 0.037,0.0341 0.082,0.0592 0.13,0.073 0.073,0.01 0.147,0.01 0.22,0 0.281,0.0368 0.565,0.0349 0.845,-0.0058 z"
       id="path246"
       inkscape:connector-curvature="0"
       style="fill:#263238" />
    <path
       d="m 183.308,71.6382 c 0.521,-0.3417 -1.435,0.8398 -2.465,0.8224 0.176,0.2659 0.439,0.4629 0.743,0.5578 0.305,0.095 0.633,0.0821 0.929,-0.0365 0.14,-0.0358 0.272,-0.099 0.388,-0.186 0.116,-0.0869 0.214,-0.196 0.288,-0.3209 0.073,-0.1249 0.122,-0.2631 0.142,-0.4067 0.02,-0.1436 0.011,-0.2898 -0.025,-0.4301 z"
       id="path248"
       inkscape:connector-curvature="0"
       style="fill:#ffffff" />
    <path
       d="m 181.392,77.5692 c 1.758,-0.047 3.463,-0.6066 4.908,-1.6102 0,0 -1.158,2.7571 -4.844,2.537 z"
       id="path250"
       inkscape:connector-curvature="0"
       style="fill:#a36957" />
    <path
       d="m 197.225,67.2709 c -0.035,-0.2664 -0.069,-0.6719 -0.11,-1.0947 -0.04,-0.5148 -0.108,-1.0272 -0.202,-1.5349 -1.875,-7.9235 -8.594,-9.5106 -9.931,-9.5337 -1.429,0 -3.923,-0.8746 -7.638,2.9539 -1.058,1.017 -1.793,2.3244 -2.111,3.7579 -0.318,1.4335 -0.206,2.9291 0.323,4.2989 l 0.625,-0.5792 5.41,-1.3322 c -0.399,-1.5001 0.261,-3.342 0.631,-4.1992 l 0.035,-0.0348 c 0.978,5.682 7.037,6.3713 7.037,6.3713 l -0.579,15.0594 c 5.966,-1.199 6.435,-10.8891 6.423,-14.1674 z"
       id="path252"
       inkscape:connector-curvature="0"
       style="fill:#263238" />
    <path
       d="m 206.594,226.686 c 0,0 -13.969,-47.13 -14.236,-48.653 -0.243,-1.361 6.227,-34.428 7.17,-43.006 l -19.64,0.185 v 0.145 l -9.49,0.26 4.75,94.18 10.417,0.266 -0.157,-30.959 c 5.151,15.118 11.667,32.193 11.667,32.193 z"
       id="path254"
       inkscape:connector-curvature="0"
       style="fill:#b78876" />
    <path
       d="m 179.159,175.925 c 0,0 0,0.364 -0.058,1.031 -0.047,0.932 -0.03,1.867 0.052,2.797 0.121,1.378 0.353,2.743 0.694,4.084 0.455,1.633 1.012,3.237 1.667,4.801 1.296,3.383 2.448,6.453 3.269,8.688 l 0.978,2.641 c 0.13,0.32 0.234,0.649 0.313,0.985 -0.165,-0.301 -0.306,-0.615 -0.423,-0.938 l -1.047,-2.607 c -0.874,-2.206 -2.06,-5.265 -3.35,-8.647 l -0.938,-2.473 c -0.282,-0.776 -0.521,-1.567 -0.717,-2.369 -0.332,-1.358 -0.545,-2.742 -0.637,-4.136 -0.063,-0.94 -0.048,-1.883 0.046,-2.821 0.035,-0.33 0.075,-0.579 0.11,-0.758 -0.001,-0.095 0.013,-0.188 0.041,-0.278 z"
       id="path256"
       inkscape:connector-curvature="0"
       style="fill:#a36957" />
    <path
       d="m 185.455,210.358 c 0,-0.283 0.179,-10.495 0.179,-10.495 0,0 -3.42,-9.464 -3.507,-9.18 -0.086,0.284 3.328,19.675 3.328,19.675 z"
       id="path258"
       inkscape:connector-curvature="0"
       style="fill:#a36957" />
    <path
       d="m 197.428,231.146 9.166,-4.46 1.065,1.975 -3.247,1.837 c -2.216,1.21 -9.751,5.154 -11.533,5.479 -1.967,0.359 4.549,-4.831 4.549,-4.831 z"
       id="path260"
       inkscape:connector-curvature="0"
       style="fill:#b05ffd;fill-opacity:1" />
    <path
       d="m 192.486,235.71 c -0.041,-0.069 3.315,-1.737 7.494,-3.707 4.178,-1.969 7.603,-3.527 7.644,-3.475 0.04,0.052 -3.31,1.738 -7.494,3.707 -4.184,1.969 -7.604,3.545 -7.644,3.475 z"
       id="path262"
       inkscape:connector-curvature="0"
       style="fill:#263238" />
    <path
       d="m 205.286,229.721 c -0.046,0 -0.064,-0.173 -0.04,-0.451 0.024,-0.37 0.124,-0.731 0.295,-1.06 0.191,-0.36 0.499,-0.644 0.873,-0.805 0.307,-0.122 0.516,-0.093 0.521,-0.064 0.006,0.029 -0.173,0.093 -0.405,0.237 -0.291,0.189 -0.529,0.448 -0.694,0.753 -0.154,0.311 -0.274,0.637 -0.359,0.973 -0.087,0.261 -0.15,0.423 -0.191,0.417 z"
       id="path264"
       inkscape:connector-curvature="0"
       style="fill:#263238" />
    <path
       d="m 196.93,231.569 c 0,0.087 0.283,0.197 0.648,0.313 0.365,0.116 0.671,0.203 0.723,0.133 0.052,-0.069 -0.208,-0.29 -0.578,-0.417 -0.371,-0.127 -0.782,-0.116 -0.793,-0.029 z"
       id="path266"
       inkscape:connector-curvature="0"
       style="fill:#263238" />
    <path
       d="m 196.299,232.061 c 0,0.082 0.243,0.238 0.579,0.354 0.335,0.116 0.677,0.139 0.712,0.063 0.034,-0.075 -0.226,-0.231 -0.579,-0.353 -0.353,-0.121 -0.689,-0.145 -0.712,-0.064 z"
       id="path268"
       inkscape:connector-curvature="0"
       style="fill:#263238" />
    <path
       d="m 195.778,232.519 c -0.034,0.075 0.157,0.226 0.417,0.359 0.26,0.133 0.498,0.209 0.579,0.139 0.081,-0.069 -0.105,-0.261 -0.388,-0.405 -0.284,-0.145 -0.567,-0.174 -0.608,-0.093 z"
       id="path270"
       inkscape:connector-curvature="0"
       style="fill:#263238" />
    <path
       d="m 196.97,231.644 c 0.05,-0.323 0.016,-0.654 -0.098,-0.961 -0.094,-0.357 -0.257,-0.691 -0.48,-0.985 -0.141,-0.184 -0.309,-0.346 -0.498,-0.481 -0.108,-0.08 -0.227,-0.144 -0.353,-0.191 -0.162,-0.063 -0.342,-0.063 -0.503,0 -0.069,0.035 -0.129,0.085 -0.177,0.146 -0.047,0.061 -0.08,0.132 -0.097,0.207 -0.016,0.075 -0.016,0.154 10e-4,0.229 0.018,0.075 0.051,0.145 0.099,0.206 0.127,0.185 0.27,0.357 0.428,0.516 0.263,0.27 0.55,0.516 0.857,0.735 0.269,0.23 0.579,0.407 0.914,0.521 0.029,-0.034 -0.284,-0.272 -0.758,-0.677 -0.272,-0.235 -0.529,-0.486 -0.77,-0.753 -0.137,-0.148 -0.263,-0.307 -0.376,-0.475 -0.104,-0.151 -0.075,-0.336 0.035,-0.377 0.11,-0.04 0.318,0 0.492,0.145 0.166,0.114 0.316,0.251 0.445,0.406 0.216,0.263 0.386,0.561 0.504,0.88 0.082,0.313 0.194,0.618 0.335,0.909 z"
       id="path272"
       inkscape:connector-curvature="0"
       style="fill:#263238" />
    <path
       d="m 196.97,231.465 c -0.256,-0.258 -0.566,-0.456 -0.908,-0.579 -0.37,-0.167 -0.758,-0.288 -1.157,-0.36 -0.241,-0.043 -0.485,-0.062 -0.73,-0.057 -0.138,-0.001 -0.276,0.014 -0.41,0.046 -0.085,0.019 -0.164,0.056 -0.232,0.11 -0.041,0.032 -0.073,0.073 -0.094,0.121 -0.022,0.047 -0.031,0.099 -0.027,0.151 0.041,0.141 0.116,0.269 0.216,0.376 0.101,0.107 0.225,0.188 0.362,0.238 0.222,0.112 0.461,0.188 0.706,0.226 0.403,0.058 0.81,0.071 1.215,0.041 0.701,-0.047 1.077,-0.284 1.048,-0.319 -0.351,0.057 -0.704,0.092 -1.059,0.104 -0.388,0.001 -0.775,-0.032 -1.158,-0.098 -0.201,-0.042 -0.396,-0.112 -0.578,-0.209 -0.18,-0.087 -0.371,-0.26 -0.382,-0.376 -0.012,-0.116 0.208,-0.128 0.434,-0.116 0.221,-0.006 0.441,0.007 0.66,0.04 0.374,0.057 0.742,0.15 1.099,0.279 0.322,0.152 0.654,0.28 0.995,0.382 z"
       id="path274"
       inkscape:connector-curvature="0"
       style="fill:#263238" />
    <path
       d="m 197.607,231.048 c 0.058,0.087 2.187,-0.73 4.67,-1.952 2.482,-1.222 4.398,-2.317 4.334,-2.41 -0.063,-0.092 -2.089,0.887 -4.56,2.103 -2.471,1.216 -4.502,2.172 -4.444,2.259 z"
       id="path276"
       inkscape:connector-curvature="0"
       style="fill:#263238" />
    <path
       d="m 176.335,229.692 9.218,0.064 -0.15,2.676 h -0.579 c -2.674,0 -13.605,-0.197 -15.364,-0.759 -1.979,-0.614 6.875,-1.981 6.875,-1.981 z"
       id="path278"
       inkscape:connector-curvature="0"
       style="fill:#b05ffd;fill-opacity:1" />
    <path
       d="m 185.394,232.176 c 0.005,-0.08 -3.608,-0.349 -8.069,-0.6 -4.461,-0.251 -8.08,-0.39 -8.085,-0.31 -0.004,0.08 3.608,0.348 8.069,0.599 4.461,0.252 8.081,0.391 8.085,0.311 z"
       id="path280"
       inkscape:connector-curvature="0"
       style="fill:#263238" />
    <path
       d="m 182.475,231.975 c -0.035,0 0.052,-0.18 0.237,-0.406 0.251,-0.309 0.557,-0.568 0.903,-0.764 0.382,-0.215 0.819,-0.309 1.255,-0.273 0.342,0.041 0.51,0.162 0.492,0.191 -0.017,0.029 -0.208,0 -0.497,0 -0.374,0.025 -0.738,0.132 -1.065,0.313 -0.321,0.19 -0.623,0.409 -0.903,0.655 -0.231,0.197 -0.388,0.307 -0.422,0.284 z"
       id="path282"
       inkscape:connector-curvature="0"
       style="fill:#263238" />
    <path
       d="m 175.64,229.82 c -0.063,0.064 0.133,0.301 0.382,0.579 0.249,0.278 0.463,0.487 0.579,0.452 0.116,-0.035 0,-0.342 -0.278,-0.637 -0.278,-0.296 -0.619,-0.458 -0.683,-0.394 z"
       id="path284"
       inkscape:connector-curvature="0"
       style="fill:#263238" />
    <path
       d="m 174.767,229.947 c -0.07,0.058 0.069,0.319 0.312,0.58 0.243,0.26 0.503,0.434 0.579,0.388 0.075,-0.047 -0.058,-0.307 -0.313,-0.58 -0.254,-0.272 -0.486,-0.446 -0.578,-0.388 z"
       id="path286"
       inkscape:connector-curvature="0"
       style="fill:#263238" />
    <path
       d="m 174.061,230.086 c -0.081,0.047 0,0.267 0.15,0.498 0.15,0.232 0.312,0.412 0.405,0.377 0.093,-0.035 0.064,-0.272 -0.093,-0.521 -0.156,-0.25 -0.387,-0.4 -0.462,-0.354 z"
       id="path288"
       inkscape:connector-curvature="0"
       style="fill:#263238" />
    <path
       d="m 175.635,229.907 c 0.233,-0.243 0.404,-0.539 0.497,-0.863 0.134,-0.337 0.195,-0.698 0.18,-1.06 -0.012,-0.219 -0.061,-0.435 -0.145,-0.637 -0.045,-0.12 -0.11,-0.232 -0.191,-0.33 -0.113,-0.131 -0.273,-0.212 -0.446,-0.226 -0.08,-0.008 -0.161,0.002 -0.237,0.028 -0.076,0.026 -0.147,0.067 -0.206,0.122 -0.059,0.054 -0.107,0.121 -0.139,0.194 -0.032,0.074 -0.049,0.154 -0.048,0.235 -0.001,0.214 0.02,0.427 0.063,0.637 0.066,0.349 0.167,0.691 0.301,1.019 0.099,0.322 0.267,0.619 0.492,0.869 -0.042,-0.32 -0.126,-0.634 -0.249,-0.932 -0.097,-0.327 -0.171,-0.66 -0.22,-0.997 -0.03,-0.191 -0.043,-0.385 -0.04,-0.579 0,-0.174 0.139,-0.318 0.254,-0.307 0.116,0.012 0.267,0.168 0.342,0.354 0.08,0.183 0.129,0.379 0.145,0.579 0.028,0.331 -0.003,0.664 -0.093,0.984 -0.118,0.294 -0.205,0.599 -0.26,0.91 z"
       id="path290"
       inkscape:connector-curvature="0"
       style="fill:#263238" />
    <path
       d="m 175.744,229.756 c 0.041,0 -0.086,-0.376 -0.457,-0.898 -0.223,-0.314 -0.487,-0.597 -0.787,-0.839 -0.179,-0.149 -0.373,-0.279 -0.578,-0.389 -0.123,-0.066 -0.253,-0.116 -0.388,-0.15 -0.09,-0.018 -0.182,-0.018 -0.272,0 -0.055,0.008 -0.108,0.027 -0.155,0.057 -0.047,0.03 -0.087,0.07 -0.117,0.117 -0.05,0.128 -0.065,0.267 -0.045,0.403 0.021,0.136 0.076,0.265 0.161,0.373 0.128,0.2 0.291,0.377 0.48,0.521 0.324,0.232 0.673,0.427 1.042,0.579 0.335,0.196 0.726,0.273 1.111,0.22 -0.339,-0.113 -0.669,-0.249 -0.99,-0.405 -0.33,-0.176 -0.644,-0.381 -0.937,-0.614 -0.157,-0.128 -0.292,-0.28 -0.4,-0.452 -0.053,-0.07 -0.09,-0.151 -0.109,-0.237 -0.019,-0.086 -0.019,-0.175 -0.001,-0.261 0,-0.052 0.261,0 0.452,0.104 0.203,0.095 0.397,0.21 0.579,0.342 0.292,0.22 0.559,0.47 0.798,0.747 0.353,0.475 0.561,0.8 0.613,0.782 z"
       id="path292"
       inkscape:connector-curvature="0"
       style="fill:#263238" />
    <path
       d="m 176.549,229.692 c 1.464,0.232 2.945,0.33 4.427,0.296 1.479,0.066 2.961,0.014 4.432,-0.157 -1.471,-0.132 -2.949,-0.181 -4.426,-0.144 -2.442,-0.029 -4.427,-0.076 -4.433,0.005 z"
       id="path294"
       inkscape:connector-curvature="0"
       style="fill:#263238" />
    <path
       d="m 204.528,102.516 c 0,0 0.382,-1.414 -0.689,-10.0727 -0.468,-3.7707 -3.032,-6.1049 -5.786,-7.5297 v -0.0521 l -0.238,-0.0696 c -2.264,-1.0941 -4.695,-1.8027 -7.193,-2.0967 l -9.716,-0.1564 c 0,0 -7.112,-0.8862 -11.643,4.0545 -4.531,4.9406 -7.621,7.8482 -7.621,7.8482 l 7.239,8.6885 1.939,-1.923 c 0,0 -0.203,4.008 1.123,6.336 l 3.124,5.514 -2.071,9.719 c -1.285,3.702 -5.521,17.238 -3.86,30.646 2.054,16.606 2.384,21.431 2.384,21.431 l 23.46,3.215 c 0,0 9.374,-35.158 6.163,-49.123 -2.205,-9.598 -3.889,-9.146 -4.433,-11.225 l 0.608,-14.944 z"
       id="path296"
       inkscape:connector-curvature="0"
       style="fill:#b05ffd;fill-opacity:1" />
    <path
       d="m 171.826,99.6877 c 0.538,-0.9078 0.916,-1.6782 0.845,-1.7207 -0.072,-0.0424 -0.566,0.6592 -1.104,1.5671 -0.538,0.9079 -0.917,1.6779 -0.845,1.7209 0.071,0.042 0.566,-0.659 1.104,-1.5673 z"
       id="path298"
       inkscape:connector-curvature="0"
       style="fill:#263238" />
    <path
       d="m 193.701,116.139 c -0.243,0.075 -0.493,0.126 -0.747,0.15 -0.486,0.081 -1.186,0.168 -2.06,0.261 -4.553,0.457 -9.145,0.375 -13.68,-0.243 -0.868,-0.122 -1.568,-0.238 -2.048,-0.33 -0.252,-0.033 -0.501,-0.091 -0.741,-0.174 0.254,-0.007 0.508,0.012 0.758,0.058 l 2.06,0.237 c 1.736,0.191 4.144,0.388 6.811,0.435 2.668,0.046 5.081,-0.064 6.823,-0.192 l 2.066,-0.162 c 0.25,-0.039 0.504,-0.053 0.758,-0.04 z"
       id="path300"
       inkscape:connector-curvature="0"
       style="fill:#263238" />
    <path
       d="m 201.606,142.452 c -0.018,0.157 -0.049,0.312 -0.093,0.463 l -0.318,1.315 -0.237,0.95 c -0.099,0.342 -0.226,0.713 -0.353,1.106 -0.267,0.788 -0.527,1.709 -0.955,2.671 l -0.625,1.529 c -0.22,0.527 -0.504,1.054 -0.77,1.616 -0.515,1.129 -1.198,2.259 -1.886,3.475 -3.132,5.176 -7.263,9.675 -12.153,13.235 -1.157,0.788 -2.216,1.564 -3.298,2.166 -0.532,0.313 -1.036,0.637 -1.545,0.904 l -1.47,0.747 c -0.926,0.504 -1.817,0.834 -2.581,1.158 -0.388,0.162 -0.741,0.319 -1.076,0.446 l -0.926,0.313 -1.285,0.429 c -0.146,0.055 -0.297,0.098 -0.451,0.127 0.139,-0.074 0.284,-0.136 0.434,-0.185 l 1.261,-0.481 0.915,-0.336 c 0.33,-0.133 0.677,-0.301 1.059,-0.469 0.752,-0.348 1.637,-0.695 2.552,-1.205 l 1.452,-0.764 c 0.504,-0.267 1.001,-0.58 1.528,-0.91 1.07,-0.608 2.129,-1.39 3.264,-2.178 4.846,-3.56 8.956,-8.03 12.1,-13.159 0.694,-1.199 1.377,-2.317 1.898,-3.435 0.266,-0.579 0.578,-1.071 0.781,-1.599 l 0.637,-1.511 c 0.434,-0.956 0.706,-1.865 0.989,-2.647 0.133,-0.394 0.272,-0.753 0.376,-1.095 l 0.261,-0.938 0.37,-1.298 c 0.036,-0.15 0.084,-0.297 0.145,-0.44 z"
       id="path302"
       inkscape:connector-curvature="0"
       style="fill:#263238" />
    <path
       d="m 204.158,97.4476 c -0.115,0.0829 -0.237,0.1547 -0.365,0.2143 -0.243,0.1274 -0.608,0.3186 -1.082,0.5445 -1.335,0.679 -2.765,1.1516 -4.242,1.4016 -1.033,0.1487 -2.086,0.0896 -3.096,-0.1737 -0.567,-0.1494 -1.108,-0.3858 -1.603,-0.7009 -0.518,-0.3417 -0.981,-0.7618 -1.371,-1.2452 -0.772,-1.0566 -1.466,-2.1677 -2.078,-3.3247 -0.677,-1.1584 -1.556,-2.3168 -2.893,-2.757 -1.337,-0.4402 -2.743,-0.1101 -4.051,0.249 -1.239,0.4372 -2.528,0.7155 -3.836,0.8283 -0.781,0.0273 -1.559,-0.1091 -2.284,-0.4004 -0.725,-0.2914 -1.381,-0.7313 -1.926,-1.2915 -0.544,-0.5602 -0.966,-1.2282 -1.238,-1.9613 -0.272,-0.7331 -0.387,-1.5149 -0.339,-2.2953 0.04,-0.6471 0.186,-1.2832 0.434,-1.8824 0.197,-0.5145 0.494,-0.9849 0.874,-1.3843 -0.304,0.4492 -0.56,0.9287 -0.764,1.4307 -0.223,0.5918 -0.35,1.2156 -0.376,1.8476 -0.045,0.9231 0.15,1.842 0.567,2.6666 0.417,0.8245 1.041,1.5264 1.811,2.0366 0.953,0.6618 2.093,0.9989 3.252,0.9615 1.286,-0.1203 2.551,-0.4005 3.767,-0.8341 0.666,-0.2048 1.347,-0.3539 2.037,-0.446 0.727,-0.0971 1.467,-0.0298 2.165,0.197 0.693,0.2465 1.317,0.658 1.817,1.1989 0.471,0.5168 0.885,1.084 1.232,1.6913 0.601,1.147 1.282,2.2502 2.037,3.3015 0.715,0.914 1.705,1.5722 2.824,1.8766 0.978,0.2643 1.999,0.3332 3.003,0.2027 1.461,-0.2305 2.881,-0.6673 4.219,-1.2974 l 1.105,-0.4923 c 0.128,-0.0667 0.262,-0.121 0.4,-0.1622 z"
       id="path304"
       inkscape:connector-curvature="0"
       style="fill:#ffffff" />
    <path
       d="m 190.391,117.969 c 0.199,-0.296 0.339,-0.629 0.411,-0.979 0.058,-0.479 0.007,-0.965 -0.15,-1.421 -0.156,-0.457 -0.414,-0.872 -0.753,-1.214 -0.466,-0.476 -1.04,-0.834 -1.672,-1.043 -0.732,-0.246 -1.489,-0.411 -2.257,-0.492 -0.816,-0.11 -1.684,-0.174 -2.581,-0.365 -0.94,-0.17 -1.829,-0.552 -2.598,-1.118 -0.385,-0.305 -0.711,-0.678 -0.961,-1.1 -0.233,-0.408 -0.427,-0.836 -0.579,-1.281 -0.239,-0.823 -0.555,-1.622 -0.943,-2.386 -0.365,-0.614 -0.879,-1.127 -1.494,-1.491 -0.614,-0.365 -1.31,-0.569 -2.024,-0.594 -0.976,-0.015 -1.928,0.294 -2.709,0.88 -0.279,0.226 -0.546,0.468 -0.798,0.724 0.039,-0.086 0.092,-0.166 0.156,-0.237 0.172,-0.213 0.366,-0.407 0.579,-0.579 0.785,-0.648 1.771,-1.002 2.789,-1.002 0.757,0.011 1.499,0.214 2.156,0.591 0.657,0.377 1.207,0.915 1.6,1.563 0.405,0.776 0.735,1.588 0.983,2.427 0.251,0.873 0.752,1.652 1.441,2.242 0.73,0.535 1.57,0.899 2.46,1.065 0.868,0.192 1.736,0.267 2.552,0.383 1.632,0.202 3.182,0.672 4.05,1.668 0.351,0.368 0.611,0.814 0.76,1.3 0.148,0.487 0.182,1.002 0.097,1.503 -0.058,0.269 -0.17,0.524 -0.33,0.747 -0.127,0.145 -0.185,0.215 -0.185,0.209 z"
       id="path306"
       inkscape:connector-curvature="0"
       style="fill:#ffffff" />
    <path
       d="m 199.47,159.104 c -0.772,-0.077 -1.551,-0.043 -2.314,0.099 -0.894,0.184 -1.776,0.416 -2.645,0.695 -1.157,0.385 -2.363,0.601 -3.582,0.643 -1.487,0.03 -2.962,-0.258 -4.328,-0.846 -1.585,-0.665 -2.947,-1.77 -3.924,-3.185 -1.043,-1.605 -1.488,-3.527 -1.256,-5.428 0.111,-1 0.413,-1.97 0.892,-2.855 0.498,-0.916 1.196,-1.708 2.042,-2.317 0.822,-0.608 1.736,-1.158 2.147,-2.004 0.206,-0.42 0.273,-0.895 0.191,-1.355 -0.091,-0.466 -0.247,-0.916 -0.463,-1.338 -0.485,-0.837 -0.813,-1.756 -0.966,-2.711 -0.092,-0.935 0.047,-1.877 0.405,-2.745 0.679,-1.606 1.958,-2.882 3.565,-3.557 1.369,-0.582 2.853,-0.848 4.34,-0.776 1.202,0.062 2.408,0.027 3.605,-0.104 0.897,-0.13 1.753,-0.465 2.5,-0.979 0.478,-0.323 0.874,-0.754 1.157,-1.257 0.185,-0.347 0.231,-0.579 0.249,-0.55 -0.036,0.202 -0.103,0.397 -0.197,0.579 -0.261,0.525 -0.647,0.978 -1.123,1.321 -0.753,0.543 -1.623,0.903 -2.54,1.048 -1.205,0.151 -2.421,0.201 -3.634,0.151 -1.454,-0.056 -2.901,0.215 -4.236,0.793 -1.534,0.659 -2.752,1.888 -3.397,3.429 -0.337,0.827 -0.466,1.724 -0.376,2.612 0.154,0.924 0.475,1.811 0.949,2.618 0.229,0.448 0.395,0.926 0.492,1.419 0.093,0.524 0.016,1.064 -0.22,1.541 -0.498,0.961 -1.435,1.512 -2.239,2.114 -0.794,0.578 -1.455,1.318 -1.942,2.17 -0.487,0.853 -0.787,1.799 -0.882,2.777 -0.222,1.823 0.199,3.667 1.192,5.212 0.941,1.379 2.256,2.46 3.79,3.116 1.331,0.584 2.771,0.878 4.224,0.864 1.202,-0.025 2.395,-0.22 3.542,-0.58 0.876,-0.267 1.767,-0.484 2.668,-0.648 0.572,-0.101 1.156,-0.129 1.736,-0.081 0.196,0.021 0.389,0.06 0.578,0.115 z"
       id="path308"
       inkscape:connector-curvature="0"
       style="fill:#ffffff" />
    <path
       d="m 191.282,177.575 c 0,0 0,-0.405 0.046,-1.129 0.052,-1.016 -0.128,-2.03 -0.526,-2.966 -0.285,-0.627 -0.783,-1.132 -1.406,-1.424 -0.738,-0.283 -1.528,-0.402 -2.315,-0.348 -0.918,0.073 -1.842,-0.041 -2.714,-0.336 -0.452,-0.208 -0.848,-0.52 -1.158,-0.909 -0.31,-0.394 -0.578,-0.819 -0.798,-1.269 -0.381,-0.876 -0.879,-1.697 -1.482,-2.438 -0.583,-0.665 -1.281,-1.221 -2.06,-1.639 -1.328,-0.719 -2.851,-0.991 -4.346,-0.777 -1.008,0.141 -1.979,0.484 -2.852,1.008 -0.62,0.377 -0.915,0.649 -0.938,0.626 -0.023,-0.023 0.064,-0.081 0.203,-0.209 0.209,-0.187 0.432,-0.359 0.665,-0.515 0.873,-0.577 1.86,-0.958 2.894,-1.118 1.543,-0.252 3.126,0.008 4.507,0.741 0.815,0.429 1.544,1.002 2.153,1.692 0.318,0.358 0.601,0.746 0.845,1.158 0.243,0.429 0.457,0.875 0.683,1.309 0.352,0.873 0.996,1.596 1.823,2.045 0.835,0.281 1.719,0.393 2.598,0.33 0.834,-0.05 1.668,0.086 2.442,0.399 0.668,0.327 1.197,0.882 1.493,1.564 0.395,0.97 0.55,2.021 0.451,3.064 0,0.365 -0.063,0.649 -0.098,0.834 -0.021,0.108 -0.058,0.211 -0.11,0.307 z"
       id="path310"
       inkscape:connector-curvature="0"
       style="fill:#ffffff" />
    <path
       d="m 177.4,129.681 c -0.142,0.338 -0.3,0.668 -0.475,0.99 -0.467,0.874 -0.759,1.83 -0.862,2.815 -0.038,0.673 0.108,1.344 0.422,1.94 0.392,0.682 0.833,1.335 1.32,1.952 0.553,0.745 0.954,1.592 1.177,2.493 0.224,0.901 0.266,1.837 0.125,2.755 -0.151,0.923 -0.517,1.798 -1.071,2.552 -0.553,0.754 -1.277,1.366 -2.112,1.786 -0.728,0.371 -1.532,0.57 -2.35,0.579 -0.864,-0.008 -1.713,-0.238 -2.464,-0.667 -0.752,-0.429 -1.381,-1.042 -1.829,-1.783 -0.139,-0.238 -0.251,-0.49 -0.336,-0.753 -0.034,-0.089 -0.056,-0.182 -0.064,-0.278 0.029,0 0.128,0.377 0.504,0.968 0.542,0.826 1.318,1.473 2.228,1.859 0.62,0.271 1.291,0.407 1.967,0.4 0.775,-0.022 1.535,-0.22 2.222,-0.58 0.79,-0.405 1.474,-0.991 1.997,-1.709 0.522,-0.718 0.869,-1.549 1.013,-2.426 0.135,-0.882 0.095,-1.782 -0.117,-2.649 -0.213,-0.867 -0.594,-1.683 -1.122,-2.402 -0.488,-0.632 -0.927,-1.3 -1.313,-1.998 -0.325,-0.638 -0.467,-1.354 -0.411,-2.068 0.122,-1.009 0.453,-1.982 0.972,-2.855 0.173,-0.313 0.312,-0.551 0.411,-0.707 0.046,-0.079 0.102,-0.151 0.168,-0.214 z"
       id="path312"
       inkscape:connector-curvature="0"
       style="fill:#ffffff" />
    <path
       d="m 194.835,110.242 c -0.049,-0.226 -0.072,-0.457 -0.069,-0.689 l -0.093,-1.882 -0.301,-6.215 c -0.116,-2.4271 -0.191,-4.6339 -0.214,-6.2209 0,-0.7993 0,-1.4422 0,-1.8882 -0.011,-0.2327 0.005,-0.4659 0.046,-0.695 0.049,0.2264 0.072,0.4576 0.07,0.6892 l 0.092,1.8824 c 0.081,1.6566 0.186,3.8228 0.301,6.2145 0.116,2.393 0.191,4.634 0.214,6.221 0,0.799 0,1.442 0,1.888 0.012,0.233 -0.004,0.466 -0.046,0.695 z"
       id="path314"
       inkscape:connector-curvature="0"
       style="fill:#263238" />
    <path
       d="m 194.633,102.904 c 0,0 0.972,11.688 -0.145,12.47 -6.186,4.327 -14.415,6.07 -17.36,6.58 -0.411,-0.145 -0.886,-0.33 -1.436,-0.579 -0.473,-0.211 -0.908,-0.501 -1.284,-0.857 -0.489,-0.429 -0.917,-0.922 -1.273,-1.466 -0.044,-0.119 -0.125,-0.22 -0.231,-0.288 -0.106,-0.068 -0.232,-0.1 -0.358,-0.09 -0.126,0.01 -0.245,0.061 -0.339,0.144 -0.095,0.084 -0.159,0.197 -0.183,0.321 -0.076,0.539 0.659,2.021 2.164,3.203 1.504,1.182 -1.458,1.251 -2.541,1.292 -1.082,0.04 -4.415,0.336 -4.658,0.689 -0.359,0.515 0.122,1.008 1.198,0.938 1.076,-0.069 4.328,-0.04 4.328,0.545 0,0.585 -5.497,0.718 -5.497,0.718 0,0 -1.157,-0.162 -1.204,0.51 -0.029,1.216 5.787,0.625 6.366,0.579 0.388,-0.047 0.411,0.579 0,0.614 -0.411,0.035 -5.498,0 -5.538,1.251 -0.035,0.95 4.803,-0.44 5.862,0.162 1.059,0.602 -3.779,0.672 -3.773,1.581 0,0.336 0.046,0.579 2.818,0.139 1.979,-0.413 3.935,-0.935 5.856,-1.564 0,0 28.766,-2.467 28.043,-15.453 -0.486,-8.786 -0.33,-7.165 -0.868,-11.781"
       id="path316"
       inkscape:connector-curvature="0"
       style="fill:#b78876" />
    <path
       d="m 243.80143,200.1147 c -2.0188,0.83129 -3.74141,-0.98362 -4.10253,-2.50937 -0.36196,-1.52628 0.0931,-3.11286 0.54447,-4.61975 1.02808,-3.43482 2.13764,-7.01699 4.65707,-9.57073 0.7246,-0.80875 1.65883,-1.39978 2.69865,-1.70916 0.51565,-0.1444 1.05977,-0.15162 1.57912,-0.0203 0.5188,0.13215 0.99415,0.39682 1.37843,0.76821 0.85709,0.93624 0.84742,2.35472 0.69131,3.61624 -0.45784,3.71644 -1.7377,7.28437 -3.74698,10.44476 -0.93873,1.46268 -2.0921,2.89692 -3.67701,3.58724"
       id="path78-2"
       inkscape:connector-curvature="0"
       style="fill:#263238;fill-opacity:1" />
    <path
       d="m 245.30382,204.1279 c -0.0866,-1.05369 0.0847,-2.11299 0.49936,-3.08498 0.41438,-0.97338 1.05964,-1.83066 1.88018,-2.49822 1.66135,-1.31855 3.65371,-2.15494 5.75875,-2.41519 2.4551,-0.3873 4.96303,-0.29037 7.38053,0.28442 0.95986,0.17995 1.86839,0.56578 2.66409,1.13111 0.39473,0.28661 0.71395,0.66496 0.92962,1.1028 0.21429,0.43816 0.31931,0.92259 0.30474,1.40994 -0.12845,1.43137 -1.52367,2.37413 -2.75068,3.05293 -2.23036,1.21833 -4.55315,2.25854 -6.94716,3.11162 -1.92157,0.67981 -3.98461,1.24863 -5.97805,0.82955 -1.99342,-0.41907 -3.61013,-1.5529 -3.74916,-3.21178"
       id="path80-9"
       inkscape:connector-curvature="0"
       style="fill:#263238;fill-opacity:1" />
    <path
       d="m 229.30872,222.85764 c 0.0873,-0.26005 0.20137,-0.51002 0.34041,-0.74518 l 1.01842,-1.98307 c 0.49669,-0.97758 0.94248,-1.97953 1.33657,-3.00276 0.46777,-1.25281 0.83452,-2.54075 1.09627,-3.85211 0.26511,-1.30919 0.34245,-2.64979 0.2313,-3.98183 -0.091,-1.08385 -0.42274,-2.13327 -0.97058,-3.07185 -0.37655,-0.62783 -0.84989,-1.19184 -1.40333,-1.6718 -0.22436,-0.15587 -0.4322,-0.33561 -0.61903,-0.53512 0.24595,0.1222 0.47823,0.27128 0.69177,0.44398 0.60162,0.45859 1.11547,1.02245 1.51858,1.66258 0.59586,0.95633 0.96337,2.03703 1.07309,3.16021 0.13359,1.36189 0.0646,2.73757 -0.20492,4.07957 -0.26444,1.33221 -0.64222,2.63921 -1.13166,3.90544 -0.40954,1.02877 -0.8811,2.03199 -1.41175,3.00323 -0.45096,0.83227 -0.8365,1.48669 -1.11189,1.93615 -0.12798,0.23275 -0.28006,0.45121 -0.45325,0.65256 z"
       id="path82-1"
       inkscape:connector-curvature="0"
       style="fill:#263238;fill-opacity:1" />
    <path
       d="m 230.1005,221.33511 c 0.0549,-0.11329 0.12293,-0.21933 0.20308,-0.31643 0.15339,-0.23901 0.34459,-0.53694 0.58224,-0.90724 0.50664,-0.78941 1.25146,-1.94996 2.10124,-3.35922 1.73691,-2.85633 3.98604,-6.89774 6.25953,-11.46773 2.27264,-4.57053 4.10992,-8.81446 5.30743,-11.9338 0.30818,-0.78012 0.57304,-1.4835 0.79229,-2.11394 0.21925,-0.63046 0.42699,-1.15779 0.57114,-1.60829 l 0.35283,-1.02002 c 0.0345,-0.12042 0.0843,-0.23697 0.14598,-0.34595 -0.0103,0.12527 -0.0375,0.2492 -0.0787,0.36892 l -0.29344,1.03673 c -0.12392,0.45042 -0.30808,0.99288 -0.51723,1.62981 -0.20861,0.63609 -0.45141,1.34768 -0.75033,2.13375 -1.52874,4.08904 -3.27422,8.09365 -5.2306,11.99737 -2.26007,4.59166 -4.56449,8.61184 -6.35851,11.43866 -0.90416,1.40883 -1.63602,2.54918 -2.19147,3.30726 l -0.63526,0.8732 c -0.0747,0.10529 -0.16208,0.20255 -0.26018,0.28692 z"
       id="path84-2"
       inkscape:connector-curvature="0"
       style="fill:#263238;fill-opacity:1" />
    <path
       d="m 234.88709,213.80095 c 0.1776,-0.33042 0.38014,-0.64602 0.60656,-0.94511 0.42554,-0.58716 1.07137,-1.412 1.94185,-2.3814 1.01529,-1.12838 2.09486,-2.19768 3.23154,-3.20416 1.38526,-1.24384 2.85688,-2.38709 4.40417,-3.42237 2.78943,-1.9432 5.90949,-3.3629 9.20634,-4.18789 0.56794,-0.14026 1.14389,-0.24377 1.72496,-0.31049 0.25655,-0.035 0.49101,-0.0781 0.71348,-0.0935 l 0.60383,-0.0188 c 0.36968,-0.0206 0.74209,-0.0121 1.1114,0.0253 -1.38268,0.1345 -2.75472,0.35424 -4.10943,0.65996 -3.23577,0.89269 -6.29585,2.33189 -9.04931,4.25421 -1.53521,1.02759 -3.00125,2.1566 -4.38802,3.37688 -1.14032,0.98991 -2.22914,2.03662 -3.2638,3.13593 -0.88066,0.94267 -1.55864,1.75282 -2.00543,2.29902 -0.22215,0.28875 -0.46541,0.5604 -0.72815,0.81241 z"
       id="path86-7"
       inkscape:connector-curvature="0"
       style="fill:#263238;fill-opacity:1" />
  </g>
  <defs
     id="defs323">
    <clipPath
       id="clip0">
      <rect
         width="312"
         height="236"
         fill="white"
         id="rect320" />
    </clipPath>
  </defs>
</svg>
