<?xml version="1.0" encoding="UTF-8" standalone="no"?>
<svg
   xmlns:dc="http://purl.org/dc/elements/1.1/"
   xmlns:cc="http://creativecommons.org/ns#"
   xmlns:rdf="http://www.w3.org/1999/02/22-rdf-syntax-ns#"
   xmlns:svg="http://www.w3.org/2000/svg"
   xmlns="http://www.w3.org/2000/svg"
   xmlns:sodipodi="http://sodipodi.sourceforge.net/DTD/sodipodi-0.dtd"
   xmlns:inkscape="http://www.inkscape.org/namespaces/inkscape"
   viewBox="0 0 553.98401 325"
   version="1.1"
   id="svg593"
   sodipodi:docname="home.svg"
   inkscape:version="0.92.5 (2060ec1f9f, 2020-04-08)"
   width="553.98401"
   height="325">
  <metadata
     id="metadata597">
    <rdf:RDF>
      <cc:Work
         rdf:about="">
        <dc:format>image/svg+xml</dc:format>
        <dc:type
           rdf:resource="http://purl.org/dc/dcmitype/StillImage" />
      </cc:Work>
    </rdf:RDF>
  </metadata>
  <sodipodi:namedview
     pagecolor="#ffffff"
     bordercolor="#666666"
     borderopacity="1"
     objecttolerance="10"
     gridtolerance="10"
     guidetolerance="10"
     inkscape:pageopacity="0"
     inkscape:pageshadow="2"
     inkscape:window-width="1366"
     inkscape:window-height="704"
     id="namedview595"
     showgrid="false"
     inkscape:zoom="0.88579803"
     inkscape:cx="12.205554"
     inkscape:cy="141.1781"
     inkscape:window-x="0"
     inkscape:window-y="27"
     inkscape:window-maximized="1"
     inkscape:current-layer="g586" />
  <g
     clip-path="url(#clip0)"
     id="g586">
    <path
       d="m 425.976,324.062 c 0.15,0 0.269,-23.299 0.269,-52.021 0,-28.723 -0.119,-52.022 -0.269,-52.022 -0.151,0 -0.269,23.292 -0.269,52.022 0,28.73 0.118,52.021 0.269,52.021 z"
       id="path14"
       inkscape:connector-curvature="0"
       style="fill:#e0e0e0" />
    <path
       d="m 403.422,312.751 h 10.43 v -11.744 h -10.43 z"
       id="path16"
       inkscape:connector-curvature="0"
       style="fill:#fafafa" />
    <path
       d="m 0,324.795 c 0,0.11 124.028,0.205 276.972,0.205 152.944,0 277.012,-0.095 277.012,-0.205 0,-0.11 -124.004,-0.205 -277.012,-0.205 C 123.965,324.59 0,324.645 0,324.795 Z"
       id="path154"
       inkscape:connector-curvature="0"
       style="fill:#263238" />
    <path
       d="m 443.377,321.327 c -10.659,-7.362 -13.12,-21.092 -12.749,-33.443 0.064,-2.066 -0.174,-4.233 0.792,-6.046 0.965,-1.813 3.268,-3.058 5.128,-2.191 1.543,0.717 2.216,2.491 3.078,3.941 1.154,1.96 2.842,3.556 4.867,4.603 1.321,0.678 2.952,1.088 4.249,0.37 1.781,-0.985 1.987,-3.444 1.963,-5.517 -0.037,-3.82 -0.074,-7.64 -0.111,-11.461 -0.129,-2.049 0.074,-4.107 0.602,-6.092 0.633,-1.947 2.041,-3.76 3.996,-4.312 1.955,-0.552 4.384,0.56 4.803,2.57 0.082,0.848 0.106,1.702 0.072,2.553 -0.012,0.426 0.103,0.845 0.33,1.205 0.226,0.36 0.555,0.646 0.944,0.821 0.791,0.237 1.646,-0.347 2.255,-0.946 2.121,-2.081 3.553,-4.729 4.891,-7.409 1.337,-2.68 2.635,-5.375 4.558,-7.637 1.923,-2.263 4.582,-4.068 7.526,-4.241 2.943,-0.173 6.093,1.624 6.853,4.509 0.759,2.884 -0.91,5.832 -2.746,8.197 -2.709,3.479 -5.907,6.55 -9.497,9.119 -0.696,0.392 -1.25,0.994 -1.582,1.719 -0.443,1.371 0.862,2.719 2.216,3.152 1.535,0.505 3.165,0.339 4.803,0.521 1.638,0.181 3.347,0.882 3.957,2.364 0.847,2.089 -0.902,4.296 -2.627,5.738 -3.459,2.894 -7.391,5.174 -11.625,6.74 -1.558,0.435 -3.022,1.151 -4.321,2.112 -1.219,1.064 -1.947,2.908 -1.203,4.351 0.744,1.442 2.635,1.899 4.226,1.576 1.59,-0.323 2.999,-1.158 4.51,-1.734 2.826,-1.072 6.482,-0.89 8.302,1.537 0.556,0.837 0.91,1.79 1.033,2.786 0.124,0.995 0.014,2.006 -0.321,2.952 -0.683,1.882 -1.738,3.608 -3.102,5.076 -4.465,5.38 -10.285,9.482 -16.864,11.886 -6.552,2.286 -12.661,2.925 -19.166,0.568"
       id="path156"
       style="fill:#b05ffd;fill-opacity:1"
       inkscape:connector-curvature="0" />
    <path
       d="m 444.082,324.803 c 0.435,-4.895 0.656,-4.997 2.469,-11.232 2.033,-6.735 4.453,-13.349 7.248,-19.807 l 2.169,-5.092 c 0.712,-1.671 1.424,-3.327 2.223,-4.903 1.533,-3.018 3.231,-5.949 5.089,-8.781 1.756,-2.719 3.521,-5.241 5.183,-7.582 1.662,-2.341 3.276,-4.493 4.819,-6.392 2.41,-3.01 5.057,-5.825 7.914,-8.418 1.013,-0.915 1.82,-1.577 2.374,-2.065 l 0.633,-0.521 c 0.069,-0.061 0.143,-0.117 0.221,-0.165 -0.059,0.072 -0.125,0.138 -0.197,0.197 l -0.61,0.544 c -0.538,0.473 -1.329,1.182 -2.326,2.112 -2.821,2.628 -5.44,5.463 -7.835,8.481 -1.527,1.908 -3.11,4.059 -4.748,6.408 -1.638,2.349 -3.41,4.871 -5.151,7.591 -1.842,2.833 -3.528,5.764 -5.049,8.78 -0.791,1.577 -1.488,3.216 -2.208,4.887 l -2.113,5.06 c -2.789,6.445 -5.214,13.039 -7.264,19.753 -1.829,6.211 -2.074,6.305 -2.533,11.153"
       id="path158"
       inkscape:connector-curvature="0"
       style="fill:#263238" />
    <path
       d="m 458.294,283.753 c -0.1,-0.283 -0.169,-0.576 -0.205,-0.875 -0.111,-0.567 -0.246,-1.387 -0.388,-2.411 -0.301,-2.042 -0.617,-4.872 -0.95,-7.993 -0.332,-3.121 -0.688,-5.943 -1.021,-7.976 -0.158,-1.017 -0.3,-1.837 -0.403,-2.365 -0.072,-0.292 -0.112,-0.59 -0.119,-0.891 0.118,0.276 0.206,0.564 0.261,0.859 0.151,0.56 0.325,1.372 0.522,2.365 0.396,2.026 0.792,4.855 1.132,7.977 l 0.839,8 0.269,2.42 c 0.054,0.293 0.075,0.592 0.063,0.89 z"
       id="path160"
       inkscape:connector-curvature="0"
       style="fill:#263238" />
    <path
       d="m 484.749,278.732 c -0.346,0.075 -0.699,0.117 -1.053,0.127 -0.68,0.063 -1.661,0.149 -2.872,0.291 -2.422,0.268 -5.761,0.788 -9.409,1.458 -3.648,0.67 -6.94,1.474 -9.315,2.121 -1.179,0.307 -2.128,0.583 -2.785,0.788 -0.334,0.116 -0.679,0.2 -1.029,0.252 0.317,-0.162 0.648,-0.294 0.989,-0.394 0.641,-0.229 1.583,-0.544 2.762,-0.883 2.374,-0.701 5.627,-1.521 9.291,-2.23 3.127,-0.61 6.283,-1.06 9.456,-1.348 1.219,-0.111 2.208,-0.158 2.889,-0.174 0.357,-0.037 0.718,-0.039 1.076,-0.008 z"
       id="path162"
       inkscape:connector-curvature="0"
       style="fill:#263238" />
    <path
       d="m 446.867,313.09 c -0.075,-0.099 -0.137,-0.207 -0.182,-0.323 l -0.459,-0.954 c -0.396,-0.827 -0.926,-2.041 -1.583,-3.547 -1.29,-3.018 -2.936,-7.235 -4.685,-11.917 -1.748,-4.682 -3.363,-8.915 -4.582,-11.949 l -1.456,-3.595 -0.387,-0.977 c -0.053,-0.113 -0.091,-0.232 -0.111,-0.355 0.075,0.1 0.136,0.208 0.182,0.324 l 0.459,0.953 c 0.396,0.828 0.926,2.042 1.583,3.547 1.289,3.019 2.935,7.236 4.692,11.918 1.757,4.682 3.363,8.914 4.582,11.949 l 1.456,3.594 0.388,0.978 c 0.05,0.113 0.085,0.232 0.103,0.354 z"
       id="path164"
       inkscape:connector-curvature="0"
       style="fill:#263238" />
    <path
       d="m 482.003,301.677 c -0.109,0.063 -0.226,0.11 -0.348,0.142 l -1.021,0.347 -3.767,1.198 c -3.165,1.04 -7.549,2.522 -12.376,4.169 -4.828,1.648 -9.22,3.09 -12.417,4.068 -1.582,0.488 -2.896,0.867 -3.798,1.111 l -1.037,0.276 c -0.12,0.04 -0.245,0.064 -0.372,0.071 0.11,-0.063 0.227,-0.11 0.348,-0.142 l 1.021,-0.347 3.759,-1.23 c 3.166,-1.04 7.55,-2.522 12.377,-4.169 4.827,-1.647 9.211,-3.09 12.416,-4.067 1.583,-0.489 2.896,-0.867 3.799,-1.112 l 1.044,-0.275 c 0.122,-0.03 0.247,-0.044 0.372,-0.04 z"
       id="path166"
       inkscape:connector-curvature="0"
       style="fill:#263238" />
    <path
       d="M 423.618,324.795 H 313.529 C 300.22,324.732 289,313.429 289,300.179 l 1.211,-276.2728 c 0.013,-3.1535 0.65,-6.2735 1.874,-9.1818 1.225,-2.9082 3.012,-5.54775 5.26,-7.76776 2.249,-2.22 4.914,-3.97701 7.845,-5.17065 2.93,-1.193641 6.068,-1.800533 9.233,-1.7860100425 L 425.05,0.512314 c 6.388,0.031287 12.502,2.587566 16.999,7.107136 4.497,4.51955 7.009,10.63265 6.984,16.99615 l -1.171,276.2734 c -0.014,3.156 -0.652,6.279 -1.878,9.189 -1.226,2.91 -3.016,5.551 -5.268,7.772 -2.252,2.22 -4.921,3.976 -7.855,5.168 -2.934,1.192 -6.075,1.796 -9.243,1.777 z"
       id="path168"
       inkscape:connector-curvature="0"
       style="fill:#263238" />
    <path
       d="m 424.892,11.0033 -21.451,-0.0631 c -0.7,0.0123 -1.39,0.1618 -2.031,0.4398 -0.642,0.278 -1.222,0.6792 -1.707,1.1806 -0.486,0.5013 -0.868,1.0931 -1.124,1.7415 -0.256,0.6484 -0.381,1.3407 -0.369,2.0373 v 3.878 c 0.013,0.6966 -0.112,1.3889 -0.368,2.0373 -0.256,0.6484 -0.638,1.2402 -1.124,1.7416 -0.486,0.5014 -1.066,0.9025 -1.707,1.1805 -0.641,0.278 -1.332,0.4275 -2.031,0.4398 l -41.81,-0.1892 c -1.412,-0.0392 -2.751,-0.6346 -3.722,-1.6557 -0.972,-1.0211 -1.497,-2.3843 -1.461,-3.7908 V 16.103 c 0.036,-1.4065 -0.489,-2.7697 -1.461,-3.7908 -0.971,-1.0211 -2.31,-1.6165 -3.722,-1.6557 h -7.541 l -18.776,-0.0867 c -2.217,-0.0104 -4.415,0.4145 -6.467,1.2503 -2.052,0.8358 -3.919,2.0662 -5.493,3.6209 -1.575,1.5547 -2.827,3.4032 -3.684,5.44 -0.858,2.0367 -1.304,4.2217 -1.313,6.4302 l -1.147,269.6678 c -0.019,4.458 1.74,8.741 4.89,11.907 3.15,3.166 7.433,4.956 11.908,4.977 l 110.437,0.433 c 2.217,0.011 4.414,-0.414 6.466,-1.25 2.053,-0.836 3.919,-2.066 5.494,-3.621 1.575,-1.555 2.827,-3.403 3.684,-5.44 0.857,-2.037 1.303,-4.222 1.313,-6.43 L 441.69,27.8866 c 0.019,-4.4576 -1.74,-8.7402 -4.89,-11.9062 -3.15,-3.166 -7.433,-4.9562 -11.908,-4.9771 z"
       id="path170"
       inkscape:connector-curvature="0"
       style="fill:#f5f5f5" />
    <path
       d="m 378.033,263.339 c -0.126,3.255 -0.245,6.305 -0.348,8.851 h 15.865 l -1.939,-9.702 z"
       id="path172"
       inkscape:connector-curvature="0"
       style="fill:#f5f5f5" />
    <path
       d="m 313.577,267.398 0.134,4.784 h 62.431 c 0.103,-2.687 0.221,-5.675 0.34,-8.749 z"
       id="path174"
       inkscape:connector-curvature="0"
       style="fill:#f5f5f5" />
    <path
       d="m 392.402,262.432 1.954,9.758 h 29.237 l -0.356,-11.697 z"
       id="path176"
       inkscape:connector-curvature="0"
       style="fill:#f5f5f5" />
    <path
       d="m 379.616,126.081 5.53,-31.9301 -14.48,-1.072 v 33.0021 z"
       id="path178"
       inkscape:connector-curvature="0"
       style="fill:#f5f5f5" />
    <path
       d="m 312.279,249.671 -15.714,6.133 -0.048,11.09 16.229,-1.025 z"
       id="path180"
       inkscape:connector-curvature="0"
       style="fill:#f5f5f5" />
    <path
       d="m 312.2,247.181 -0.854,-29.739 h -0.016 v -10.491 l -14.567,1.537 -0.19,44.778 15.627,-6.101 z"
       id="path182"
       inkscape:connector-curvature="0"
       style="fill:#f5f5f5" />
    <path
       d="m 311.33,183.541 -14.457,-1.907 -0.103,24.481 14.56,-1.537 z"
       id="path184"
       inkscape:connector-curvature="0"
       style="fill:#f5f5f5" />
    <path
       d="m 419.092,207.392 -0.609,8.528 -17.076,1.829 1.322,6.747 19.385,-1.458 -0.292,-9.671 1.551,-6.401 z"
       id="path186"
       inkscape:connector-curvature="0"
       style="fill:#f5f5f5" />
    <path
       d="m 388.319,225.576 13.618,-1.025 -2.967,-15.133 -11.885,1.198 z"
       id="path188"
       inkscape:connector-curvature="0"
       style="fill:#f5f5f5" />
    <path
       d="m 388.446,227.152 1.044,12.62 1.844,17.308 0.76,3.792 31.096,-1.955 -1.028,-34.303 z"
       id="path190"
       inkscape:connector-curvature="0"
       style="fill:#f5f5f5" />
    <path
       d="m 311.48,181.192 -14.599,-1.915 0.19,-43.824 38.55,-6.992 h 43.892 l 1.582,19.138 -45.655,4.374 0.15,1.577 45.632,-4.375 3.023,36.675 -46.084,-6.021 -0.308,2.364 46.613,6.069 1.788,21.668 -48.789,4.903 -25.32,1.781 v -33.057 l 23.983,-13.936 -1.195,-2.041 z m 25.21,30.874 -2.54,-37.258 -19.568,10.325 c 0.182,1.017 0,28.281 0,28.281 z"
       id="path192"
       inkscape:connector-curvature="0"
       style="fill:#f5f5f5" />
    <path
       d="m 417.493,207.558 -17.732,1.781 1.345,6.857 15.889,-1.702 z"
       id="path194"
       inkscape:connector-curvature="0"
       style="fill:#f5f5f5" />
    <path
       d="m 378.255,257.498 -0.167,4.257 13.199,-0.836 -0.681,-3.389 z"
       id="path196"
       inkscape:connector-curvature="0"
       style="fill:#f5f5f5" />
    <path
       d="m 349.832,126.081 2.327,-10.499 h 17.716 V 93.0238 L 314.471,88.933 v 21.179 l -17.305,3.902 -0.087,19.011 38.329,-6.944 z"
       id="path198"
       inkscape:connector-curvature="0"
       style="fill:#f5f5f5" />
    <path
       d="m 386.8,63.3164 -0.474,-1.9311 21.158,-8.3392 -13.76,-27.5241 c -0.262,0.042 -0.526,0.0631 -0.791,0.0631 l -23.382,-0.1104 0.633,38.5117 z"
       id="path200"
       inkscape:connector-curvature="0"
       style="fill:#f5f5f5" />
    <path
       d="m 418.87,48.5533 v -37.613 h -15.43 c -0.699,0.0123 -1.389,0.1617 -2.03,0.4397 -0.642,0.278 -1.222,0.6792 -1.708,1.1806 -0.485,0.5014 -0.867,1.0932 -1.123,1.7415 -0.256,0.6484 -0.381,1.3407 -0.369,2.0374 v 3.8779 c -0.008,0.8626 -0.219,1.7113 -0.616,2.4778 -0.398,0.7666 -0.97,1.4297 -1.671,1.9362 l 13.768,27.5398 z"
       id="path202"
       inkscape:connector-curvature="0"
       style="fill:#f5f5f5" />
    <path
       d="m 309.391,45.8892 7.122,-35.3825 16.735,0.0789 h 4.289 l 1.78,39.5599 z m 9.321,-31.2759 -4.874,28.9744 22.243,3.2395 -0.57,-32.2218 z"
       id="path204"
       inkscape:connector-curvature="0"
       style="fill:#f5f5f5" />
    <path
       d="m 340.132,50.2874 v 0.3389 c 0,3.0898 0.103,8.6703 0.15,14.5897 l 29.142,-1.1823 -0.633,-38.5511 -17.637,-0.0788 c -1.412,-0.0392 -2.75,-0.6346 -3.722,-1.6557 -0.972,-1.021 -1.497,-2.3843 -1.461,-3.7908 v -3.8779 c 0.036,-1.4065 -0.489,-2.7697 -1.461,-3.7908 -0.971,-1.0211 -2.31,-1.6165 -3.721,-1.6557 h -2.469 l 1.788,39.6703 z"
       id="path206"
       inkscape:connector-curvature="0"
       style="fill:#f5f5f5" />
    <path
       d="m 307.041,45.5503 7.058,-35.0357 c -4.409,0.0782 -8.611,1.8724 -11.707,4.9984 -3.097,3.1261 -4.842,7.3355 -4.862,11.7273 l -0.072,17.4666 0.072,-0.5124 z"
       id="path208"
       inkscape:connector-curvature="0"
       style="fill:#f5f5f5" />
    <path
       d="m 312.097,88.7596 -14.821,-1.0956 -0.103,23.922 14.924,-3.358 z"
       id="path210"
       inkscape:connector-curvature="0"
       style="fill:#f5f5f5" />
    <path
       d="m 306.883,46.3227 -9.424,-1.3478 -0.166,38.7402 2.025,0.1498 z"
       id="path212"
       inkscape:connector-curvature="0"
       style="fill:#f5f5f5" />
    <path
       d="m 336.824,246.723 0.245,-31.094 -24.932,1.758 0.878,30.464 z"
       id="path214"
       inkscape:connector-curvature="0"
       style="fill:#f5f5f5" />
    <path
       d="m 341.405,239.519 35.314,16.852 c 0.42,-11.035 0.791,-21.281 0.791,-21.967 l 0.792,-0.04 0.372,-0.74 c 0.498,0.252 0.498,0.252 0.237,7.755 -0.15,4.186 -0.356,9.758 -0.57,15.339 h 12.154 l -1.804,-16.899 -2.374,-29.164 -46.138,4.635 z"
       id="path216"
       inkscape:connector-curvature="0"
       style="fill:#f5f5f5" />
    <path
       d="m 427.961,187.939 -0.395,-4.106 -42.325,4.39 1.78,21.605 36.541,-3.673 z"
       id="path218"
       inkscape:connector-curvature="0"
       style="fill:#f5f5f5" />
    <path
       d="m 369.875,117.947 h -15.81 l -1.804,8.134 h 17.614 z"
       id="path220"
       inkscape:connector-curvature="0"
       style="fill:#f5f5f5" />
    <path
       d="m 423.618,143.5 -41.763,4.004 -1.67,-20.225 1.583,-9.316 39.563,2.727 z m -39.199,1.277 37.347,-4.414 -1.994,-16.828 -34.396,-2.167 -2.129,5.88 z"
       id="path222"
       inkscape:connector-curvature="0"
       style="fill:#f5f5f5" />
    <path
       d="m 425.532,162.961 -1.733,-17.884 -41.786,3.996 1.566,19.043 z"
       id="path224"
       inkscape:connector-curvature="0"
       style="fill:#f5f5f5" />
    <path
       d="m 312.793,267.445 -16.213,1.025 -0.071,-1.048 -0.016,4.768 h 16.435 z"
       id="path226"
       inkscape:connector-curvature="0"
       style="fill:#f5f5f5" />
    <path
       d="m 441.398,39.6703 0.237,0.599 0.055,-12.3827 c 0.019,-4.4575 -1.74,-8.7401 -4.89,-11.9062 -3.15,-3.166 -7.433,-4.9562 -11.908,-4.9771 h -5.262 v 37.2584 z"
       id="path228"
       inkscape:connector-curvature="0"
       style="fill:#f5f5f5" />
    <path
       d="m 376.506,261.857 -62.977,3.941 -0.475,-16.458 v -0.709 l 24.53,-1.159 0.253,-31.914 1.511,-0.15 1.274,24.647 36.042,17.199 z m -61.924,-0.189 56.757,-3.058 -22.369,-10.342 -34.388,2.365 z"
       id="path230"
       inkscape:connector-curvature="0"
       style="fill:#f5f5f5" />
    <path
       d="m 431.151,81.0904 1.472,-8.7097 C 419.693,67.7855 418.799,54.3624 418.839,50.311 l -8.435,3.3262 12.708,25.4038 z"
       id="path232"
       inkscape:connector-curvature="0"
       style="fill:#f5f5f5" />
    <path
       d="m 385.043,185.866 17.574,-1.82 -3.466,-15.465 -15.374,1.892 z"
       id="path234"
       inkscape:connector-curvature="0"
       style="fill:#f5f5f5" />
    <path
       d="m 421.489,94.411 h -32.822 l -2.73,-0.2049 -3.703,21.4159 38.962,2.679 -0.91,-9.308 3.838,-13.7465 z"
       id="path236"
       inkscape:connector-curvature="0"
       style="fill:#f5f5f5" />
    <path
       d="m 395.069,90.47 -6.876,-28.131 20.003,-7.882 12.897,25.7979 -0.411,10.2466 z m -2.825,-25.4432 5.056,21.1869 20.225,0.7882 1.709,-6.9835 -11.822,-22.4007 z"
       id="path238"
       inkscape:connector-curvature="0"
       style="fill:#f5f5f5" />
    <path
       d="m 425.793,213.777 0.601,20.075 14.227,-0.796 0.04,0.788 -14.243,0.796 0.728,24.025 13.444,-0.844 0.103,1.569 -13.499,0.851 0.356,11.949 h 13.103 l 0.285,-66.989 -13.396,1.348 z"
       id="path240"
       inkscape:connector-curvature="0"
       style="fill:#f5f5f5" />
    <path
       d="m 339.348,50.9652 -30.115,-4.3036 -7.533,37.3767 37.775,2.7902 c 0.158,-5.7381 0.024,-23.4097 -0.127,-35.8633 z"
       id="path242"
       inkscape:connector-curvature="0"
       style="fill:#f5f5f5" />
    <path
       d="m 388.881,90.47 h 4.557 l -6.448,-26.3733 -16.759,0.6858 0.403,24.3476 z"
       id="path244"
       inkscape:connector-curvature="0"
       style="fill:#f5f5f5" />
    <path
       d="m 340.25,86.8837 29.562,2.1833 -0.404,-24.253 -29.15,1.1901 c 0.095,8.1974 0.119,16.9464 -0.008,20.8796 z"
       id="path246"
       inkscape:connector-curvature="0"
       style="fill:#f5f5f5" />
    <path
       d="m 425.762,165.318 -25.819,3.168 3.466,15.473 23.927,-2.475 z"
       id="path248"
       inkscape:connector-curvature="0"
       style="fill:#f5f5f5" />
    <path
       d="m 432.764,71.5531 1.654,-9.7737 7.121,0.5517 0.087,-21.0529 -21.989,8.6703 c -0.435,14.8103 8.902,20.0203 13.127,21.6046 z"
       id="path250"
       inkscape:connector-curvature="0"
       style="fill:#f5f5f5" />
    <path
       d="m 424.298,109.34 0.903,9.237 16.102,1.112 0.079,-19.02 -13.483,-4.2402 z"
       id="path252"
       inkscape:connector-curvature="0"
       style="fill:#f5f5f5" />
    <path
       d="m 431.965,188.215 -4.233,17.522 13.206,-1.324 0.079,-18.373 c -4.051,-1.064 -7.588,-1.931 -9.495,-2.294 z"
       id="path254"
       inkscape:connector-curvature="0"
       style="fill:#f5f5f5" />
    <path
       d="m 423.048,90.7695 18.357,5.7775 0.04,-10.3964 -18.025,-4.6425 z"
       id="path256"
       inkscape:connector-curvature="0"
       style="fill:#f5f5f5" />
    <path
       d="m 431.293,181.334 c 1.48,0.221 4.281,0.788 9.733,2.246 l 0.174,-40.198 -13.452,1.293 z"
       id="path258"
       inkscape:connector-curvature="0"
       style="fill:#f5f5f5" />
    <path
       d="m 427.582,143.13 13.625,-1.309 0.087,-19.76 -15.864,-1.095 z"
       id="path260"
       inkscape:connector-curvature="0"
       style="fill:#f5f5f5" />
    <path
       d="m 434.284,72.0497 c 2.58,0.7882 4.985,1.3872 7.209,1.8286 l 0.039,-9.9707 -5.8,-0.4493 z"
       id="path262"
       inkscape:connector-curvature="0"
       style="fill:#f5f5f5" />
    <path
       d="m 432.693,81.4529 8.76,2.2543 v -9.017 C 439.19,74.2409 436.705,73.6261 434.11,72.83 Z"
       id="path264"
       inkscape:connector-curvature="0"
       style="fill:#f5f5f5" />
    <path
       d="m 296.572,268.47 -0.063,-1.048 v -0.528 l 16.228,-1.025 -0.466,-16.198 -15.715,6.133 v -2.546 l 15.628,-6.101 -0.839,-29.707 v -10.499 l -14.575,1.576 v -2.365 l 14.559,-1.536 v -21.069 l -14.456,-1.9 v -2.364 l 14.606,1.899 23.43,-13.636 1.194,2.042 -23.983,13.959 v 33.057 l 25.321,-1.781 48.789,-4.903 -1.788,-21.668 -46.614,-6.069 0.309,-2.364 46.107,5.998 -3.023,-36.675 -45.632,4.374 -0.15,-1.576 45.656,-4.375 -1.583,-19.137 h -43.899 l -38.55,6.991 v -2.404 l 38.32,-6.944 h 14.441 l 2.326,-10.499 h 17.725 V 93.0238 L 314.486,88.933 v 21.179 l -17.305,3.902 v -2.428 l 14.923,-3.366 V 88.7517 l -14.82,-1.0956 v -3.941 l 2.034,0.1497 7.564,-37.5421 -9.432,-1.3478 v -0.268 l 0.071,-0.5123 9.496,1.3635 7.058,-35.0356 h 0.387 2.042 l -7.122,35.3825 29.934,4.2799 -1.78,-39.5599 h 0.791 l 1.788,39.6702 v 0.339 c 0,3.0897 0.103,8.6702 0.15,14.5896 l 29.143,-1.1823 -0.633,-38.551 h 0.791 l 0.633,38.5116 16.616,-0.6778 -0.474,-1.9312 21.158,-8.3391 -13.776,-27.532 c 0.794,-0.1181 1.548,-0.4235 2.2,-0.8907 l 13.768,27.5399 9.179,-3.6179 V 10.9402 h 0.791 v 37.2584 l 21.744,-8.5677 0.237,0.599 v 1.001 l -21.989,8.6702 c -0.451,14.8183 8.894,20.0283 13.119,21.6126 l 1.654,-9.7737 7.121,0.5517 v 1.5764 l -5.8,-0.4493 -1.456,8.5914 c 2.58,0.7883 4.985,1.3873 7.209,1.8287 v 0.7882 c -2.263,-0.4493 -4.748,-1.0641 -7.343,-1.8602 l -1.456,8.6151 8.759,2.2543 v 2.4355 l -18.025,-4.6425 -0.372,9.2614 18.35,5.7696 v 4.1307 l -13.452,-4.241 -3.6,12.911 0.839,9.316 16.102,1.135 v 2.365 l -15.825,-1.096 2.096,22.149 13.626,-1.309 v 1.577 l -13.451,1.293 3.56,36.635 c 1.48,0.221 4.281,0.788 9.733,2.247 v 2.459 c -4.052,-1.064 -7.588,-1.931 -9.495,-2.294 l 0.435,4.477 -4.233,17.522 13.206,-1.324 v 0.788 l -13.381,1.348 -1.748,7.235 0.601,20.076 14.243,-0.788 0.047,0.788 -14.242,0.788 0.72,24.025 13.451,-0.844 0.103,1.577 -13.499,0.851 0.324,11.933 h -3.956 l -0.356,-11.697 -30.859,1.947 1.938,9.75 h -0.791 l -1.938,-9.702 -13.571,0.851 c -0.126,3.255 -0.245,6.305 -0.348,8.851 h -1.582 c 0.103,-2.687 0.221,-5.675 0.34,-8.749 l -62.866,3.941 0.135,4.785 h -0.792 l -0.134,-4.73 z m 94.714,-7.551 -0.68,-3.389 h -12.36 l -0.166,4.256 z m 31.896,-2.01 -1.037,-34.295 -33.715,2.53 1.036,12.612 1.844,17.34 0.791,3.791 z m -22.092,-42.713 15.896,-1.71 0.499,-6.936 -17.732,1.781 z m -14.021,-5.588 1.234,14.976 13.626,-1.041 -2.968,-15.133 z m 34.736,2.759 1.583,-6.408 -4.273,0.433 -0.609,8.521 -17.076,1.836 1.322,6.747 19.385,-1.458 z m -38.044,-42.902 1.266,15.393 17.574,-1.82 -3.45,-15.457 z m 43.559,11.035 -1.582,-16.166 -25.819,3.152 3.466,15.473 z m -7.042,-72.515 3.846,-13.707 -2.635,-0.8276 h -32.822 l -2.722,-0.2049 -3.711,21.4075 38.962,2.688 z m -9.875,-55.4108 12.708,25.4038 8.039,2.1124 1.472,-8.7097 C 419.692,67.7855 418.798,54.3624 418.838,50.311 Z m -22.219,8.7569 6.876,28.131 h 25.622 l 0.411,-10.2466 -12.898,-25.7979 z m -17.961,2.4356 0.38,24.3633 18.278,1.34 h 4.557 L 386.99,64.0967 Z m -29.942,1.2217 c 0.064,8.2052 0.087,16.9542 0,20.8874 l 29.53,2.1912 -0.403,-24.253 z m -38.59,18.042 37.775,2.7902 c 0.151,-5.7539 0,-23.4096 -0.134,-35.8554 l -30.116,-4.3036 z m 68.959,9.0407 v 33.0019 h 8.965 l 5.539,-31.93 z m -18.405,33.0019 h 17.63 v -8.126 h -15.826 z m 29.617,21.424 41.755,-3.997 -2.215,-22.818 -39.564,-2.727 -1.582,9.316 z m 0.127,1.576 1.582,19.035 41.937,-5.147 -1.741,-17.892 z m 5.008,60.755 36.549,-3.673 4.399,-18.216 -0.395,-4.098 -42.325,4.382 z m -0.72,0.867 -46.138,4.634 1.266,24.19 35.314,16.852 c 0.419,-11.035 0.791,-21.281 0.791,-21.967 l 0.791,-0.04 0.372,-0.74 c 0.499,0.252 0.499,0.252 0.238,7.755 -0.151,4.186 -0.356,9.758 -0.57,15.339 h 12.154 l -1.804,-16.899 z m -74.157,6.692 0.879,30.464 23.801,-1.128 0.245,-31.102 z m 1.401,48.435 62.976,-3.941 0.174,-4.596 -36.042,-17.198 -1.273,-24.647 -1.512,0.149 -0.253,31.915 -24.529,1.158 v 0.71 z"
       id="path266"
       inkscape:connector-curvature="0"
       style="fill:#ffffff" />
    <path
       d="m 348.97,248.268 -34.388,2.397 v 11.003 l 56.757,-3.066 z"
       id="path268"
       inkscape:connector-curvature="0"
       style="fill:#ebebeb" />
    <path
       d="m 419.804,123.551 -34.396,-2.168 -2.121,5.88 1.163,17.522 37.348,-4.414 z"
       id="path270"
       inkscape:connector-curvature="0"
       style="fill:#ebebeb" />
    <path
       d="m 313.181,313.792 110.437,0.504 c 2.217,0.011 4.414,-0.414 6.466,-1.25 2.052,-0.836 3.919,-2.066 5.494,-3.621 1.575,-1.555 2.826,-3.403 3.684,-5.44 0.857,-2.037 1.303,-4.222 1.312,-6.43 l 0.111,-25.373 H 296.517 l -0.079,19.185 v 6.038 c 0.107,4.363 1.914,8.513 5.039,11.572 3.125,3.058 7.323,4.785 11.704,4.815 z"
       id="path272"
       inkscape:connector-curvature="0"
       style="fill:#ebebeb" />
    <path
       d="M 336.088,46.835 335.51,14.6133 h -16.798 l -4.874,28.9822 z"
       id="path274"
       inkscape:connector-curvature="0"
       style="fill:#ebebeb" />
    <path
       d="m 417.533,86.9783 1.701,-6.9835 -11.813,-22.4008 -15.177,7.4407 5.064,21.1869 z"
       id="path276"
       inkscape:connector-curvature="0"
       style="fill:#ebebeb" />
    <path
       d="m 314.582,185.133 c 0.182,1.017 0,28.281 0,28.281 l 22.107,-1.395 -2.54,-37.259 z"
       id="path278"
       inkscape:connector-curvature="0"
       style="fill:#ebebeb" />
    <path
       d="m 388.319,207.298 -1.163,-16.892 37.917,-4.855 v 2.916 l -4.581,15.536 z"
       id="path280"
       inkscape:connector-curvature="0"
       style="fill:#ebebeb" />
    <path
       d="m 355.656,71.8132 c -2.552,0 -4.621,-2.0609 -4.621,-4.6031 0,-2.5422 2.069,-4.6031 4.621,-4.6031 2.552,0 4.621,2.0609 4.621,4.6031 0,2.5422 -2.069,4.6031 -4.621,4.6031 z"
       fill=""
       id="path282"
       inkscape:connector-curvature="0" />
    <g
       id="g286"
       style="opacity:0.6">
      <path
         d="m 351.016,67.4189 c -0.109,-2.5399 1.87,-4.6879 4.42,-4.7977 2.55,-0.1098 4.705,1.8602 4.814,4.4001 0.109,2.5399 -1.87,4.6879 -4.42,4.7977 -2.55,0.1098 -4.705,-1.8601 -4.814,-4.4001 z"
         id="path284"
         inkscape:connector-curvature="0"
         style="opacity:0.6;fill:#ffffff" />
    </g>
    <path
       d="m 355.656,70.1107 c -1.696,0 -3.07,-1.3692 -3.07,-3.0582 0,-1.689 1.374,-3.0582 3.07,-3.0582 1.696,0 3.07,1.3692 3.07,3.0582 0,1.689 -1.374,3.0582 -3.07,3.0582 z"
       id="path288"
       style="fill:#b05ffd;fill-opacity:1"
       inkscape:connector-curvature="0" />
    <path
       d="m 425.074,252.942 c -1.088,0 -1.971,-0.878 -1.971,-1.962 0,-1.084 0.883,-1.963 1.971,-1.963 1.088,0 1.97,0.879 1.97,1.963 0,1.084 -0.882,1.962 -1.97,1.962 z"
       id="path290"
       style="fill:#b05ffd;fill-opacity:1"
       inkscape:connector-curvature="0" />
    <path
       d="m 423.886,250.341 -0.474,-11.035 -33.336,1.577 c -0.871,0.041 -1.738,-0.144 -2.516,-0.536 l -47.278,-23.788 c -0.538,-0.272 -0.995,-0.68 -1.324,-1.184 -0.329,-0.504 -0.52,-1.085 -0.552,-1.685 L 331.973,89.3586 c -0.012,-0.2917 0.037,-0.5829 0.144,-0.8545 0.108,-0.2716 0.272,-0.5175 0.481,-0.7219 0.209,-0.2017 0.457,-0.3584 0.73,-0.4601 0.272,-0.1017 0.563,-0.1463 0.853,-0.131 l 20.264,1.4975 V 66.6189 h 2.374 v 22.3693 c 0,0.2856 -0.06,0.5682 -0.174,0.83 -0.115,0.2618 -0.283,0.4973 -0.493,0.6917 -0.21,0.1945 -0.458,0.3438 -0.729,0.4386 -0.27,0.0949 -0.557,0.1332 -0.843,0.1126 l -20.249,-1.4976 6.441,124.0635 c 0.01,0.185 0.068,0.364 0.17,0.519 0.101,0.155 0.242,0.28 0.408,0.364 l 47.278,23.788 c 0.413,0.21 0.874,0.308 1.337,0.283 l 33.613,-1.631 c 0.276,-0.014 0.552,0.027 0.812,0.12 0.26,0.092 0.5,0.236 0.704,0.421 0.204,0.185 0.37,0.409 0.487,0.659 0.118,0.249 0.184,0.519 0.196,0.794 l 0.491,11.295 z"
       id="path292"
       style="fill:#b05ffd;fill-opacity:1"
       inkscape:connector-curvature="0" />
    <path
       d="m 335.835,149.357 c -3.304,0 -5.982,-2.668 -5.982,-5.959 0,-3.291 2.678,-5.959 5.982,-5.959 3.304,0 5.982,2.668 5.982,5.959 0,3.291 -2.678,5.959 -5.982,5.959 z"
       id="path294"
       style="fill:#b05ffd;fill-opacity:1"
       inkscape:connector-curvature="0" />
    <path
       d="m 335.835,147.536 c -2.295,0 -4.155,-1.853 -4.155,-4.138 0,-2.286 1.86,-4.138 4.155,-4.138 2.294,0 4.154,1.852 4.154,4.138 0,2.285 -1.86,4.138 -4.154,4.138 z"
       id="path296"
       inkscape:connector-curvature="0"
       style="fill:#fafafa" />
    <path
       d="m 340.282,143.398 c 0,-0.878 -0.262,-1.736 -0.751,-2.466 -0.489,-0.729 -1.185,-1.298 -1.999,-1.634 -0.814,-0.336 -1.71,-0.424 -2.574,-0.252 -0.864,0.171 -1.658,0.593 -2.281,1.214 -0.623,0.621 -1.047,1.411 -1.219,2.272 -0.172,0.861 -0.084,1.753 0.253,2.564 0.337,0.811 0.908,1.504 1.641,1.992 0.733,0.487 1.594,0.747 2.475,0.747 1.181,0 2.315,-0.467 3.15,-1.299 0.835,-0.833 1.305,-1.961 1.305,-3.138 z m -0.594,0 c 0,0.761 -0.226,1.504 -0.65,2.137 -0.425,0.632 -1.028,1.125 -1.733,1.416 -0.706,0.292 -1.482,0.368 -2.231,0.219 -0.749,-0.148 -1.437,-0.514 -1.977,-1.052 -0.54,-0.538 -0.908,-1.224 -1.057,-1.97 -0.149,-0.746 -0.073,-1.519 0.22,-2.222 0.292,-0.703 0.787,-1.304 1.422,-1.726 0.635,-0.423 1.381,-0.649 2.145,-0.649 1.024,0 2.006,0.406 2.73,1.127 0.724,0.721 1.131,1.7 1.131,2.72 z"
       id="path298"
       style="fill:#b05ffd;fill-opacity:1"
       inkscape:connector-curvature="0" />
    <path
       d="m 371.07,118.404 h -28.486 c -0.665,0 -1.303,0.263 -1.773,0.732 -0.471,0.468 -0.735,1.104 -0.735,1.767 v 10.246 c 0,0.663 0.264,1.298 0.735,1.767 0.47,0.469 1.108,0.732 1.773,0.732 h 0.325 v 2.451 l 2.848,-2.451 h 25.321 c 0.665,0 1.303,-0.263 1.773,-0.732 0.471,-0.469 0.735,-1.104 0.735,-1.767 v -10.246 c 0,-0.329 -0.065,-0.655 -0.192,-0.958 -0.126,-0.304 -0.312,-0.58 -0.546,-0.812 -0.233,-0.232 -0.511,-0.416 -0.816,-0.541 -0.305,-0.125 -0.632,-0.189 -0.962,-0.188 z"
       fill=""
       id="path300"
       inkscape:connector-curvature="0" />
    <g
       id="g304"
       style="opacity:0.4">
      <path
         d="m 371.07,118.404 h -28.486 c -0.665,0 -1.303,0.263 -1.773,0.732 -0.471,0.468 -0.735,1.104 -0.735,1.767 v 10.246 c 0,0.663 0.264,1.298 0.735,1.767 0.47,0.469 1.108,0.732 1.773,0.732 h 0.325 v 2.451 l 2.848,-2.451 h 25.321 c 0.665,0 1.303,-0.263 1.773,-0.732 0.471,-0.469 0.735,-1.104 0.735,-1.767 v -10.246 c 0,-0.329 -0.065,-0.655 -0.192,-0.958 -0.126,-0.304 -0.312,-0.58 -0.546,-0.812 -0.233,-0.232 -0.511,-0.416 -0.816,-0.541 -0.305,-0.125 -0.632,-0.189 -0.962,-0.188 z"
         id="path302"
         inkscape:connector-curvature="0"
         style="opacity:0.4;fill:#ffffff" />
    </g>
    <path
       d="m 348.203,127.516 c 0.322,-0.014 0.633,-0.122 0.894,-0.311 0.261,-0.188 0.461,-0.449 0.575,-0.749 0.113,-0.301 0.136,-0.628 0.065,-0.941 -0.072,-0.313 -0.234,-0.599 -0.467,-0.821 -0.232,-0.222 -0.526,-0.371 -0.843,-0.429 -0.317,-0.058 -0.644,-0.021 -0.941,0.104 -0.296,0.126 -0.549,0.336 -0.727,0.604 -0.178,0.268 -0.273,0.582 -0.273,0.903 -0.003,0.222 0.04,0.442 0.127,0.647 0.086,0.205 0.214,0.39 0.375,0.543 0.161,0.154 0.351,0.273 0.56,0.35 0.209,0.078 0.432,0.111 0.655,0.1 z m 0,-0.41 c -0.244,-0.003 -0.481,-0.078 -0.682,-0.215 -0.201,-0.137 -0.356,-0.33 -0.447,-0.555 -0.091,-0.225 -0.114,-0.472 -0.064,-0.709 0.049,-0.238 0.168,-0.455 0.341,-0.626 0.174,-0.17 0.394,-0.286 0.633,-0.332 0.239,-0.046 0.486,-0.021 0.711,0.073 0.224,0.093 0.416,0.251 0.551,0.453 0.135,0.202 0.207,0.439 0.207,0.681 0.004,0.164 -0.025,0.328 -0.086,0.481 -0.062,0.152 -0.154,0.291 -0.271,0.407 -0.117,0.116 -0.257,0.206 -0.41,0.267 -0.154,0.06 -0.318,0.088 -0.483,0.083 z"
       id="path306"
       inkscape:connector-curvature="0"
       style="fill:#ffffff" />
    <path
       d="m 351.842,125.033 c -0.163,-0.007 -0.325,0.024 -0.474,0.091 -0.148,0.067 -0.278,0.168 -0.38,0.295 v -1.34 h -0.444 v 3.397 h 0.428 v -0.386 c 0.1,0.134 0.232,0.241 0.384,0.313 0.152,0.071 0.318,0.104 0.486,0.097 0.331,0 0.648,-0.131 0.881,-0.364 0.234,-0.233 0.365,-0.548 0.365,-0.878 0,-0.329 -0.131,-0.645 -0.365,-0.877 -0.233,-0.233 -0.55,-0.364 -0.881,-0.364 z m 0,2.096 c -0.173,0.015 -0.346,-0.023 -0.497,-0.109 -0.151,-0.085 -0.272,-0.214 -0.349,-0.369 -0.076,-0.155 -0.103,-0.33 -0.079,-0.501 0.025,-0.171 0.101,-0.33 0.218,-0.458 0.118,-0.127 0.271,-0.216 0.44,-0.256 0.169,-0.039 0.346,-0.026 0.507,0.036 0.162,0.062 0.301,0.172 0.4,0.314 0.098,0.143 0.151,0.311 0.151,0.484 0.01,0.112 -0.005,0.225 -0.044,0.331 -0.038,0.106 -0.098,0.202 -0.177,0.283 -0.079,0.08 -0.174,0.143 -0.279,0.184 -0.105,0.041 -0.218,0.059 -0.33,0.053 z"
       id="path308"
       inkscape:connector-curvature="0"
       style="fill:#ffffff" />
    <path
       d="m 353.369,128.383 c 0.106,0.009 0.213,-0.004 0.314,-0.041 0.1,-0.036 0.192,-0.094 0.267,-0.169 0.076,-0.075 0.134,-0.166 0.17,-0.266 0.036,-0.1 0.05,-0.207 0.04,-0.313 v -2.538 h -0.443 v 2.538 c 0,0.276 -0.126,0.426 -0.364,0.426 -0.129,0.003 -0.255,-0.039 -0.356,-0.118 l -0.142,0.339 c 0.152,0.1 0.332,0.15 0.514,0.142 z m 0.554,-3.815 c 0.055,-0.003 0.109,-0.023 0.154,-0.056 0.044,-0.033 0.078,-0.078 0.097,-0.13 0.02,-0.052 0.023,-0.108 0.01,-0.162 -0.012,-0.054 -0.041,-0.103 -0.081,-0.142 -0.04,-0.038 -0.091,-0.063 -0.146,-0.073 -0.055,-0.01 -0.111,-0.003 -0.162,0.019 -0.051,0.022 -0.095,0.058 -0.126,0.104 -0.03,0.046 -0.047,0.101 -0.047,0.156 -0.001,0.04 0.006,0.08 0.021,0.118 0.016,0.037 0.038,0.071 0.067,0.099 0.029,0.028 0.064,0.05 0.102,0.064 0.038,0.014 0.078,0.021 0.119,0.018 z"
       id="path310"
       inkscape:connector-curvature="0"
       style="fill:#ffffff" />
    <path
       d="m 357.191,126.278 c 0.011,-0.163 -0.012,-0.326 -0.068,-0.479 -0.056,-0.154 -0.143,-0.294 -0.256,-0.412 -0.113,-0.117 -0.25,-0.211 -0.401,-0.273 -0.151,-0.062 -0.314,-0.093 -0.478,-0.089 -0.163,-0.005 -0.326,0.025 -0.478,0.085 -0.152,0.061 -0.289,0.152 -0.404,0.268 -0.115,0.116 -0.205,0.255 -0.264,0.407 -0.059,0.152 -0.087,0.314 -0.08,0.477 0.016,0.255 0.105,0.5 0.257,0.706 0.153,0.205 0.362,0.363 0.602,0.453 0.24,0.09 0.501,0.109 0.751,0.054 0.251,-0.054 0.48,-0.18 0.661,-0.361 l -0.245,-0.284 c -0.09,0.096 -0.199,0.172 -0.32,0.223 -0.122,0.05 -0.253,0.074 -0.385,0.068 -0.105,0.014 -0.212,0.006 -0.314,-0.023 -0.102,-0.029 -0.197,-0.078 -0.28,-0.144 -0.082,-0.066 -0.151,-0.148 -0.201,-0.241 -0.05,-0.094 -0.081,-0.196 -0.091,-0.301 h 1.955 c 0,-0.039 0.039,-0.094 0.039,-0.134 z m -1.203,-0.883 c 0.195,-10e-4 0.383,0.069 0.529,0.197 0.146,0.128 0.239,0.305 0.263,0.497 h -1.583 c 0.025,-0.191 0.12,-0.366 0.265,-0.492 0.146,-0.127 0.333,-0.195 0.526,-0.194 z"
       id="path312"
       inkscape:connector-curvature="0"
       style="fill:#ffffff" />
    <path
       d="m 358.869,127.508 c 0.198,0.011 0.395,-0.031 0.571,-0.123 0.175,-0.091 0.323,-0.229 0.426,-0.398 l -0.341,-0.181 c -0.073,0.108 -0.172,0.196 -0.288,0.257 -0.116,0.061 -0.245,0.091 -0.376,0.09 -0.228,0 -0.446,-0.09 -0.607,-0.251 -0.161,-0.16 -0.252,-0.377 -0.252,-0.604 0,-0.227 0.091,-0.445 0.252,-0.605 0.161,-0.16 0.379,-0.25 0.607,-0.25 0.131,-0.002 0.26,0.029 0.376,0.09 0.116,0.06 0.215,0.148 0.288,0.256 l 0.333,-0.212 c -0.103,-0.17 -0.25,-0.308 -0.426,-0.4 -0.175,-0.091 -0.373,-0.133 -0.571,-0.121 -0.331,0 -0.648,0.131 -0.881,0.364 -0.234,0.233 -0.365,0.549 -0.365,0.878 0,0.329 0.131,0.645 0.365,0.878 0.233,0.232 0.55,0.363 0.881,0.363 z"
       id="path314"
       inkscape:connector-curvature="0"
       style="fill:#ffffff" />
    <path
       d="m 361.693,127.027 c -0.099,0.078 -0.222,0.119 -0.348,0.118 -0.054,0.004 -0.108,-0.004 -0.158,-0.023 -0.05,-0.02 -0.096,-0.05 -0.132,-0.09 -0.037,-0.039 -0.064,-0.087 -0.079,-0.138 -0.016,-0.051 -0.02,-0.106 -0.011,-0.159 v -1.316 h 0.696 v -0.363 h -0.696 v -0.528 h -0.443 v 0.528 h -0.412 v 0.363 h 0.412 v 1.332 c -0.016,0.107 -0.007,0.217 0.027,0.32 0.034,0.103 0.092,0.196 0.169,0.273 0.077,0.076 0.171,0.134 0.274,0.168 0.104,0.034 0.213,0.043 0.321,0.027 0.191,0.007 0.378,-0.051 0.53,-0.165 z"
       id="path316"
       inkscape:connector-curvature="0"
       style="fill:#ffffff" />
    <path
       d="m 362.587,124.583 c 0.056,-0.003 0.109,-0.022 0.154,-0.055 0.045,-0.033 0.079,-0.078 0.098,-0.13 0.019,-0.052 0.023,-0.109 0.01,-0.163 -0.013,-0.054 -0.041,-0.103 -0.081,-0.141 -0.041,-0.038 -0.092,-0.063 -0.146,-0.073 -0.055,-0.01 -0.112,-0.003 -0.163,0.018 -0.051,0.022 -0.094,0.059 -0.125,0.105 -0.031,0.046 -0.047,0.1 -0.047,0.156 0.001,0.038 0.009,0.076 0.025,0.111 0.016,0.035 0.038,0.066 0.066,0.093 0.028,0.026 0.061,0.047 0.097,0.06 0.036,0.014 0.074,0.02 0.112,0.019 z m -0.221,2.893 h 0.443 v -2.428 h -0.443 z"
       id="path318"
       inkscape:connector-curvature="0"
       style="fill:#ffffff" />
    <path
       d="m 365.381,125.056 -0.855,1.947 -0.838,-1.947 h -0.459 l 1.044,2.428 h 0.451 l 1.068,-2.428 z"
       id="path320"
       inkscape:connector-curvature="0"
       style="fill:#ffffff" />
    <path
       d="m 368.356,126.278 c 0.011,-0.163 -0.012,-0.326 -0.068,-0.479 -0.056,-0.154 -0.143,-0.294 -0.256,-0.412 -0.114,-0.117 -0.25,-0.211 -0.401,-0.273 -0.152,-0.062 -0.314,-0.093 -0.478,-0.089 -0.164,-0.005 -0.326,0.025 -0.478,0.085 -0.152,0.061 -0.29,0.152 -0.405,0.268 -0.115,0.116 -0.205,0.255 -0.264,0.407 -0.059,0.152 -0.086,0.314 -0.08,0.477 0.016,0.255 0.106,0.5 0.258,0.706 0.152,0.205 0.361,0.363 0.601,0.453 0.24,0.09 0.501,0.109 0.752,0.054 0.25,-0.054 0.48,-0.18 0.66,-0.361 l -0.245,-0.284 c -0.089,0.096 -0.198,0.172 -0.32,0.223 -0.121,0.05 -0.252,0.074 -0.384,0.068 -0.105,0.014 -0.212,0.006 -0.314,-0.023 -0.102,-0.029 -0.197,-0.078 -0.28,-0.144 -0.083,-0.066 -0.151,-0.148 -0.201,-0.241 -0.051,-0.094 -0.082,-0.196 -0.091,-0.301 h 1.978 c 0.016,-0.039 0.016,-0.094 0.016,-0.134 z m -1.203,-0.883 c 0.194,-10e-4 0.382,0.069 0.528,0.197 0.146,0.128 0.24,0.305 0.263,0.497 h -1.582 c 0.025,-0.191 0.119,-0.366 0.265,-0.492 0.146,-0.127 0.333,-0.195 0.526,-0.194 z"
       id="path322"
       inkscape:connector-curvature="0"
       style="fill:#ffffff" />
    <path
       d="m 360.846,54.7328 c -0.266,0.3941 -0.554,0.773 -0.862,1.135 l -3.379,4.4613 c -0.099,0.1321 -0.228,0.2394 -0.377,0.3133 -0.148,0.0738 -0.312,0.1123 -0.477,0.1123 -0.166,0 -0.33,-0.0385 -0.478,-0.1123 -0.148,-0.0739 -0.278,-0.1812 -0.377,-0.3133 l -3.442,-4.5401 c -0.285,-0.402 -0.57,-0.67 -0.791,-1.0562 -0.528,-0.8956 -0.809,-1.9142 -0.815,-2.9528 -0.006,-1.0387 0.264,-2.0604 0.782,-2.9617 0.518,-0.9014 1.266,-1.6505 2.168,-2.1715 0.902,-0.521 1.926,-0.7953 2.968,-0.7953 1.043,0 2.067,0.2743 2.969,0.7953 0.902,0.521 1.65,1.2701 2.168,2.1715 0.518,0.9013 0.788,1.923 0.782,2.9617 -0.006,1.0386 -0.287,2.0572 -0.815,2.9528 z m -2.5,-3.0109 c 0,-0.5129 -0.153,-1.0143 -0.439,-1.4407 -0.286,-0.4265 -0.692,-0.7588 -1.168,-0.9551 -0.476,-0.1963 -0.999,-0.2476 -1.504,-0.1476 -0.505,0.1001 -0.969,0.3471 -1.333,0.7097 -0.364,0.3627 -0.612,0.8247 -0.713,1.3278 -0.1,0.503 -0.049,1.0244 0.149,1.4983 0.197,0.4738 0.53,0.8788 0.958,1.1637 0.428,0.285 0.932,0.4371 1.447,0.4371 0.69,0 1.352,-0.2732 1.84,-0.7596 0.489,-0.4863 0.763,-1.1459 0.763,-1.8336 z"
       id="path324"
       style="fill:#b05ffd;fill-opacity:1"
       inkscape:connector-curvature="0" />
    <path
       d="m 323.317,286.977 h 0.459 v -2.806 h 1.1 v -0.402 h -2.667 v 0.402 h 1.108 z"
       id="path326"
       inkscape:connector-curvature="0"
       style="fill:#263238" />
    <path
       d="m 326.11,287.009 c 0.244,-0.005 0.482,-0.081 0.683,-0.22 0.201,-0.138 0.356,-0.333 0.447,-0.559 0.091,-0.226 0.112,-0.473 0.062,-0.712 -0.05,-0.238 -0.169,-0.456 -0.343,-0.627 -0.174,-0.171 -0.394,-0.287 -0.634,-0.334 -0.24,-0.047 -0.488,-0.022 -0.714,0.071 -0.226,0.093 -0.419,0.25 -0.555,0.452 -0.137,0.202 -0.21,0.44 -0.212,0.683 -0.006,0.167 0.023,0.332 0.085,0.487 0.062,0.155 0.155,0.295 0.274,0.412 0.119,0.117 0.261,0.208 0.417,0.268 0.156,0.059 0.323,0.086 0.49,0.079 z m 0,-0.387 c -0.173,0.015 -0.346,-0.023 -0.497,-0.109 -0.151,-0.085 -0.272,-0.214 -0.349,-0.369 -0.076,-0.155 -0.104,-0.33 -0.079,-0.501 0.025,-0.171 0.101,-0.33 0.218,-0.458 0.118,-0.127 0.271,-0.216 0.44,-0.255 0.169,-0.04 0.346,-0.027 0.507,0.035 0.162,0.062 0.301,0.172 0.4,0.314 0.098,0.143 0.151,0.311 0.151,0.484 0.01,0.11 -0.003,0.22 -0.038,0.324 -0.035,0.104 -0.092,0.199 -0.167,0.28 -0.074,0.081 -0.165,0.145 -0.266,0.189 -0.101,0.044 -0.21,0.067 -0.32,0.066 z"
       id="path328"
       inkscape:connector-curvature="0"
       style="fill:#263238" />
    <path
       d="m 329.22,286.52 c -0.099,0.078 -0.222,0.119 -0.348,0.118 -0.054,0.004 -0.108,-0.004 -0.158,-0.023 -0.051,-0.02 -0.096,-0.05 -0.132,-0.09 -0.037,-0.039 -0.064,-0.087 -0.08,-0.138 -0.015,-0.051 -0.019,-0.106 -0.01,-0.159 v -1.316 h 0.696 v -0.363 h -0.696 v -0.528 h -0.443 v 0.528 h -0.412 v 0.363 h 0.412 v 1.332 c -0.016,0.107 -0.007,0.217 0.027,0.32 0.034,0.102 0.092,0.196 0.169,0.273 0.077,0.076 0.171,0.134 0.274,0.168 0.103,0.034 0.213,0.043 0.321,0.027 0.191,0.005 0.379,-0.056 0.53,-0.173 z"
       id="path330"
       inkscape:connector-curvature="0"
       style="fill:#263238" />
    <path
       d="m 330.779,284.526 c -0.361,-0.009 -0.715,0.102 -1.005,0.315 l 0.182,0.331 c 0.225,-0.176 0.505,-0.268 0.791,-0.26 0.435,0 0.657,0.213 0.657,0.583 v 0.087 h -0.697 c -0.728,0 -0.981,0.323 -0.981,0.709 0,0.387 0.348,0.718 0.902,0.718 0.151,0.012 0.302,-0.013 0.44,-0.073 0.139,-0.061 0.259,-0.155 0.352,-0.274 v 0.323 h 0.411 v -1.466 c 0,-0.67 -0.388,-0.993 -1.052,-0.993 z m -0.103,2.136 c -0.333,0 -0.538,-0.15 -0.538,-0.394 0,-0.245 0.126,-0.379 0.562,-0.379 h 0.68 v 0.339 c -0.055,0.139 -0.153,0.256 -0.28,0.336 -0.126,0.079 -0.275,0.116 -0.424,0.106 z"
       id="path332"
       inkscape:connector-curvature="0"
       style="fill:#263238" />
    <path
       d="m 332.622,286.977 h 0.443 v -3.397 h -0.443 z"
       id="path334"
       inkscape:connector-curvature="0"
       style="fill:#263238" />
    <path
       d="m 337.022,283.58 v 1.34 c -0.102,-0.127 -0.233,-0.228 -0.381,-0.295 -0.149,-0.067 -0.311,-0.098 -0.474,-0.091 -0.33,0 -0.647,0.13 -0.881,0.363 -0.234,0.233 -0.365,0.549 -0.365,0.878 0,0.329 0.131,0.645 0.365,0.878 0.234,0.233 0.551,0.363 0.881,0.363 0.168,0.008 0.335,-0.025 0.487,-0.097 0.151,-0.071 0.283,-0.179 0.384,-0.312 v 0.386 h 0.427 v -3.413 z m -0.792,3.042 c -0.172,0.015 -0.346,-0.023 -0.497,-0.109 -0.15,-0.085 -0.272,-0.214 -0.348,-0.369 -0.077,-0.155 -0.104,-0.33 -0.079,-0.501 0.024,-0.171 0.1,-0.33 0.218,-0.458 0.117,-0.127 0.27,-0.216 0.439,-0.255 0.169,-0.04 0.346,-0.027 0.508,0.035 0.162,0.062 0.301,0.172 0.399,0.314 0.098,0.143 0.151,0.311 0.152,0.484 0.01,0.112 -0.004,0.224 -0.041,0.329 -0.036,0.106 -0.095,0.203 -0.172,0.284 -0.077,0.081 -0.171,0.145 -0.275,0.188 -0.103,0.042 -0.215,0.062 -0.327,0.058 z"
       id="path336"
       inkscape:connector-curvature="0"
       style="fill:#263238" />
    <path
       d="m 338.518,284.084 c 0.055,-0.003 0.109,-0.022 0.153,-0.055 0.045,-0.033 0.079,-0.078 0.098,-0.13 0.019,-0.052 0.023,-0.109 0.01,-0.163 -0.013,-0.054 -0.041,-0.103 -0.081,-0.141 -0.041,-0.038 -0.091,-0.064 -0.146,-0.073 -0.055,-0.01 -0.111,-0.004 -0.163,0.018 -0.051,0.022 -0.094,0.058 -0.125,0.105 -0.031,0.046 -0.047,0.1 -0.047,0.156 0.001,0.038 0.009,0.076 0.025,0.111 0.016,0.035 0.038,0.066 0.066,0.093 0.028,0.026 0.061,0.046 0.097,0.06 0.036,0.014 0.074,0.02 0.113,0.019 z m -0.222,2.893 h 0.443 v -2.428 h -0.443 z"
       id="path338"
       inkscape:connector-curvature="0"
       style="fill:#263238" />
    <path
       d="m 340.282,287.009 c 0.648,0 1.052,-0.276 1.052,-0.718 0,-0.946 -1.583,-0.473 -1.583,-1.048 0,-0.189 0.19,-0.331 0.578,-0.331 0.248,-0.007 0.493,0.059 0.704,0.189 l 0.19,-0.347 c -0.271,-0.149 -0.576,-0.225 -0.886,-0.22 -0.625,0 -1.013,0.291 -1.013,0.725 0,0.969 1.543,0.496 1.543,1.04 0,0.205 -0.174,0.331 -0.577,0.331 -0.304,-10e-4 -0.6,-0.088 -0.855,-0.252 l -0.182,0.347 c 0.305,0.198 0.665,0.297 1.029,0.284 z"
       id="path340"
       inkscape:connector-curvature="0"
       style="fill:#263238" />
    <path
       d="m 343.122,286.52 c -0.099,0.078 -0.222,0.119 -0.348,0.118 -0.054,0.004 -0.108,-0.004 -0.158,-0.023 -0.05,-0.02 -0.095,-0.05 -0.132,-0.09 -0.036,-0.039 -0.064,-0.087 -0.079,-0.138 -0.016,-0.051 -0.019,-0.106 -0.011,-0.159 v -1.316 h 0.696 v -0.363 h -0.696 v -0.528 h -0.443 v 0.528 h -0.411 v 0.363 h 0.411 v 1.332 c -0.016,0.107 -0.006,0.217 0.028,0.32 0.034,0.102 0.092,0.196 0.168,0.273 0.077,0.076 0.171,0.134 0.275,0.168 0.103,0.034 0.213,0.043 0.32,0.027 0.192,0.005 0.379,-0.056 0.53,-0.173 z"
       id="path342"
       inkscape:connector-curvature="0"
       style="fill:#263238" />
    <path
       d="m 344.681,284.526 c -0.36,-0.009 -0.714,0.102 -1.005,0.315 l 0.182,0.331 c 0.226,-0.176 0.506,-0.268 0.792,-0.26 0.435,0 0.657,0.213 0.657,0.583 v 0.087 h -0.697 c -0.728,0 -0.981,0.323 -0.981,0.709 0,0.387 0.348,0.718 0.902,0.718 0.151,0.012 0.302,-0.013 0.44,-0.073 0.138,-0.061 0.259,-0.155 0.351,-0.274 v 0.323 h 0.42 v -1.466 c -0.016,-0.67 -0.396,-0.993 -1.061,-0.993 z m -0.102,2.136 c -0.333,0 -0.539,-0.15 -0.539,-0.394 0,-0.245 0.127,-0.379 0.562,-0.379 h 0.681 v 0.339 c -0.055,0.139 -0.153,0.256 -0.28,0.336 -0.127,0.079 -0.275,0.116 -0.424,0.106 z"
       id="path344"
       inkscape:connector-curvature="0"
       style="fill:#263238" />
    <path
       d="m 347.846,284.526 c -0.167,-0.011 -0.333,0.019 -0.486,0.086 -0.153,0.068 -0.287,0.17 -0.392,0.3 v -0.363 h -0.427 v 2.428 h 0.443 v -1.253 c -0.01,-0.106 0.004,-0.213 0.04,-0.313 0.036,-0.1 0.094,-0.191 0.17,-0.266 0.075,-0.075 0.167,-0.133 0.267,-0.169 0.1,-0.036 0.208,-0.05 0.314,-0.04 0.419,0 0.657,0.236 0.657,0.709 v 1.348 h 0.443 v -1.395 c 0.021,-0.142 0.01,-0.286 -0.034,-0.423 -0.043,-0.136 -0.117,-0.261 -0.217,-0.364 -0.099,-0.104 -0.221,-0.183 -0.356,-0.233 -0.134,-0.049 -0.279,-0.067 -0.422,-0.052 z"
       id="path346"
       inkscape:connector-curvature="0"
       style="fill:#263238" />
    <path
       d="m 350.75,287.009 c 0.198,0.011 0.395,-0.031 0.571,-0.123 0.176,-0.091 0.323,-0.229 0.426,-0.398 l -0.332,-0.212 c -0.074,0.108 -0.173,0.196 -0.289,0.256 -0.116,0.061 -0.245,0.092 -0.376,0.09 -0.228,0 -0.446,-0.09 -0.607,-0.25 -0.161,-0.161 -0.251,-0.378 -0.251,-0.605 0,-0.227 0.09,-0.444 0.251,-0.605 0.161,-0.16 0.379,-0.25 0.607,-0.25 0.131,-0.002 0.26,0.029 0.376,0.09 0.116,0.06 0.215,0.149 0.289,0.257 l 0.332,-0.213 c -0.102,-0.169 -0.25,-0.307 -0.425,-0.399 -0.176,-0.092 -0.374,-0.134 -0.572,-0.121 -0.33,0 -0.647,0.131 -0.881,0.363 -0.234,0.233 -0.365,0.549 -0.365,0.878 0,0.329 0.131,0.645 0.365,0.878 0.234,0.233 0.551,0.364 0.881,0.364 z"
       id="path348"
       inkscape:connector-curvature="0"
       style="fill:#263238" />
    <path
       d="m 354.485,285.779 c 0.011,-0.163 -0.012,-0.326 -0.068,-0.479 -0.056,-0.154 -0.143,-0.294 -0.256,-0.412 -0.114,-0.118 -0.25,-0.211 -0.401,-0.273 -0.152,-0.063 -0.314,-0.093 -0.478,-0.089 -0.164,-0.005 -0.326,0.024 -0.478,0.085 -0.152,0.061 -0.29,0.152 -0.405,0.268 -0.115,0.116 -0.205,0.255 -0.264,0.407 -0.059,0.152 -0.086,0.314 -0.079,0.477 0.015,0.255 0.105,0.5 0.257,0.706 0.152,0.205 0.361,0.363 0.601,0.453 0.24,0.09 0.501,0.108 0.752,0.054 0.25,-0.055 0.48,-0.18 0.66,-0.362 l -0.245,-0.283 c -0.089,0.096 -0.198,0.172 -0.32,0.223 -0.121,0.05 -0.253,0.073 -0.384,0.068 -0.105,0.014 -0.212,0.005 -0.314,-0.023 -0.102,-0.029 -0.197,-0.078 -0.28,-0.144 -0.083,-0.066 -0.151,-0.149 -0.201,-0.242 -0.051,-0.093 -0.082,-0.195 -0.091,-0.3 h 1.978 c 0.008,-0.039 0.016,-0.095 0.016,-0.134 z m -1.203,-0.883 c 0.194,-0.001 0.382,0.069 0.528,0.197 0.146,0.128 0.24,0.305 0.263,0.497 h -1.582 c 0.023,-0.191 0.115,-0.367 0.26,-0.495 0.144,-0.127 0.33,-0.198 0.523,-0.199 z"
       id="path350"
       inkscape:connector-curvature="0"
       style="fill:#263238" />
    <path
       d="m 322.898,290.579 v 1.419 h 1.535 v 6.235 h 1.78 v -7.654 z"
       id="path352"
       inkscape:connector-curvature="0"
       style="fill:#263238" />
    <path
       d="m 328.571,296.191 c -0.141,-0.006 -0.282,0.016 -0.413,0.066 -0.132,0.05 -0.252,0.127 -0.352,0.226 -0.1,0.098 -0.179,0.216 -0.231,0.346 -0.053,0.131 -0.077,0.27 -0.073,0.411 -0.011,0.197 0.041,0.393 0.147,0.56 0.106,0.166 0.263,0.296 0.447,0.37 l -0.483,1.741 h 1.052 l 0.626,-1.576 c 0.179,-0.339 0.279,-0.713 0.292,-1.095 0.007,-0.137 -0.015,-0.272 -0.063,-0.4 -0.048,-0.127 -0.122,-0.244 -0.216,-0.342 -0.095,-0.098 -0.209,-0.176 -0.335,-0.229 -0.126,-0.052 -0.262,-0.079 -0.398,-0.078 z"
       id="path354"
       inkscape:connector-curvature="0"
       style="fill:#263238" />
    <path
       d="m 329.9,290.579 v 1.419 h 1.535 v 6.235 h 1.781 v -7.654 z"
       id="path356"
       inkscape:connector-curvature="0"
       style="fill:#263238" />
    <path
       d="m 337.845,298.359 c 1.899,0 3.291,-1.435 3.291,-3.941 0,-2.507 -1.392,-3.941 -3.291,-3.941 -1.9,0 -3.292,1.434 -3.292,3.941 0,2.506 1.4,3.941 3.292,3.941 z m 0,-1.498 c -0.879,0 -1.496,-0.725 -1.496,-2.459 0,-1.734 0.617,-2.459 1.496,-2.459 0.878,0 1.503,0.725 1.503,2.459 0,1.734 -0.617,2.459 -1.503,2.459 z"
       id="path358"
       inkscape:connector-curvature="0"
       style="fill:#263238" />
    <path
       d="m 345.283,298.359 c 1.899,0 3.291,-1.435 3.291,-3.941 0,-2.507 -1.392,-3.941 -3.291,-3.941 -1.899,0 -3.292,1.434 -3.292,3.941 0,2.506 1.416,3.941 3.292,3.941 z m 0,-1.498 c -0.879,0 -1.496,-0.725 -1.496,-2.459 0,-1.734 0.617,-2.459 1.496,-2.459 0.878,0 1.503,0.725 1.503,2.459 0,1.734 -0.601,2.459 -1.503,2.459 z"
       id="path360"
       inkscape:connector-curvature="0"
       style="fill:#263238" />
    <path
       d="m 360.483,292.258 c -0.405,-0.012 -0.807,0.069 -1.176,0.235 -0.369,0.167 -0.695,0.415 -0.953,0.727 -0.212,-0.314 -0.502,-0.567 -0.842,-0.735 -0.34,-0.169 -0.717,-0.247 -1.096,-0.227 -0.348,-0.012 -0.694,0.053 -1.014,0.189 -0.32,0.136 -0.606,0.341 -0.838,0.599 v -0.717 h -1.638 v 5.88 h 1.709 v -2.956 c 0,-1.048 0.538,-1.576 1.298,-1.576 0.76,0 1.116,0.433 1.116,1.387 v 3.106 h 1.685 v -2.956 c 0,-1.049 0.538,-1.577 1.306,-1.577 0.767,0 1.115,0.434 1.115,1.388 v 3.105 h 1.71 v -3.365 c 0.031,-1.695 -0.966,-2.507 -2.382,-2.507 z"
       id="path362"
       inkscape:connector-curvature="0"
       style="fill:#263238" />
    <path
       d="m 311.741,296.577 c -3.657,0 -6.622,-2.953 -6.622,-6.597 0,-3.643 2.965,-6.597 6.622,-6.597 3.658,0 6.623,2.954 6.623,6.597 0,3.644 -2.965,6.597 -6.623,6.597 z"
       id="path364"
       style="fill:#b05ffd;fill-opacity:1"
       inkscape:connector-curvature="0" />
    <path
       d="m 309.059,291.178 c 0.563,-0.081 1.132,-0.116 1.701,-0.102 1.084,0 2.627,-0.055 4.479,-0.071 l -0.135,0.291 -1.693,-1.946 -0.103,-0.127 0.103,-0.126 1.669,-2.08 0.159,0.331 h -0.792 -5.428 l 0.182,-0.182 c 0,2.002 -0.039,3.689 -0.071,4.871 0.013,0.625 -0.024,1.25 -0.111,1.868 -0.087,-0.618 -0.124,-1.243 -0.111,-1.868 0,-1.182 -0.055,-2.869 -0.071,-4.871 v -0.181 h 0.19 5.428 1.187 l -0.269,0.331 -1.685,2.065 v -0.252 l 1.661,1.97 0.254,0.3 h -0.388 c -1.852,0 -3.403,-0.04 -4.479,-0.071 -0.562,-0.003 -1.123,-0.054 -1.677,-0.15 z"
       id="path366"
       inkscape:connector-curvature="0"
       style="fill:#fafafa" />
    <path
       d="m 418.87,278.717 h -20.027 c -1.016,0 -1.99,0.402 -2.708,1.117 -0.718,0.715 -1.122,1.686 -1.122,2.698 v 15.709 c 0,1.011 0.404,1.982 1.122,2.697 0.718,0.715 1.692,1.117 2.708,1.117 h 0.507 v 3.744 l 4.359,-3.744 h 15.161 c 1.016,0 1.99,-0.402 2.708,-1.117 0.718,-0.715 1.122,-1.686 1.122,-2.697 v -15.702 c 0.001,-0.501 -0.098,-0.998 -0.29,-1.462 -0.192,-0.464 -0.473,-0.885 -0.829,-1.24 -0.356,-0.355 -0.778,-0.637 -1.244,-0.829 -0.465,-0.192 -0.963,-0.291 -1.467,-0.291 z"
       id="path368"
       style="fill:#b05ffd;fill-opacity:1"
       inkscape:connector-curvature="0" />
    <path
       d="m 400.774,285.921 v 8.055 c 0,0.084 0.033,0.164 0.092,0.223 0.06,0.059 0.14,0.093 0.224,0.093 h 16.949 c 0.084,0 0.164,-0.034 0.224,-0.093 0.059,-0.059 0.092,-0.139 0.092,-0.223 v -2.948 c -0.001,-0.065 -0.023,-0.128 -0.063,-0.181 l -2.429,-3.239 c -0.029,-0.04 -0.068,-0.071 -0.112,-0.093 -0.044,-0.022 -0.092,-0.034 -0.141,-0.034 h -2.801 c -0.083,-0.002 -0.161,-0.036 -0.219,-0.095 -0.058,-0.058 -0.09,-0.138 -0.09,-0.22 v -1.214 c 0,-0.083 -0.033,-0.163 -0.093,-0.223 -0.059,-0.059 -0.139,-0.092 -0.223,-0.092 h -11.078 c -0.081,-0.004 -0.161,0.023 -0.223,0.076 -0.062,0.052 -0.101,0.127 -0.109,0.208 z"
       id="path370"
       inkscape:connector-curvature="0"
       style="fill:#fafafa" />
    <path
       d="m 413.244,288.159 v 2.594 c 0,0.048 0.019,0.094 0.053,0.128 0.035,0.034 0.081,0.053 0.129,0.053 l 3.743,-0.063 c 0.032,-0.002 0.064,-0.012 0.091,-0.029 0.027,-0.018 0.05,-0.042 0.064,-0.071 0.015,-0.029 0.021,-0.062 0.019,-0.094 -0.002,-0.032 -0.013,-0.063 -0.032,-0.09 l -1.748,-2.57 c -0.018,-0.025 -0.042,-0.046 -0.069,-0.059 -0.028,-0.014 -0.059,-0.021 -0.09,-0.019 l -1.994,0.055 c -0.043,0.003 -0.083,0.022 -0.113,0.052 -0.031,0.031 -0.049,0.071 -0.053,0.113 z"
       id="path372"
       style="fill:#b05ffd;fill-opacity:1"
       inkscape:connector-curvature="0" />
    <path
       d="m 418.688,295.096 h -18.254 v -0.56 h 18.254 z"
       id="path374"
       inkscape:connector-curvature="0"
       style="fill:#fafafa" />
    <path
       d="m 404.667,296.546 c -0.997,0 -1.804,-0.805 -1.804,-1.797 0,-0.993 0.807,-1.797 1.804,-1.797 0.996,0 1.804,0.804 1.804,1.797 0,0.992 -0.808,1.797 -1.804,1.797 z"
       id="path376"
       style="fill:#b05ffd;fill-opacity:1"
       inkscape:connector-curvature="0" />
    <path
       d="m 404.667,295.805 c -0.586,0 -1.06,-0.473 -1.06,-1.056 0,-0.584 0.474,-1.056 1.06,-1.056 0.585,0 1.06,0.472 1.06,1.056 0,0.583 -0.475,1.056 -1.06,1.056 z"
       id="path378"
       inkscape:connector-curvature="0"
       style="fill:#fafafa" />
    <path
       d="m 412.445,294.292 c -0.043,0 -0.078,-1.945 -0.078,-4.343 0,-2.399 0.035,-4.343 0.078,-4.343 0.044,0 0.079,1.944 0.079,4.343 0,2.398 -0.035,4.343 -0.079,4.343 z"
       id="path380"
       style="fill:#b05ffd;fill-opacity:1"
       inkscape:connector-curvature="0" />
    <path
       d="m 414.51,296.546 c -0.996,0 -1.804,-0.805 -1.804,-1.797 0,-0.993 0.808,-1.797 1.804,-1.797 0.996,0 1.804,0.804 1.804,1.797 0,0.992 -0.808,1.797 -1.804,1.797 z"
       id="path382"
       style="fill:#b05ffd;fill-opacity:1"
       inkscape:connector-curvature="0" />
    <path
       d="m 414.51,295.805 c -0.585,0 -1.06,-0.473 -1.06,-1.056 0,-0.584 0.475,-1.056 1.06,-1.056 0.586,0 1.061,0.472 1.061,1.056 0,0.583 -0.475,1.056 -1.061,1.056 z"
       id="path384"
       inkscape:connector-curvature="0"
       style="fill:#fafafa" />
    <path
       d="m 413.933,291.509 c -0.319,0 -0.578,-0.035 -0.578,-0.079 0,-0.043 0.259,-0.078 0.578,-0.078 0.319,0 0.577,0.035 0.577,0.078 0,0.044 -0.258,0.079 -0.577,0.079 z"
       id="path386"
       style="fill:#b05ffd;fill-opacity:1"
       inkscape:connector-curvature="0" />
    <path
       d="m 135.162,159.225 c 0,0 -12.764,2.152 -13.793,2.42 -1.029,0.268 -5.072,2.183 -5.278,3.413 -0.107,1.614 -0.107,3.233 0,4.847 0,0 0.728,0.591 1.187,-0.591 0.301,-1.149 0.432,-2.336 0.388,-3.523 l 2.263,-0.867 -1.235,2.183 -0.205,5.116 c 0,0 1.582,-0.142 1.883,-1.372 0.193,-0.851 0.294,-1.721 0.301,-2.593 l 1.654,-1.395 -1.235,1.663 -0.419,3.689 c 0,0 1.203,0.386 1.582,-0.434 0.278,-1.063 0.416,-2.157 0.412,-3.255 l 4.653,-1.616 3.078,1.71 5.753,-3.239 z"
       id="path388"
       inkscape:connector-curvature="0"
       style="fill:#ffbe9d" />
    <path
       d="m 179.858,127.799 c -0.056,0.253 -15.384,21.282 -15.384,21.282 l -30.784,9.513 1.401,11.516 37.732,-7.567 13.389,-15.307 z"
       id="path390"
       style="fill:#b05ffd;fill-opacity:1"
       inkscape:connector-curvature="0" />
    <g
       id="g394"
       style="opacity:0.2;fill:#008000;fill-opacity:1">
      <path
         d="m 179.858,127.799 c -0.056,0.253 -15.384,21.282 -15.384,21.282 l -30.784,9.513 1.401,11.516 37.732,-7.567 13.389,-15.307 z"
         id="path392"
         style="opacity:0.2;fill:#008000;fill-opacity:1"
         inkscape:connector-curvature="0" />
    </g>
    <path
       d="m 296.368,156.719 h -62.896 c -1.333,0 -2.414,1.076 -2.414,2.404 v 7.401 c 0,1.327 1.081,2.404 2.414,2.404 h 62.896 c 1.333,0 2.414,-1.077 2.414,-2.404 v -7.401 c 0,-1.328 -1.081,-2.404 -2.414,-2.404 z"
       id="path396"
       inkscape:connector-curvature="0"
       style="fill:#f5f5f5" />
    <path
       d="m 233.472,168.928 c 0,0 -0.135,0 -0.396,-0.055 -0.504,-0.091 -0.966,-0.342 -1.316,-0.716 -0.349,-0.373 -0.568,-0.85 -0.623,-1.357 0,-0.741 0,-1.624 0,-2.601 v -3.271 -1.869 c 0.007,-0.32 0.081,-0.636 0.217,-0.926 0.136,-0.291 0.332,-0.55 0.575,-0.76 0.258,-0.221 0.564,-0.38 0.894,-0.465 0.351,-0.076 0.71,-0.102 1.068,-0.079 h 2.311 5.025 l 55.086,0.063 c 0.307,0 0.61,0.064 0.891,0.187 0.28,0.124 0.532,0.304 0.739,0.53 0.207,0.229 0.364,0.497 0.464,0.788 0.099,0.292 0.138,0.6 0.114,0.907 0,1.324 0,2.638 0,3.941 0,0.651 0,1.3 0,1.947 v 1.024 c 0.017,0.305 -0.009,0.61 -0.079,0.907 -0.078,0.283 -0.212,0.549 -0.394,0.78 -0.182,0.232 -0.409,0.425 -0.667,0.568 -0.244,0.136 -0.513,0.224 -0.791,0.26 -0.277,0 -0.617,0 -0.934,0 h -14.624 l -24.769,0.047 -16.698,0.063 h -4.542 -1.179 -0.404 0.404 1.179 4.542 l 16.698,0.063 24.769,0.047 h 14.624 c 0.324,0 0.617,0 0.973,0 0.345,-0.036 0.678,-0.14 0.982,-0.307 0.303,-0.167 0.571,-0.392 0.787,-0.663 0.216,-0.27 0.376,-0.581 0.471,-0.913 0.08,-0.33 0.112,-0.67 0.095,-1.009 v -0.97 c 0,-0.646 0,-1.295 0,-1.947 0,-1.303 0,-2.616 0,-3.941 0.024,-0.357 -0.024,-0.715 -0.141,-1.053 -0.117,-0.339 -0.3,-0.65 -0.54,-0.917 -0.246,-0.269 -0.545,-0.483 -0.879,-0.63 -0.334,-0.146 -0.695,-0.222 -1.06,-0.221 l -55.085,0.063 h -5.025 -2.311 c -0.377,-0.021 -0.756,0.011 -1.124,0.094 -0.362,0.097 -0.698,0.275 -0.981,0.52 -0.269,0.23 -0.486,0.514 -0.637,0.833 -0.152,0.32 -0.234,0.667 -0.242,1.02 0,0.646 0,1.269 0,1.868 v 3.271 c 0,0.985 0,1.844 0,2.617 0.042,0.324 0.148,0.637 0.312,0.92 0.165,0.283 0.384,0.53 0.646,0.727 0.319,0.242 0.695,0.399 1.092,0.457 0.151,0.08 0.314,0.134 0.483,0.158 z"
       id="path398"
       inkscape:connector-curvature="0"
       style="fill:#263238" />
    <path
       d="m 64.7381,324.975 c 17.8692,-0.258 32.1451,-14.895 31.8862,-32.693 -0.2589,-17.799 -14.9545,-32.018 -32.8236,-31.76 -17.8691,0.258 -32.145,14.895 -31.8862,32.693 0.2589,17.798 14.9545,32.018 32.8236,31.76 z"
       id="path400"
       inkscape:connector-curvature="0"
       style="fill:#263238" />
    <path
       d="m 96.5919,292.203 c 0,0 0,0.055 0,0.087 0.0718,8.513 -3.2416,16.71 -9.2166,22.798 -5.9751,6.089 -14.1263,9.576 -22.6736,9.699 -8.5472,0.122 -16.7961,-3.128 -22.945,-9.043 -6.149,-5.914 -9.6985,-14.012 -9.8734,-22.524 0,0 0,-0.056 0,-0.087 z"
       id="path402"
       inkscape:connector-curvature="0"
       style="fill:#263238" />
    <path
       d="m 64.5986,315.375 c 12.5464,-0.181 22.5699,-10.458 22.3882,-22.954 -0.1818,-12.497 -10.5,-22.481 -23.0464,-22.3 -12.5464,0.181 -22.5699,10.459 -22.3881,22.955 0.1817,12.497 10.4999,22.48 23.0463,22.299 z"
       id="path404"
       inkscape:connector-curvature="0"
       style="fill:#fafafa" />
    <path
       d="m 63.9171,270.125 c 6.0244,-0.086 11.8366,2.215 16.1581,6.396 4.3215,4.182 6.7985,9.902 6.886,15.903 l -45.4314,0.693 c -0.0482,-2.974 0.493,-5.929 1.5924,-8.695 1.0994,-2.766 2.7356,-5.289 4.815,-7.424 2.0793,-2.136 4.5609,-3.842 7.3029,-5.021 2.7421,-1.179 5.6906,-1.809 8.677,-1.852 z"
       id="path406"
       inkscape:connector-curvature="0"
       style="fill:#e0e0e0" />
    <path
       d="m 64.4697,306.533 c 7.6432,-0.111 13.7495,-6.371 13.6388,-13.984 -0.1107,-7.613 -6.3965,-13.695 -14.0398,-13.585 -7.6432,0.11 -13.7494,6.371 -13.6387,13.984 0.1107,7.613 6.3965,13.695 14.0397,13.585 z"
       id="path408"
       inkscape:connector-curvature="0"
       style="fill:#263238" />
    <path
       d="m 79.6015,245.494 c 0,0 -33.1259,-9.979 -46.8242,25.869 L 102.1,292.747 Z"
       id="path410"
       style="fill:#b05ffd;fill-opacity:1"
       inkscape:connector-curvature="0" />
    <path
       d="m 264.375,324.963 c 17.869,-0.258 32.145,-14.895 31.886,-32.693 -0.259,-17.798 -14.955,-32.017 -32.824,-31.759 -17.869,0.258 -32.145,14.895 -31.886,32.693 0.259,17.798 14.955,32.017 32.824,31.759 z"
       id="path412"
       inkscape:connector-curvature="0"
       style="fill:#263238" />
    <path
       d="m 296.241,292.203 c 0,0 0,0.055 0,0.087 0.072,8.513 -3.241,16.71 -9.216,22.798 -5.975,6.089 -14.127,9.576 -22.674,9.699 -8.547,0.122 -16.796,-3.128 -22.945,-9.043 -6.149,-5.914 -9.698,-14.012 -9.873,-22.524 0,0 0,-0.056 0,-0.087 z"
       id="path414"
       inkscape:connector-curvature="0"
       style="fill:#263238" />
    <path
       d="m 264.235,315.364 c 12.546,-0.181 22.57,-10.458 22.388,-22.955 -0.182,-12.496 -10.5,-22.48 -23.046,-22.299 -12.547,0.181 -22.57,10.458 -22.389,22.955 0.182,12.496 10.5,22.48 23.047,22.299 z"
       id="path416"
       inkscape:connector-curvature="0"
       style="fill:#fafafa" />
    <path
       d="m 263.567,270.125 c 6.024,-0.086 11.836,2.215 16.158,6.396 4.321,4.182 6.798,9.902 6.886,15.903 l -45.431,0.654 c -0.087,-6.001 2.223,-11.79 6.421,-16.094 4.198,-4.305 9.941,-6.772 15.966,-6.859 z"
       id="path418"
       inkscape:connector-curvature="0"
       style="fill:#e0e0e0" />
    <path
       d="m 264.106,306.521 c 7.644,-0.11 13.75,-6.371 13.639,-13.984 -0.111,-7.612 -6.396,-13.695 -14.04,-13.584 -7.643,0.11 -13.749,6.371 -13.638,13.984 0.11,7.613 6.396,13.695 14.039,13.584 z"
       id="path420"
       inkscape:connector-curvature="0"
       style="fill:#263238" />
    <path
       d="m 217.866,279.812 c 0.182,0.095 17.03,-2.593 17.03,-2.593 0.911,1.184 2.071,2.156 3.398,2.848 1.327,0.692 2.79,1.086 4.286,1.156 7.281,0.347 14.395,0.67 20.575,0.938 2.761,0.123 5.36,1.331 7.228,3.36 1.868,2.028 2.851,4.712 2.735,7.462 -0.111,2.61 -1.204,5.083 -3.061,6.927 -1.858,1.845 -4.344,2.926 -6.965,3.028 l -35.832,1.403 c -5.896,0.229 -13.722,-3.334 -17.41,-7.929 z"
       id="path422"
       inkscape:connector-curvature="0"
       style="fill:#455a64" />
    <path
       d="m 305.896,265.53 c 0,0 1.543,-31.41 -28.093,-37.952 V 223.55 H 173.986 v 9.664 c 0,0 15.241,18.278 10.287,33.451 -4.953,15.173 -6.528,16.726 -6.528,16.726 h -59.09 c -4.658,-6.529 -7.256,-14.292 -7.463,-22.299 -0.308,-13.32 5.247,-36.091 9.394,-50.65 3.774,-13.233 6.156,-24.308 6.156,-24.308 l -17.726,-5.888 c 0,0 -32.8171,42.682 -34.1624,45.086 -1.3453,2.404 -5.8956,8.008 -4.8194,20.28 1.0763,12.272 30.5458,50.177 38.3168,54.441 7.771,4.265 14.735,4.54 21.707,5.604 6.046,0.931 50.781,0.316 62.517,0.134 4.066,-0.034 8.051,-1.143 11.545,-3.215 3.498,-2.113 6.133,-5.612 9.038,-11.351 l 6.164,-12.012 z"
       id="path424"
       style="fill:#b05ffd;fill-opacity:1"
       inkscape:connector-curvature="0" />
    <path
       d="m 297.951,263.37 13.081,20.399 c 0.388,0.565 0.581,1.241 0.549,1.926 -0.032,0.684 -0.287,1.339 -0.726,1.866 -0.439,0.527 -1.038,0.898 -1.707,1.055 -0.669,0.158 -1.372,0.095 -2.002,-0.181 -1.625,-0.721 -3.11,-1.725 -4.384,-2.963 -5.982,-5.668 -16.618,-20.596 -16.618,-20.596 z"
       id="path426"
       inkscape:connector-curvature="0"
       style="fill:#455a64" />
    <path
       d="m 204.184,267.043 c -0.017,-0.102 -0.044,-0.202 -0.079,-0.299 l -0.261,-0.859 c -0.316,-1.103 -0.546,-2.228 -0.689,-3.366 -0.438,-4.21 0.262,-8.461 2.026,-12.312 1.186,-2.657 2.816,-5.096 4.819,-7.212 2.302,-2.416 4.973,-4.454 7.914,-6.037 3.261,-1.752 6.75,-3.047 10.367,-3.847 3.899,-0.84 7.88,-1.25 11.87,-1.221 3.985,0.025 7.963,0.315 11.91,0.867 3.83,0.512 7.502,1.142 10.968,1.931 6.154,1.298 12.086,3.484 17.607,6.487 3.71,2.049 7.101,4.624 10.066,7.645 1.045,1.072 1.797,1.963 2.295,2.578 l 0.562,0.701 c 0.062,0.082 0.13,0.159 0.206,0.229 -0.873,-1.29 -1.858,-2.501 -2.944,-3.618 -2.936,-3.08 -6.318,-5.705 -10.034,-7.788 -5.532,-3.056 -11.486,-5.282 -17.671,-6.605 -3.474,-0.788 -7.122,-1.442 -11,-1.962 -3.964,-0.562 -7.961,-0.857 -11.965,-0.883 -4.012,-0.027 -8.014,0.388 -11.934,1.237 -3.654,0.824 -7.175,2.15 -10.461,3.941 -2.983,1.609 -5.69,3.682 -8.017,6.14 -2.018,2.152 -3.653,4.631 -4.835,7.331 -1.756,3.9 -2.418,8.201 -1.915,12.445 0.167,1.145 0.432,2.274 0.791,3.374 l 0.301,0.843 c 0.027,0.09 0.062,0.177 0.103,0.26 z"
       id="path428"
       inkscape:connector-curvature="0"
       style="fill:#263238" />
    <path
       d="m 210.167,260.013 c 0.047,0 -0.175,-0.497 -0.388,-1.395 -0.297,-1.294 -0.337,-2.633 -0.119,-3.942 0.306,-1.927 0.96,-3.783 1.931,-5.478 0.551,-1.011 1.192,-1.971 1.915,-2.869 0.761,-0.973 1.623,-1.863 2.572,-2.656 1.854,-1.515 3.937,-2.728 6.172,-3.594 1.83,-0.717 3.729,-1.245 5.667,-1.576 1.31,-0.22 2.63,-0.37 3.956,-0.45 0.487,-0.006 0.974,-0.043 1.456,-0.11 -0.126,-0.018 -0.254,-0.018 -0.379,0 -0.246,0 -0.618,0 -1.085,0 -1.324,0.021 -2.646,0.129 -3.956,0.323 -1.969,0.282 -3.9,0.776 -5.761,1.474 -2.296,0.859 -4.434,2.086 -6.331,3.634 -0.971,0.81 -1.852,1.721 -2.627,2.719 -0.733,0.919 -1.379,1.903 -1.931,2.94 -0.975,1.74 -1.614,3.646 -1.884,5.62 -0.192,1.33 -0.106,2.685 0.253,3.98 0.093,0.353 0.221,0.696 0.38,1.025 0.035,0.125 0.088,0.245 0.159,0.355 z"
       id="path430"
       inkscape:connector-curvature="0"
       style="fill:#f5f5f5" />
    <g
       id="g434"
       style="opacity:0.4">
      <path
         d="m 230.496,232.473 c -5.588,1.015 -10.907,3.161 -15.629,6.305 -4.749,3.14 -8.406,7.667 -10.469,12.958 -2.074,5.313 -1.765,12.352 0.419,16.75 l -7.336,0.607 c -2.469,-8.206 0.222,-18.271 6.157,-24.695 3.4,-3.75 7.55,-6.751 12.184,-8.811 4.633,-2.059 9.648,-3.13 14.722,-3.146"
         fill=""
         id="path432"
         inkscape:connector-curvature="0"
         style="opacity:0.4" />
    </g>
    <path
       d="m 232.831,223.574 h 64.17 c 3.75,0 6.79,-3.028 6.79,-6.763 v -41.735 c 0,-3.735 -3.04,-6.763 -6.79,-6.763 h -64.17 c -3.75,0 -6.79,3.028 -6.79,6.763 v 41.735 c 0,3.735 3.04,6.763 6.79,6.763 z"
       id="path436"
       inkscape:connector-curvature="0"
       style="fill:#455a64" />
    <path
       d="m 226.049,180.641 c 0,0.11 17.481,0.204 39.037,0.204 21.556,0 39.045,-0.094 39.045,-0.204 0,-0.111 -17.481,-0.237 -39.077,-0.237 -21.595,0 -39.005,0.126 -39.005,0.237 z"
       id="path438"
       inkscape:connector-curvature="0"
       style="fill:#263238" />
    <path
       d="m 174.049,227.231 c 0,0.111 23.329,0.205 52.111,0.205 28.781,0 52.11,-0.094 52.11,-0.205 0,-0.11 -23.329,-0.205 -52.11,-0.205 -28.782,0 -52.111,0.095 -52.111,0.205 z"
       id="path440"
       inkscape:connector-curvature="0"
       style="fill:#263238" />
    <path
       d="m 173.986,223.574 c -1.055,-1.336 -1.705,-2.944 -1.876,-4.635 -0.166,-2.601 1.029,-5.84 3.831,-5.84 h 35.848 c 1.382,-0.002 2.751,0.267 4.029,0.793 1.278,0.525 2.439,1.296 3.418,2.269 0.978,0.973 1.754,2.129 2.283,3.401 0.53,1.272 0.803,2.635 0.803,4.012 z"
       id="path442"
       inkscape:connector-curvature="0"
       style="fill:#455a64" />
    <path
       d="m 126.719,186.095 6.236,-12.95 c 0.821,-1.78 0.952,-3.799 0.368,-5.669 -0.585,-1.87 -1.844,-3.459 -3.534,-4.46 l -18.644,-11.074 c -0.975,-0.576 -2.087,-0.881 -3.221,-0.883 h -4.028 l -1.583,26.176 6.213,2.365 -3.957,6.369 z"
       id="path444"
       style="fill:#b05ffd;fill-opacity:1"
       inkscape:connector-curvature="0" />
    <path
       d="m 103.849,152.029 c 0,0 -6.3784,1.458 -7.1776,11.247 -0.7993,9.79 5.6266,12.84 5.6266,12.84 z"
       id="path446"
       inkscape:connector-curvature="0"
       style="fill:#ebebeb" />
    <path
       d="m 124.55,168.069 c 0,0 12.891,6.085 14.466,7.094 1.092,0.693 2.026,1.907 1.171,4.043 -1.464,3.641 -7.486,0.213 -7.486,0.213 l -11.997,-5.975 c 0,0 -4.613,-2.167 -2.912,-4.887 1.899,-3.042 6.758,-0.488 6.758,-0.488 z"
       id="path448"
       inkscape:connector-curvature="0"
       style="fill:#263238" />
    <path
       d="m 142.799,165.854 c 0,0 -12.108,2.065 -13.137,2.364 -1.028,0.3 -5.072,2.184 -5.278,3.413 -0.106,1.614 -0.106,3.234 0,4.848 0,0 0.728,0.591 1.187,-0.591 0.302,-1.15 0.432,-2.337 0.388,-3.524 l 2.263,-0.867 -1.234,2.184 -0.206,5.115 c 0,0 1.583,-0.142 1.883,-1.371 0.194,-0.852 0.294,-1.721 0.301,-2.594 l 1.646,-1.395 -1.234,1.663 -0.42,3.689 c 0,0 1.203,0.386 1.583,-0.433 0.278,-1.063 0.416,-2.157 0.411,-3.256 l 4.654,-1.615 3.078,1.71 4.843,-2.64 z"
       id="path450"
       inkscape:connector-curvature="0"
       style="fill:#ffbe9d" />
    <path
       d="m 128.966,157.893 c 2.78,0 5.033,-3.959 5.033,-8.844 0,-4.884 -2.253,-8.843 -5.033,-8.843 -2.78,0 -5.033,3.959 -5.033,8.843 0,4.885 2.253,8.844 5.033,8.844 z"
       id="path452"
       inkscape:connector-curvature="0"
       style="fill:#263238" />
    <path
       d="m 128.151,155.126 -2.777,9.514 c -0.507,-0.253 -0.911,-0.67 -1.146,-1.184 -0.235,-0.513 -0.286,-1.091 -0.144,-1.638 0.696,-3.271 1.084,-5.596 1.851,-8.465 0.095,-0.292 2.208,1.734 2.208,1.734"
       id="path454"
       inkscape:connector-curvature="0"
       style="fill:#263238" />
    <g
       id="g458"
       style="opacity:0.4">
      <path
         d="m 182.889,270.708 c 0.277,-0.788 0.554,-1.576 0.791,-2.419 0.238,-0.844 0.538,-1.577 0.744,-2.365 0.32,-1.164 0.555,-2.349 0.704,-3.547 4.669,18.917 -2.461,32.261 -14.695,33.199 -17.877,1.372 -39.678,2.365 -48.494,0.063 -16.072,-4.201 -21.9679,-17.545 -23.3765,-19.752 -1.4086,-2.207 -14.1889,-25.475 -6.3308,-47.883 7.8583,-22.409 21.4933,-46.205 21.4933,-46.205 l 13.017,4.319 c 0,0 -2.374,11.035 -6.156,24.309 -4.147,14.558 -9.702,37.329 -9.394,50.65 0.211,7.998 2.809,15.752 7.463,22.274 h 59.082 c 0,0 1.266,-1.261 5.168,-12.611"
         fill=""
         id="path456"
         inkscape:connector-curvature="0"
         style="opacity:0.4" />
    </g>
    <path
       d="m 308.262,260.627 -0.419,-4.492 -107.845,12.374 c -1.442,0.168 -2.835,0.628 -4.092,1.352 -1.257,0.723 -2.352,1.695 -3.219,2.855 -0.866,1.16 -1.485,2.485 -1.819,3.892 -0.334,1.408 -0.375,2.868 -0.121,4.292 l 0.482,2.719 111.581,-16.158 c 1.618,-0.219 3.089,-1.052 4.105,-2.325 1.016,-1.274 1.499,-2.889 1.347,-4.509 z"
       fill=""
       id="path460"
       inkscape:connector-curvature="0" />
    <g
       id="g464"
       style="opacity:0.6;fill:#b05ffd;fill-opacity:1">
      <path
         d="m 308.262,260.627 -0.419,-4.492 -107.845,12.374 c -1.442,0.168 -2.835,0.628 -4.092,1.352 -1.257,0.723 -2.352,1.695 -3.219,2.855 -0.866,1.16 -1.485,2.485 -1.819,3.892 -0.334,1.408 -0.375,2.868 -0.121,4.292 l 0.482,2.719 111.581,-16.158 c 1.618,-0.219 3.089,-1.052 4.105,-2.325 1.016,-1.274 1.499,-2.889 1.347,-4.509 z"
         id="path462"
         style="opacity:0.6;fill:#b05ffd;fill-opacity:1"
         inkscape:connector-curvature="0" />
    </g>
    <g
       id="g468"
       style="opacity:0.3">
      <path
         d="m 98.5702,290.674 c 0,0 -23.7405,-26.011 -28.639,-46.457 -2.4612,-0.014 -4.9195,0.168 -7.3516,0.544 0,0 14.0385,38.015 35.9906,45.913 z"
         fill=""
         id="path466"
         inkscape:connector-curvature="0"
         style="opacity:0.3" />
    </g>
    <path
       d="m 70.2798,235.058 c -0.06,0.214 -0.1024,0.433 -0.1266,0.654 -0.0633,0.434 -0.1899,1.072 -0.2691,1.9 -0.2275,2.363 -0.1664,4.745 0.1821,7.094 0.5605,3.467 1.6269,6.834 3.1653,9.994 1.881,3.846 3.9788,7.583 6.2834,11.193 4.1354,6.59 8.7816,12.849 13.896,18.719 1.9309,2.27 3.5295,4.083 4.6374,5.337 l 1.2819,1.426 c 0.1422,0.173 0.2984,0.334 0.4669,0.481 -0.1196,-0.189 -0.2546,-0.369 -0.4036,-0.536 l -1.2265,-1.482 -4.5345,-5.415 c -5.0368,-5.909 -9.6386,-12.173 -13.7694,-18.743 -2.306,-3.612 -4.414,-7.346 -6.315,-11.185 -1.5204,-3.126 -2.5863,-6.451 -3.1654,-9.876 -0.3668,-2.314 -0.4703,-4.662 -0.3086,-6.999 0.0554,-0.828 0.1582,-1.466 0.1899,-1.908 0.0227,-0.217 0.028,-0.436 0.0158,-0.654 z"
       id="path470"
       inkscape:connector-curvature="0"
       style="fill:#263238" />
    <path
       d="m 115.105,287.097 c 2.021,-1.97 3.595,-3.633 3.515,-3.714 -0.079,-0.081 -1.782,1.451 -3.803,3.421 -2.02,1.97 -3.594,3.633 -3.514,3.714 0.079,0.081 1.782,-1.451 3.802,-3.421 z"
       id="path472"
       inkscape:connector-curvature="0"
       style="fill:#263238" />
    <path
       d="m 181.773,289.688 c -0.89,-2.383 -2.345,-4.517 -4.242,-6.218 -0.087,0.078 0.997,1.371 2.153,3.089 1.155,1.719 1.986,3.177 2.089,3.129 z"
       id="path474"
       inkscape:connector-curvature="0"
       style="fill:#263238" />
    <path
       d="m 227.394,304.704 c -1.298,-1.18 -2.391,-2.565 -3.237,-4.099 -0.884,-1.676 -1.422,-3.512 -1.582,-5.399 -0.243,-2.301 0.16,-4.625 1.163,-6.712 1.003,-2.087 2.567,-3.856 4.519,-5.111 1.573,-1.061 3.343,-1.798 5.207,-2.168 1.728,-0.309 3.495,-0.333 5.231,-0.071 -0.113,-0.051 -0.233,-0.086 -0.357,-0.102 -0.34,-0.088 -0.687,-0.154 -1.036,-0.197 -1.295,-0.173 -2.609,-0.141 -3.894,0.094 -1.917,0.337 -3.743,1.064 -5.365,2.136 -2.03,1.281 -3.655,3.106 -4.69,5.266 -1.034,2.16 -1.436,4.567 -1.158,6.944 0.181,1.937 0.763,3.815 1.709,5.517 0.624,1.143 1.426,2.18 2.374,3.074 0.249,0.243 0.514,0.469 0.792,0.678 0.1,0.065 0.209,0.116 0.324,0.15 z"
       id="path476"
       inkscape:connector-curvature="0"
       style="fill:#263238" />
    <path
       d="m 268.235,293.168 c 0.106,-2.098 0.099,-3.804 -0.015,-3.809 -0.113,-0.006 -0.291,1.69 -0.396,3.788 -0.105,2.099 -0.099,3.804 0.015,3.81 0.114,0.006 0.291,-1.691 0.396,-3.789 z"
       id="path478"
       inkscape:connector-curvature="0"
       style="fill:#263238" />
    <path
       d="m 264.604,292.707 c 0.27,-2.103 0.397,-3.82 0.284,-3.834 -0.112,-0.014 -0.422,1.679 -0.692,3.782 -0.27,2.103 -0.397,3.819 -0.284,3.833 0.112,0.015 0.422,-1.678 0.692,-3.781 z"
       id="path480"
       inkscape:connector-curvature="0"
       style="fill:#263238" />
    <path
       d="m 248.721,223.779 c 16.175,0 29.288,-0.092 29.288,-0.205 0,-0.113 -13.113,-0.205 -29.288,-0.205 -16.175,0 -29.288,0.092 -29.288,0.205 0,0.113 13.113,0.205 29.288,0.205 z"
       id="path482"
       inkscape:connector-curvature="0"
       style="fill:#263238" />
    <path
       d="m 261.889,223.535 c 0.111,0 0.206,-14.976 0.206,-33.405 0,-18.428 -0.095,-33.411 -0.206,-33.411 -0.111,0 -0.206,14.975 -0.206,33.411 0,18.437 0.103,33.405 0.206,33.405 z"
       id="path484"
       inkscape:connector-curvature="0"
       style="fill:#263238" />
    <path
       d="m 269.929,223.479 c 0.111,0 -0.451,-14.976 -1.25,-33.388 -0.799,-18.412 -1.583,-33.38 -1.662,-33.372 -0.079,0.007 0.451,14.975 1.25,33.388 0.8,18.412 1.536,33.38 1.662,33.372 z"
       id="path486"
       inkscape:connector-curvature="0"
       style="fill:#263238" />
    <path
       d="m 288.091,314.635 c 0.128,-0.102 0.245,-0.219 0.348,-0.347 0.213,-0.244 0.546,-0.583 0.926,-1.064 1.093,-1.339 2.07,-2.768 2.92,-4.272 2.86,-4.981 4.353,-10.623 4.329,-16.361 -0.023,-5.738 -1.563,-11.368 -4.464,-16.326 -0.861,-1.496 -1.849,-2.918 -2.952,-4.248 -0.379,-0.481 -0.72,-0.788 -0.933,-1.056 -0.103,-0.128 -0.22,-0.245 -0.348,-0.347 0.079,0.144 0.175,0.279 0.284,0.402 0.19,0.26 0.515,0.607 0.871,1.096 1.047,1.36 1.991,2.796 2.825,4.295 2.8,4.94 4.282,10.512 4.306,16.184 0.023,5.673 -1.413,11.257 -4.171,16.219 -0.823,1.507 -1.757,2.951 -2.794,4.32 -0.356,0.496 -0.673,0.851 -0.863,1.103 -0.109,0.123 -0.205,0.258 -0.284,0.402 z"
       id="path488"
       inkscape:connector-curvature="0"
       style="fill:#455a64" />
    <path
       d="m 174.722,254.582 0.245,0.465 4.748,8.93 6.679,6.408 -13.35,17.703 -11.126,-1.836 c 0,0 1.25,-2.53 6.829,-3.019 l 2.137,-10.609 -7.842,-12.107"
       id="path490"
       inkscape:connector-curvature="0"
       style="fill:#455a64" />
    <path
       d="m 186.402,270.377 -13.342,17.704 -11.126,-1.837 1.527,-1.458 9.132,0.993 12.393,-16.765 z"
       id="path492"
       inkscape:connector-curvature="0"
       style="fill:#e0e0e0" />
    <path
       d="m 169.657,278.362 c 0.064,0.126 0.792,-0.126 1.583,0 0.791,0.126 1.424,0.631 1.535,0.528 0.111,-0.102 -0.396,-0.835 -1.44,-1.017 -1.045,-0.181 -1.773,0.387 -1.678,0.489 z"
       id="path494"
       inkscape:connector-curvature="0"
       style="fill:#263238" />
    <path
       d="m 170.274,275.777 c 0.095,0.094 0.705,-0.473 1.583,-0.497 0.878,-0.024 1.583,0.497 1.646,0.394 0.063,-0.102 -0.047,-0.252 -0.332,-0.473 -0.384,-0.283 -0.852,-0.429 -1.329,-0.413 -0.477,0.016 -0.935,0.192 -1.299,0.5 -0.237,0.213 -0.316,0.426 -0.269,0.489 z"
       id="path496"
       inkscape:connector-curvature="0"
       style="fill:#263238" />
    <path
       d="m 170.765,272.348 c 0.111,0.079 0.602,-0.497 1.417,-0.638 0.815,-0.142 1.472,0.228 1.582,0.11 0.111,-0.118 -0.079,-0.229 -0.364,-0.394 -0.385,-0.205 -0.829,-0.275 -1.259,-0.199 -0.43,0.075 -0.823,0.293 -1.115,0.617 -0.269,0.268 -0.316,0.472 -0.261,0.504 z"
       id="path498"
       inkscape:connector-curvature="0"
       style="fill:#263238" />
    <path
       d="m 168.225,269.235 c 0.127,0.071 0.546,-0.513 1.306,-0.844 0.759,-0.331 1.464,-0.284 1.495,-0.418 0.032,-0.134 -0.791,-0.457 -1.701,0 -0.91,0.458 -1.227,1.222 -1.1,1.262 z"
       id="path500"
       inkscape:connector-curvature="0"
       style="fill:#263238" />
    <path
       d="m 167.157,266.72 c 0.047,0.048 0.49,-0.339 1.163,-1.001 l 1.163,-1.174 c 0.259,-0.23 0.483,-0.495 0.665,-0.788 0.106,-0.214 0.123,-0.46 0.047,-0.686 -0.046,-0.127 -0.129,-0.237 -0.237,-0.318 -0.108,-0.081 -0.237,-0.129 -0.372,-0.139 -0.404,0.009 -0.798,0.135 -1.132,0.362 -0.802,0.489 -1.392,1.26 -1.653,2.16 -0.207,0.505 -0.207,1.071 0,1.576 0.082,-0.487 0.193,-0.968 0.332,-1.442 0.191,-0.486 0.479,-0.929 0.847,-1.301 0.215,-0.213 0.457,-0.398 0.72,-0.551 0.25,-0.166 0.539,-0.266 0.839,-0.292 0.041,0.001 0.082,0.014 0.115,0.038 0.034,0.024 0.06,0.057 0.075,0.096 0.039,0.101 0.039,0.214 0,0.315 -0.159,0.256 -0.347,0.492 -0.562,0.702 l -1.084,1.245 c -0.626,0.678 -0.974,1.151 -0.926,1.198 z"
       id="path502"
       inkscape:connector-curvature="0"
       style="fill:#263238" />
    <path
       d="m 166.706,266.98 c 0.055,0 0.11,-0.583 -0.38,-1.347 -0.335,-0.504 -0.824,-0.886 -1.394,-1.09 -0.57,-0.205 -1.192,-0.221 -1.772,-0.046 -0.064,0.041 -0.118,0.095 -0.159,0.159 -0.042,0.064 -0.068,0.137 -0.078,0.212 -0.013,0.129 0.015,0.258 0.079,0.37 0.091,0.156 0.206,0.297 0.34,0.418 0.22,0.213 0.458,0.406 0.713,0.576 0.427,0.287 0.897,0.505 1.392,0.646 0.442,0.178 0.93,0.214 1.393,0.102 0,-0.078 -0.522,-0.126 -1.282,-0.433 -0.442,-0.177 -0.86,-0.41 -1.242,-0.694 -0.225,-0.164 -0.437,-0.346 -0.633,-0.544 -0.095,-0.088 -0.178,-0.189 -0.246,-0.299 0,-0.103 0,-0.079 0,-0.103 0.109,-0.043 0.224,-0.064 0.341,-0.063 0.139,-0.011 0.28,-0.011 0.419,0 0.365,0.032 0.719,0.137 1.042,0.307 0.324,0.171 0.61,0.404 0.841,0.686 0.232,0.368 0.441,0.75 0.626,1.143 z"
       id="path504"
       inkscape:connector-curvature="0"
       style="fill:#263238" />
    <path
       d="m 180.232,269.025 c 0.122,-0.726 -0.37,-1.412 -1.098,-1.533 -0.729,-0.122 -1.418,0.368 -1.54,1.094 -0.121,0.726 0.371,1.412 1.099,1.533 0.729,0.121 1.418,-0.369 1.539,-1.094 z"
       id="path506"
       inkscape:connector-curvature="0"
       style="fill:#e0e0e0" />
    <path
       d="m 134.205,263.095 -3.569,23.078 -28.853,-4.272 c 0.578,-2.719 16.334,-6.022 16.334,-6.022 l 1.677,-14.881 z"
       id="path508"
       inkscape:connector-curvature="0"
       style="fill:#455a64" />
    <path
       d="m 127.217,275.958 c 0.264,0.125 0.473,0.343 0.587,0.612 0.114,0.269 0.125,0.57 0.03,0.846 -0.115,0.269 -0.33,0.483 -0.599,0.599 -0.27,0.115 -0.573,0.124 -0.849,0.024 -0.286,-0.134 -0.511,-0.371 -0.63,-0.663 -0.119,-0.293 -0.123,-0.619 -0.011,-0.914 0.149,-0.269 0.398,-0.47 0.694,-0.56 0.295,-0.09 0.614,-0.061 0.889,0.08"
       id="path510"
       inkscape:connector-curvature="0"
       style="fill:#e0e0e0" />
    <path
       d="m 130.636,286.173 0.269,-2.365 -27.768,-3.223 c 0,0 -1.369,0.362 -1.362,1.292 z"
       id="path512"
       inkscape:connector-curvature="0"
       style="fill:#e0e0e0" />
    <path
       d="m 117.666,275.666 c 0,0.142 0.68,0.308 1.305,0.867 0.626,0.56 0.911,1.199 1.045,1.159 0.135,-0.039 0.048,-0.875 -0.72,-1.537 -0.768,-0.662 -1.646,-0.623 -1.63,-0.489 z"
       id="path514"
       inkscape:connector-curvature="0"
       style="fill:#263238" />
    <path
       d="m 114.453,276.462 c -0.055,0.134 0.522,0.458 0.91,1.128 0.388,0.67 0.435,1.316 0.578,1.324 0.142,0.008 0.348,-0.788 -0.151,-1.577 -0.498,-0.788 -1.313,-1.009 -1.337,-0.875 z"
       id="path516"
       inkscape:connector-curvature="0"
       style="fill:#263238" />
    <path
       d="m 112.189,279.812 c 0.127,0.048 0.428,-0.622 0.174,-1.442 -0.253,-0.82 -0.862,-1.23 -0.933,-1.119 -0.072,0.11 0.269,0.583 0.459,1.261 0.189,0.678 0.166,1.269 0.3,1.3 z"
       id="path518"
       inkscape:connector-curvature="0"
       style="fill:#263238" />
    <path
       d="m 118.425,272.317 c 0.04,0.134 0.713,0 1.504,0.212 0.791,0.213 1.369,0.513 1.464,0.402 0.095,-0.11 -0.427,-0.701 -1.361,-0.89 -0.934,-0.189 -1.662,0.149 -1.607,0.276 z"
       id="path520"
       inkscape:connector-curvature="0"
       style="fill:#263238" />
    <path
       d="m 119.62,269.006 c 0.455,0.198 0.956,0.269 1.448,0.205 0.536,-0.014 1.067,-0.094 1.583,-0.237 0.305,-0.084 0.604,-0.189 0.894,-0.315 0.177,-0.065 0.343,-0.159 0.491,-0.276 0.106,-0.085 0.181,-0.204 0.213,-0.337 0.031,-0.132 0.018,-0.272 -0.039,-0.396 -0.057,-0.107 -0.138,-0.2 -0.237,-0.271 -0.099,-0.071 -0.213,-0.119 -0.333,-0.139 -0.183,-0.026 -0.37,-0.026 -0.554,0 -0.318,0.03 -0.634,0.088 -0.941,0.174 -0.521,0.145 -1.015,0.371 -1.464,0.67 -0.792,0.52 -1.069,1.009 -1.021,1.04 0.047,0.032 0.451,-0.339 1.203,-0.741 0.441,-0.238 0.912,-0.418 1.4,-0.536 0.286,-0.068 0.577,-0.113 0.871,-0.134 0.316,0 0.577,0 0.633,0.15 0.055,0.15 0,0.079 -0.056,0.158 -0.109,0.082 -0.228,0.148 -0.356,0.197 -0.257,0.122 -0.521,0.23 -0.791,0.323 -0.482,0.154 -0.978,0.262 -1.48,0.323 -0.491,0.012 -0.98,0.059 -1.464,0.142 z"
       id="path522"
       inkscape:connector-curvature="0"
       style="fill:#263238" />
    <path
       d="m 119.771,269.235 c 0.047,0 0.403,-0.434 0.585,-1.332 0.167,-0.846 0.099,-1.721 -0.197,-2.531 -0.047,-0.199 -0.145,-0.384 -0.283,-0.535 -0.139,-0.152 -0.314,-0.266 -0.509,-0.332 -0.129,-0.016 -0.261,0.005 -0.379,0.061 -0.117,0.056 -0.217,0.144 -0.285,0.255 -0.1,0.156 -0.178,0.326 -0.23,0.504 -0.097,0.314 -0.145,0.641 -0.142,0.97 -0.001,0.549 0.135,1.091 0.395,1.576 0.451,0.828 1.013,1.08 1.037,1.04 -0.263,-0.382 -0.503,-0.779 -0.72,-1.19 -0.187,-0.449 -0.273,-0.933 -0.253,-1.418 0.011,-0.282 0.061,-0.561 0.15,-0.828 0.087,-0.3 0.245,-0.528 0.356,-0.481 0.111,0.047 0.356,0.284 0.435,0.544 0.107,0.271 0.189,0.55 0.246,0.835 0.091,0.486 0.112,0.983 0.063,1.474 -0.111,0.836 -0.34,1.356 -0.269,1.388 z"
       id="path524"
       inkscape:connector-curvature="0"
       style="fill:#263238" />
    <path
       d="m 156.909,208.882 24.745,53.708 -16.341,9.774 -34.218,-64.625"
       id="path526"
       inkscape:connector-curvature="0"
       style="fill:#263238" />
    <path
       d="m 116.099,273.585 17.758,2.838 10.627,-63.167 52.514,3.792 c 1.393,0.093 2.791,-0.043 4.139,-0.402 14.751,-4.028 12.749,-22.748 11.332,-25.751 l -72.654,-2.081 c -3.806,-0.108 -7.518,1.185 -10.427,3.633 -2.908,2.447 -4.808,5.877 -5.336,9.633 z"
       id="path528"
       inkscape:connector-curvature="0"
       style="fill:#263238" />
    <path
       d="m 213.173,193.867 -0.261,-26.705 c 0,0 3.459,-17.34 4.487,-24.19 1.583,-10.601 3.767,-15.63 -13.658,-23.165 l -3.807,-1.466 -5.895,0.079 c -7.035,0.528 -14.443,6.857 -14.609,11.035 l -6.782,60.179 z"
       id="path530"
       style="fill:#b05ffd;fill-opacity:1"
       inkscape:connector-curvature="0" />
    <path
       d="m 212.081,126.018 c 0,0 4.915,10.546 3.957,20.154 l -18.335,17.53 c -4.115,4.556 -9.251,6.495 -15.827,6.889 l -37.938,4.13 -1.052,-9.884 36.093,-10.184 c 1.433,-0.26 2.153,-1.757 3.253,-2.711 z"
       id="path532"
       style="fill:#b05ffd;fill-opacity:1"
       inkscape:connector-curvature="0" />
    <path
       d="m 215.049,129.06 c -0.214,-0.202 -0.46,-0.367 -0.728,-0.488 -0.78,-0.347 -1.606,-0.578 -2.453,-0.686 -1.357,-0.224 -2.742,-0.224 -4.099,0 -0.42,0.076 -0.825,0.214 -1.203,0.41 -0.389,0.239 -0.762,0.502 -1.116,0.788 -0.772,0.604 -1.512,1.249 -2.216,1.931 -1.519,1.411 -2.96,3.2 -4.645,5.013 -1.686,1.813 -3.529,3.76 -5.54,5.801 -2.01,2.042 -4.162,4.178 -6.481,6.385 -1.163,1.095 -2.374,2.215 -3.624,3.31 -0.641,0.528 -1.274,1.143 -1.883,1.719 -0.581,0.603 -1.318,1.034 -2.129,1.245 v 0 l -36.117,10.152 -0.167,0.047 v 0.174 l 0.238,2.215 0.791,7.669 v 0.205 h 0.206 l 16.056,-1.758 7.597,-0.835 7.273,-0.734 c 2.374,-0.26 4.661,-0.528 6.885,-0.851 2.169,-0.265 4.305,-0.759 6.37,-1.474 1.908,-0.72 3.715,-1.684 5.373,-2.869 1.583,-1.111 3.063,-2.27 4.432,-3.413 5.421,-4.611 9.401,-8.725 12.163,-11.531 1.369,-1.411 2.421,-2.522 3.126,-3.279 l 0.791,-0.867 c 0.174,-0.197 0.261,-0.307 0.261,-0.307 l -0.285,0.275 -0.791,0.844 -3.165,3.231 c -2.794,2.775 -6.806,6.858 -12.235,11.429 -1.369,1.127 -2.833,2.278 -4.431,3.374 -1.641,1.163 -3.426,2.108 -5.31,2.814 -2.054,0.7 -4.176,1.181 -6.331,1.434 -2.216,0.316 -4.511,0.584 -6.877,0.836 l -7.272,0.717 -7.597,0.788 -16.065,1.742 0.23,0.181 -0.792,-7.669 -0.237,-2.215 -0.15,0.221 36.085,-10.247 c 0.881,-0.222 1.682,-0.686 2.311,-1.339 0.641,-0.607 1.219,-1.175 1.875,-1.711 1.267,-1.103 2.469,-2.231 3.633,-3.334 2.31,-2.215 4.463,-4.367 6.465,-6.416 2.002,-2.049 3.838,-3.996 5.54,-5.833 1.701,-1.836 3.102,-3.618 4.597,-5.028 0.694,-0.682 1.423,-1.326 2.184,-1.932 0.345,-0.285 0.707,-0.548 1.085,-0.788 0.36,-0.19 0.747,-0.325 1.147,-0.402 1.338,-0.237 2.706,-0.259 4.052,-0.063 0.84,0.094 1.663,0.303 2.445,0.623 0.254,0.148 0.497,0.314 0.728,0.496 z"
       id="path534"
       inkscape:connector-curvature="0"
       style="fill:#263238" />
    <path
       d="m 205.577,95.1835 -1.844,26.0105 c -0.145,2.047 -1.063,3.962 -2.57,5.361 -1.507,1.398 -3.49,2.175 -5.55,2.174 -1.116,10e-4 -2.221,-0.227 -3.245,-0.671 -1.024,-0.443 -1.946,-1.091 -2.708,-1.905 -0.761,-0.813 -1.347,-1.774 -1.719,-2.822 -0.373,-1.049 -0.525,-2.162 -0.447,-3.272 0.166,-2.475 0.309,-4.5 0.309,-4.5 0,0 -6.331,-0.978 -6.394,-7.268 -0.048,-3.633 0.585,-11.8779 1.123,-18.1993 0.177,-2.0609 1.124,-3.9805 2.654,-5.379 1.53,-1.3984 3.532,-2.1736 5.608,-2.172 h 3.83 c 1.561,0.092 3.087,0.4949 4.488,1.1847 1.401,0.6898 2.65,1.6526 3.671,2.8314 1.021,1.1788 1.794,2.5497 2.274,4.0314 0.48,1.4818 0.657,3.0444 0.52,4.5953 z"
       id="path536"
       inkscape:connector-curvature="0"
       style="fill:#ffbe9d" />
    <path
       d="m 187.803,115.488 c 2.921,0.045 5.789,-0.778 8.238,-2.365 0,0 -1.947,4.532 -8.254,3.941 z"
       id="path538"
       inkscape:connector-curvature="0"
       style="fill:#eb996e" />
    <path
       d="m 183.957,98.1944 c -0.002,0.2343 0.088,0.4602 0.25,0.6295 0.163,0.1694 0.385,0.2687 0.621,0.2769 0.113,0.0097 0.227,-0.003 0.335,-0.0374 0.109,-0.0344 0.209,-0.0899 0.296,-0.1631 0.087,-0.0733 0.158,-0.1629 0.21,-0.2638 0.052,-0.1008 0.083,-0.2109 0.092,-0.3239 0.003,-0.2343 -0.087,-0.4602 -0.25,-0.6295 -0.162,-0.1693 -0.385,-0.2687 -0.62,-0.2769 -0.113,-0.0097 -0.228,0.003 -0.336,0.0374 -0.108,0.0344 -0.209,0.0899 -0.296,0.1631 -0.087,0.0733 -0.158,0.1629 -0.21,0.2638 -0.052,0.1008 -0.083,0.2109 -0.092,0.3239 z"
       id="path540"
       inkscape:connector-curvature="0"
       style="fill:#263238" />
    <path
       d="m 183.625,96.421 c 0.11,0.1182 0.791,-0.3863 1.764,-0.3863 0.974,0 1.686,0.4887 1.789,0.3705 0.103,-0.1182 -0.063,-0.2601 -0.372,-0.4887 -0.42,-0.291 -0.921,-0.4452 -1.432,-0.4414 -0.506,-0.0034 -1,0.154 -1.409,0.4493 -0.293,0.2286 -0.419,0.4414 -0.34,0.4966 z"
       id="path542"
       inkscape:connector-curvature="0"
       style="fill:#263238" />
    <path
       d="m 193.042,98.1944 c -0.003,0.2343 0.087,0.4602 0.25,0.6295 0.162,0.1694 0.385,0.2687 0.62,0.2769 0.113,0.0097 0.228,-0.003 0.336,-0.0374 0.108,-0.0344 0.209,-0.0899 0.296,-0.1631 0.086,-0.0733 0.158,-0.1629 0.21,-0.2638 0.052,-0.1008 0.083,-0.2109 0.092,-0.3239 0.002,-0.2343 -0.088,-0.4602 -0.25,-0.6295 -0.163,-0.1693 -0.386,-0.2687 -0.621,-0.2769 -0.113,-0.0097 -0.227,0.003 -0.336,0.0374 -0.108,0.0344 -0.208,0.0899 -0.295,0.1631 -0.087,0.0733 -0.158,0.1629 -0.21,0.2638 -0.052,0.1008 -0.083,0.2109 -0.092,0.3239 z"
       id="path544"
       inkscape:connector-curvature="0"
       style="fill:#263238" />
    <path
       d="m 193.168,96.6022 c 0.111,0.1182 0.792,-0.3862 1.765,-0.3862 0.973,0 1.685,0.4887 1.788,0.3705 0.103,-0.1183 -0.063,-0.2602 -0.372,-0.4888 -0.42,-0.2909 -0.92,-0.4451 -1.432,-0.4414 -0.506,-0.0034 -0.999,0.154 -1.409,0.4493 -0.292,0.2286 -0.395,0.4414 -0.34,0.4966 z"
       id="path546"
       inkscape:connector-curvature="0"
       style="fill:#263238" />
    <path
       d="m 189.647,103.775 c -0.514,-0.16 -1.046,-0.256 -1.583,-0.284 -0.245,0 -0.483,-0.071 -0.522,-0.244 -0.021,-0.256 0.037,-0.512 0.166,-0.733 l 0.736,-1.884 c 0.68,-1.593 1.23,-3.2377 1.646,-4.9184 -0.808,1.5351 -1.491,3.1324 -2.042,4.7764 l -0.704,1.892 c -0.156,0.298 -0.2,0.641 -0.127,0.969 0.036,0.087 0.091,0.165 0.16,0.228 0.07,0.062 0.154,0.109 0.244,0.135 0.137,0.036 0.278,0.054 0.419,0.055 0.533,0.071 1.073,0.073 1.607,0.008 z"
       id="path548"
       inkscape:connector-curvature="0"
       style="fill:#263238" />
    <path
       d="m 192.503,104.445 c -0.158,0 -0.158,1.04 -1.06,1.789 -0.902,0.749 -2.026,0.631 -2.034,0.788 -0.008,0.158 0.254,0.205 0.728,0.213 0.617,0.007 1.217,-0.202 1.694,-0.591 0.447,-0.38 0.73,-0.916 0.791,-1.498 0.071,-0.449 -0.047,-0.709 -0.119,-0.701 z"
       id="path550"
       inkscape:connector-curvature="0"
       style="fill:#263238" />
    <path
       d="m 192.923,92.8109 c 0.095,0.2601 1.068,0.1419 2.208,0.2759 1.139,0.134 2.057,0.4493 2.208,0.2128 0.071,-0.1103 -0.095,-0.3625 -0.467,-0.6148 -0.496,-0.312 -1.056,-0.5075 -1.639,-0.5716 -0.583,-0.0642 -1.172,0.0046 -1.724,0.2012 -0.42,0.1655 -0.633,0.3704 -0.586,0.4965 z"
       id="path552"
       inkscape:connector-curvature="0"
       style="fill:#263238" />
    <path
       d="m 183.981,93.6228 c 0.174,0.2207 0.839,0 1.646,0 0.807,0 1.488,0.1498 1.638,-0.0788 0.071,-0.1104 0,-0.3311 -0.332,-0.536 -0.4,-0.2511 -0.866,-0.3777 -1.338,-0.3637 -0.472,0.0141 -0.93,0.1681 -1.314,0.4425 -0.277,0.205 -0.371,0.4257 -0.3,0.536 z"
       id="path554"
       inkscape:connector-curvature="0"
       style="fill:#263238" />
    <path
       d="m 203.448,99.9127 c 0.111,-0.0473 4.337,-1.2769 4.202,3.0263 -0.135,4.304 -4.447,3.279 -4.447,3.153 0,-0.126 0.245,-6.1793 0.245,-6.1793 z"
       id="path556"
       inkscape:connector-curvature="0"
       style="fill:#ffbe9d" />
    <path
       d="m 204.572,104.5 c 0,0 0.071,0.055 0.198,0.118 0.181,0.069 0.381,0.069 0.562,0 0.285,-0.167 0.521,-0.407 0.683,-0.695 0.161,-0.288 0.242,-0.614 0.235,-0.944 0.023,-0.369 -0.036,-0.738 -0.175,-1.08 -0.036,-0.135 -0.105,-0.259 -0.2,-0.362 -0.095,-0.103 -0.213,-0.182 -0.346,-0.229 -0.085,-0.027 -0.177,-0.022 -0.26,0.012 -0.082,0.035 -0.15,0.098 -0.191,0.177 -0.063,0.118 0,0.205 -0.063,0.213 -0.063,0.008 -0.087,-0.079 -0.047,-0.252 0.027,-0.108 0.092,-0.203 0.182,-0.268 0.122,-0.085 0.272,-0.119 0.419,-0.095 0.181,0.037 0.35,0.12 0.488,0.242 0.139,0.122 0.244,0.277 0.303,0.452 0.172,0.378 0.248,0.792 0.222,1.206 0.009,0.383 -0.096,0.76 -0.302,1.084 -0.205,0.323 -0.502,0.58 -0.853,0.736 -0.117,0.031 -0.238,0.035 -0.356,0.012 -0.118,-0.024 -0.229,-0.073 -0.325,-0.146 -0.166,-0.079 -0.182,-0.173 -0.174,-0.181 z"
       id="path558"
       inkscape:connector-curvature="0"
       style="fill:#eb996e" />
    <path
       d="m 205.854,99.7629 c -0.412,-0.0274 -0.823,0.0572 -1.189,0.2451 -0.367,0.187 -0.675,0.47 -0.893,0.819 -0.285,0.615 -0.34,1.308 -0.625,1.923 -0.112,0.321 -0.328,0.596 -0.615,0.78 -0.287,0.185 -0.628,0.268 -0.968,0.237 -0.224,-0.07 -0.426,-0.198 -0.584,-0.371 -0.159,-0.173 -0.268,-0.385 -0.318,-0.614 -0.089,-0.458 -0.089,-0.929 0,-1.388 0.254,-2.0094 0.681,-4.0036 0.792,-6.0214 0.159,-2.0336 -0.29,-4.0685 -1.29,-5.8485 -0.509,-0.8799 -1.246,-1.607 -2.135,-2.1049 -0.888,-0.498 -1.895,-0.7483 -2.914,-0.7247 -1.345,0.1103 -2.572,0.7882 -3.909,0.9931 -0.794,0.1041 -1.602,0.0269 -2.361,-0.2257 -0.76,-0.2526 -1.452,-0.6741 -2.023,-1.2324 -0.143,-0.1419 -0.792,-0.5833 -0.792,-0.5833 0.018,-0.4781 0.175,-0.9408 0.451,-1.3321 2.643,-2.4355 7.415,-3.1528 10.905,-2.2385 1.778,0.435 3.44,1.2505 4.869,2.3898 1.429,1.1394 2.593,2.5751 3.409,4.2075 1.503,3.2631 1.06,7.7953 0.229,11.0979"
       id="path560"
       inkscape:connector-curvature="0"
       style="fill:#263238" />
    <path
       d="m 182.469,89.1379 c 0,0 16.571,-5.3125 23.741,8.9698 0.549,-1.7968 0.907,-3.6461 1.068,-5.5174 0,-1.2769 -0.791,-8.8989 -8.642,-11.295 0.008,0.0315 -11.854,-4.477 -16.167,7.8426 z"
       fill=""
       id="path562"
       inkscape:connector-curvature="0" />
    <path
       d="m 196.706,89.4926 c -0.295,0.4726 -0.696,0.8706 -1.171,1.1627 -0.475,0.2921 -1.012,0.4704 -1.568,0.5208 -0.556,0.0505 -1.116,-0.0284 -1.637,-0.2302 -0.52,-0.2019 -0.986,-0.5213 -1.362,-0.9331 -0.166,0.4093 -0.456,0.7566 -0.83,0.9936 -0.374,0.237 -0.813,0.3518 -1.256,0.3283 -0.442,-0.0234 -0.867,-0.1839 -1.213,-0.459 -0.347,-0.2751 -0.599,-0.6512 -0.721,-1.0757 -0.44,0.4959 -0.979,0.8957 -1.582,1.1744 -0.31,0.1314 -0.653,0.1648 -0.983,0.0957 -0.33,-0.0691 -0.63,-0.2373 -0.861,-0.4819 -0.19,-0.2846 -0.282,-0.623 -0.262,-0.9642 0.02,-0.3412 0.151,-0.6667 0.373,-0.9275 0.451,-0.5142 1.029,-0.9026 1.677,-1.1271 1.964,-0.8598 4.121,-1.1862 6.252,-0.9458 2.127,0.2683 4.071,1.3337 5.437,2.9794"
       id="path564"
       inkscape:connector-curvature="0"
       style="fill:#263238" />
    <g
       id="g568"
       style="opacity:0.4;fill:#b05ffd;fill-opacity:1">
      <path
         d="m 182.469,89.1379 c 1.382,-1.44 3.272,-2.288 5.271,-2.3646 4.89,-0.2128 14.038,2.5223 18.47,11.358 0.549,-1.7967 0.907,-3.646 1.068,-5.5174 0,-1.2769 -0.791,-8.8988 -8.642,-11.2949 0.008,0.0078 -11.854,-4.5007 -16.167,7.8189 z"
         id="path566"
         style="opacity:0.4;fill:#b05ffd;fill-opacity:1"
         inkscape:connector-curvature="0" />
    </g>
    <path
       d="m 205.521,96.4367 c -2.512,-3.73 -5.805,-6.8735 -9.654,-9.2141 -3.806,-2.3646 -10.106,-4.7292 -14.45,-5.8642 -1.274,-0.4177 -2.623,-0.5601 -3.957,-0.4178 -0.671,0.0846 -1.304,0.3557 -1.828,0.7823 -0.523,0.4266 -0.915,0.9913 -1.132,1.6296 -0.411,1.6316 2.493,4.146 3.854,5.1312 1.338,0.888 2.722,1.7037 4.147,2.4435 0,0 0,-3.0267 4.819,-3.6494 6.576,-0.8355 18.201,9.1589 18.201,9.1589 z"
       id="path570"
       style="fill:#b05ffd;fill-opacity:1"
       inkscape:connector-curvature="0" />
    <g
       id="g574"
       style="opacity:0.3">
      <path
         d="m 211.354,150.074 c -1.71,4.107 -3.435,9.175 -5.912,12.871 -2.477,3.697 -5.785,6.976 -9.907,8.671 -5.168,2.151 -11.285,2.506 -16.429,0.291 -0.419,-0.181 -1.242,-0.41 -1.163,-0.859 0,0 1.701,-0.189 2.231,-0.276 10.399,-1.75 11.522,-3.026 16.5,-6.944 3.102,-2.443 9.979,-9.829 14.68,-13.778"
         fill=""
         id="path572"
         inkscape:connector-curvature="0"
         style="opacity:0.3" />
    </g>
    <path
       d="m 178.307,179.978 c 0.103,0.338 0.249,0.661 0.435,0.962 0.462,0.852 1.025,1.646 1.678,2.365 2.201,2.313 4.978,4.004 8.048,4.902 3.049,0.867 6.198,1.336 9.369,1.395 1.211,0.048 2.192,0.056 2.865,0.056 0.351,0.02 0.704,0.004 1.052,-0.048 -0.343,-0.072 -0.693,-0.108 -1.044,-0.11 l -2.857,-0.181 c -3.136,-0.144 -6.246,-0.646 -9.267,-1.498 -3.008,-0.89 -5.745,-2.516 -7.961,-4.729 -0.871,-0.962 -1.647,-2.004 -2.318,-3.114 z"
       id="path576"
       inkscape:connector-curvature="0"
       style="fill:#263238" />
    <path
       d="m 133.54,278.307 c 0.03,-0.079 0.051,-0.161 0.063,-0.245 l 0.143,-0.725 0.506,-2.798 1.812,-10.286 5.777,-33.979 2.841,-16.986 -0.206,0.158 22.72,1.655 6.521,0.441 1.741,0.103 h 0.451 0.15 -0.15 l -0.443,-0.048 -1.733,-0.165 -6.513,-0.552 -22.704,-1.805 h -0.174 v 0.173 l -2.873,16.978 -5.658,34.003 -1.67,10.31 -0.451,2.814 -0.102,0.733 c -0.024,0.072 -0.039,0.146 -0.048,0.221 z"
       id="path578"
       inkscape:connector-curvature="0"
       style="fill:#455a64" />
    <path
       d="m 139.151,207.629 c -0.071,0.094 1.306,1.277 2.881,2.869 1.574,1.592 2.738,2.987 2.833,2.908 -1.463,-2.314 -3.412,-4.286 -5.714,-5.777 z"
       id="path580"
       inkscape:connector-curvature="0"
       style="fill:#455a64" />
    <path
       d="m 187.661,120.635 c 0,0 -0.048,0.086 -0.095,0.26 -0.074,0.257 -0.125,0.521 -0.151,0.788 -0.091,0.973 0.041,1.954 0.388,2.869 0.51,1.369 1.416,2.557 2.604,3.413 1.489,1.013 3.282,1.488 5.08,1.348 1.789,-0.117 3.504,-0.756 4.93,-1.837 1.147,-0.883 2.1,-1.991 2.802,-3.255 0.468,-0.845 0.827,-1.745 1.068,-2.68 0.067,-0.26 0.12,-0.523 0.158,-0.788 0,-0.174 0,-0.268 0,-0.276 -0.369,1.244 -0.873,2.444 -1.503,3.578 -0.715,1.204 -1.658,2.256 -2.778,3.098 -1.382,1.022 -3.031,1.624 -4.748,1.734 -1.707,0.135 -3.41,-0.307 -4.835,-1.253 -1.144,-0.803 -2.031,-1.917 -2.556,-3.208 -0.357,-0.873 -0.526,-1.81 -0.499,-2.751 0.071,-0.662 0.174,-1.025 0.135,-1.04 z"
       id="path582"
       inkscape:connector-curvature="0"
       style="fill:#263238" />
    <path
       d="m 176.494,155.055 c 0.088,-0.255 0.144,-0.519 0.167,-0.788 l 0.316,-2.254 0.974,-7.449 c 0.356,-2.916 0.641,-5.556 0.791,-7.472 0.087,-0.961 0.15,-1.734 0.182,-2.27 0.035,-0.277 0.035,-0.558 0,-0.835 -0.087,0.255 -0.143,0.519 -0.166,0.788 l -0.277,2.278 -0.934,7.456 c -0.356,2.909 -0.665,5.518 -0.855,7.465 -0.095,0.961 -0.158,1.734 -0.19,2.27 -0.036,0.269 -0.038,0.542 -0.008,0.811 z"
       id="path584"
       inkscape:connector-curvature="0"
       style="fill:#263238" />
  </g>
  <defs
     id="defs591">
    <clipPath
       id="clip0">
      <rect
         width="554"
         height="325"
         id="rect588"
         x="0"
         y="0"
         style="fill:#ffffff" />
    </clipPath>
  </defs>
</svg>
